<svg xmlns="http://www.w3.org/2000/svg" width="2048" height="2048"><path fill="#fdfdfa" d="m575 986 5 1v2l1.8.8c2.2 1.2 2.2 1.2 4.1 2.7 2.1 1.5 2.1 1.5 4.8 2.5l2.3 1 1 3c1.8.8 1.8.8 4 1.4q4.6 1.4 8.8 3.5 6.6 3.3 13.7 5.8l8.3 3.2q7.5 3 15 5.5l2.7.9 19.7 6 2.5.7q8.6 2.5 17.3 4v2l3.2.3q7.3 1 14.4 3 6.3 1.3 12.6 2.2 3.7.7 7.2 1.5 5.2 1.2 10.3 1.9l15.2 2.4a1094 1094 0 0 0 123.5 14.3q4.9.2 9.6 1.4a110 110 0 0 0 10.8.5l5.7.2 2.6.1 6.6.7q7.5.8 15 1l3 .1 42.2 1.6a1715 1715 0 0 0 71.2 1q46.5-.1 92.9-2.5l4-.2q31-1.5 62-4.9 8.6-.9 17.3-1.3c2.7-.3 2.7-.3 5.7-1.3l7.5-.9 2.3-.2 4.9-.5 12.6-1.4 2.6-.2c29.6-3.2 29.6-3.2 42.1-6.1q4.3-1 8.6-1.6 13.3-2.3 26.4-5.1l3.1-.6 12.8-2.6q7.5-1.6 15.1-3.8l10.1-2.4a300 300 0 0 0 29.3-8.2 68 68 0 0 0 8.3-3c3.3-1.4 3.3-1.4 6.6-2.3a124 124 0 0 0 15.6-5.9 149 149 0 0 0 31.6-17l1.9-1.1c2.4-1.6 4.6-3 6.6-5.1h3l.5 1.7q6 18.5 12.7 36.6a829 829 0 0 1 12.6 36.2c2.2 7.1 2.2 7.1 2.2 10.5h2l.5 1.6a1082 1082 0 0 0 11 31.6l3 8.5a802.7 802.7 0 0 1 6.7 19.9q1.4 4 3 7.8 5.4 12.8 10 26.1l2.2 6.3c2.9 8.1 3.8 13.1 0 21.1a60 60 0 0 1-23.4 23.1l-3.2 2c-27.5 16.5-59 25-89.8 32.5l-10.2 2.6q-11 2.8-22 5l-2.6.5q-8 1.5-15.8 2.8l-16.6 3a855 855 0 0 1-45.3 7.1l-2.5.3a1129 1129 0 0 1-62 6.8l-2.4.2q-3 .2-5.9.7l-12 1.2-2.5.2-7.8.5-2.8.2a1978 1978 0 0 1-61.5 3.7 2115 2115 0 0 1-130.5 2c-36.6.1-73.2-.2-109.8-1.7h-2.3A1854 1854 0 0 1 725 1270l-2.6-.4-16.3-2.3-2-.3a392 392 0 0 1-34.5-6.5 447 447 0 0 0-22.6-4.5l-3.5-.6-7.5-1.4v-2h-2.1a83 83 0 0 1-20.2-3.9q-6-1.7-12-3.1a91 91 0 0 1-15-5 89 89 0 0 0-8.5-2.7c-22-6-46.4-16.6-62.2-33.3l-1.5-1.3a24 24 0 0 1-8-17.9c.2-5.9 2.5-11 4.6-16.5l5.3-14.4 1-3a2179 2179 0 0 0 14.8-41.6l1-3 4.4-12.3q6.3-17.6 12-35.1a148 148 0 0 1 5.4-13.9l2.1-5.9.8-2.3.9-2.5 14.1-42z"/><path fill="#ca5821" d="M977.8 821.9H989l95 .1v2l2.3.3c4 1 5.7 3.1 8.3 6.3 2.5 4.4 2.3 8.5 1.4 13.4a20 20 0 0 1-9 12c-2.4 1.2-4 1.1-6.8 1.2h-19.7l-10.2.1-68 .5q-33.2 0-66.4 2l-3.7.3-15.5 1a983 983 0 0 0-75.3 7.2q-9 1.1-17.7 2a962 962 0 0 0-67 10.5q-10 2.6-20 4.5a538 538 0 0 0-43.1 11 294 294 0 0 0-22 6.8A237 237 0 0 0 628 912l-2 .9a110 110 0 0 0-23.2 12.9C601 927 601 927 599 927v2c-4.3 4.8-4.3 4.8-8 6-1 3-1.1 4.9-1.1 8v2.5q.1 3.3 1.1 6.5h2l2.3 3c12.4 15 39.2 25 57.7 29v2l2-.2c3.3.2 5.7 1 8.7 2.3 41 15.5 87.7 21 130.8 26.6l7 .9q29.2 3.8 58.6 6 10.4.8 20.7 2c13.4 1.4 26.8 1.9 40.3 2.4l28.1 1.2a769 769 0 0 0 49.3 1h35.6a1687 1687 0 0 0 161.2-6.3 1161 1161 0 0 0 100-13l3.1-.5a391 391 0 0 0 45.7-9.6l2.8-.6 5.5-1.3q7.4-1.7 14.6-4.2 4.2-1.4 8.6-2.2 10.5-2.2 20.4-6.5l4.5-1.3a170 170 0 0 0 32.8-14c10-5.3 21.2-12.3 24.7-23.7.6-3.3.5-5.1-1.2-8-4-5.7-8.5-9.4-14.6-12.8l-8.5-4.8-3.1-1.8c-2.6-1.6-2.6-1.6-4.6-3.6l-6-2.4-14.2-5.5q-3.3-1.4-6.7-2.4c-8.7-3-16.6-5.9-21.6-14.2a22 22 0 0 1 2.5-16.5c2.7-3.1 5.1-5.5 9-7 3.2-.2 3.2-.2 6.8-.1h3.5l2.7.1v2l2.9.3c4.9.7 9.4 2.4 14.1 4l2.6 1c5.2 1.7 9.7 3.9 14.4 6.7l9 4.3 2.3 1 5.7 2.7v2l1.7.3A65 65 0 0 1 1484 914v2h2c4.5 9 7.4 17.4 9.6 27.1 1.8 7.7 3.7 15.2 6.5 22.6q1.5 4.1 2.8 8.4 4 13.3 9 26.2 5.4 15.1 10.5 30.5l2.6 7.5.8 2.3 3.8 10.7q2.8 7.5 5.1 15.1 1.8 5 4.3 9.6 2 5.8 2 12h2l1 3.1 5.5 16.6c2.9 8.8 5.8 17.4 9.6 25.8 1 2.7 1 4.7.9 7.5h2l1.4 4 7.2 21.3c5.4 15 4.2 28.3-2.1 42.7a84 84 0 0 1-30.9 34l-4.2 2.8c-7.7 5.3-16.2 9-24.7 13a61 61 0 0 0-7.2 3.8c-4 2.3-8.5 3.5-12.9 4.9-10.4 3.3-10.4 3.3-14.4 5.1s-8 2.6-12.2 3.6c-3 .8-3 .8-5.9 2.3a38 38 0 0 1-10.6 3q-6.9 1.3-13.5 3.5l-8.9 2c-8.7 1.9-8.7 1.9-13 3q-8.3 2-16.7 3.5l-2.5.5-2.3.4-6.4 1.6a144 144 0 0 1-12.5 2.4l-2.3.4-16.8 2.8-2.4.3-11.4 2.2q-9.5 1.8-19 2.9-1 0-2 .3-14.3 1.9-28.6 3a164 164 0 0 0-16.2 2.2 318 318 0 0 1-37.3 4 4790 4790 0 0 1-83.9 5.4c-41.4 2.4-83 2.3-124.6 2.3h-3.9c-39.8 0-79.5-.3-119.3-2.2l-3.5-.2a2191 2191 0 0 1-132.4-10.2q-21.8-2.2-43.5-5.7l-14.4-2a133 133 0 0 1-16.5-3.1q-7-1.5-14.2-2.3-10.4-1.4-20.5-3.8-4.8-1.1-9.8-1.6-10.6-1.7-20.8-4.5l-8-2-18.4-4.6-2.6-.7c-17.8-4.6-35-11-52.4-17.3v-2l-3.5-.5c-5-1-9.2-3.1-13.7-5.4l-2.1-1a59 59 0 0 1-10.7-7.1l-4.5-2c-7.1-3.5-12.7-8.7-18.5-14l-2.3-2a61 61 0 0 1-19.9-40.2 67 67 0 0 1 6.2-31.6c1.9-4.2 2.9-8.7 4-13.2h2l.3-2.5q1.2-5.9 3.5-11.6 2.8-7.6 5.2-15.5a230 230 0 0 1 5.8-16.6l3.6-10 5-15 1-2.8 4-11.9c8.7-25.5 8.7-25.5 13.2-36.6q2.8-7.4 4.7-15 2.2-7.3 5.3-14.2 1.8-4 2.4-8.3h2l.3-2.1c.9-5.2 1.9-10 3.9-14.8q2-5.4 3.8-11l2-6q2.6-7.5 4.4-15A57 57 0 0 1 566 911h2l.8-1.8c8.1-14.8 33-25 47.8-30.9l3.5-1.4 15.2-6c83.7-33.5 181.8-41.2 286.9-47.7l5.3-.3c16.8-1 33.5-1 50.3-1M575 986l-.8 2.4-1.1 3.3-1.3 3.8-9.1 27.6-1.1 3.2-2 6q-2.2 6.8-4.8 13.5-4.4 12-8.6 23.9L512 1166c-4 9.9-7 17.7-3.4 28 6.6 15 22.3 23 36.4 30l2 1q15.5 7.6 32 13l2.5.9 6.5 2.1 3.5 1.1a325 325 0 0 0 32.4 8.6q5.9 1.5 12.1 1.3v2l2.7.5q13.8 2.5 27.6 5.5c19.7 4.2 39.6 7.1 59.6 10l3.6.5q28.7 4.3 57.5 7.5l3.6.4q14.2 1.4 28.4 2.6l2.8.2a2105 2105 0 0 0 90.1 5.5 2545 2545 0 0 0 126.6 1.7 2359 2359 0 0 0 173.6-6c21.5-1.3 21.5-1.3 32.2-3l14.6-1.3a809 809 0 0 0 96.4-12.8q9.1-1.8 18.5-2.8 5.2-.9 10.2-2.5l10.1-1.9q4.5-.6 8.8-2 3.7-1.4 7.5-2 10.5-2 20.9-4.8l2-.5a343 343 0 0 0 50.9-16.4 174 174 0 0 0 40.8-22.4l2.4-1.8c7-5.6 12.9-14.2 14-23.3-1-9.8-5.6-19.4-9-28.6l-2-5.6-7-18.1a692 692 0 0 1-13.5-38.1l-7.9-23.5h-2l-.3-1.8a124 124 0 0 0-6.5-22.4l-3.4-9.8-4.6-12.9-8.2-24.3-5-13.8a20 20 0 0 0-9 4.6c-6 4.5-12.3 8-19 11.4l-3.5 1.9q-9.7 5-20 8.3c-2.5.8-2.5.8-5.5 2.8l-5.1 1.4q-8.5 2.2-16.7 5.3-7.2 2.7-14.7 4.8l-2.3.7q-9.9 2.5-19.8 4.1c-3.4.7-3.4.7-5.8 1.7-3.7 1.4-7.5 2-11.5 2.8q-9.8 1.9-19.7 4.1a381 381 0 0 1-31.9 5.7l-8.3 1.3a825 825 0 0 1-32.6 4.3q-11.8 1.6-23.6 2.6c-2 .2-2 .2-5 1.2l-7 .7-2.1.2-29.7 2.6a756 756 0 0 1-53.6 3.4 1764 1764 0 0 1-93.8 2.3 2153 2153 0 0 1-100.3-2.5h-3.7q-3.4-.2-7-.3-8.4-.2-16.8-1.4l-5.5-.3h-2.8l-6-.3-2.8-.1-2.6-.1c-2.3-.2-2.3-.2-4.3-.7a37 37 0 0 0-7.3-.9c-43-2.3-85.6-8.3-128.1-15l-13.7-2.1q-6-1.1-12-2.8-5.8-1.3-11.8-2.2-6.7-1.1-13.2-3-3.9-.7-7.9-.5v-2l-2-.5a316 316 0 0 1-43.2-12.2c-16.6-5.4-16.6-5.4-24.5-9.2q-3.7-1.8-7.5-3.2a99 99 0 0 1-9.3-4.1C596 999 596 999 594 999l-.7-1.9c-1.7-2.8-3.3-3-6.3-4.1l-5-4h-2v-2z"/><path fill="#cb5620" d="M1341.3 724.8c15.2-1 15.2-1 21 4.1 5.5 7 7.5 11.8 7.3 20.8v16.4c-.2 17.6-1.1 34.6-4.6 51.9l-.5 2.5q-1.5 7.3-3.5 14.5l-.6 2.3A204 204 0 0 1 1337 893l-1.7 3a93 93 0 0 1-12.1 15.7q-2.9 3-5.5 6.2a138 138 0 0 1-52.5 35.9c-13.3 6-26.7 8.4-41.2 10.2l-3.5.6c-6 .7-12.2.3-18.3.1l-10.3-.2-21-.5-5.8-.2c-5.3 0-8.7 0-12.9 3.6a81 81 0 0 0-7.5 10.6q-2.5 3.6-4.7 7.4a16 16 0 0 1-11.7 7.1q-7.8-.3-14.3-4.5a25 25 0 0 1-5.5-18.4c1.1-6 4.6-10.4 8-15.2l1.5-2 2.8-4c2.4-3.3 3.2-4.8 3-9q-1-4.3-2.3-8.5c-9.2-32.9-1.7-73 13.5-102.9h2l.2-2c1-4 3-7 5.1-10.4l1.3-2.2a162 162 0 0 1 53.9-50c7.8-5 16.5-8.6 25-12.3l9.4-4.2q6-2.4 12.1-3.9l3-.9q46.3-13.7 94.3-17.3"/><path fill="#fefdfb" d="M1335 761c.3 9.1-.5 18-1.5 27l-.8 6.7a164 164 0 0 1-9.1 43c-2.5 8-5 15.7-8.6 23.3-1 2-1 2-2 5h-2l-.7 2a101 101 0 0 1-50.3 50l-3 1.5a123 123 0 0 1-60 11.6l-16-.1c.8-5 2.9-7.7 6.1-11.3l1.4-1.6 3-3.3 4.9-5.7q5.4-6.2 11.2-12.3l2-2 5.4-5.8 1.5-1.6 3.5-3.4h2v-2c1.5-1.5 1.5-1.5 3.6-3.2q4-3.4 7.7-7.2 6.2-6 13-11.3l9.1-7.3 2-1.5q4.5-3.6 9-7C1277 837 1277 837 1279 831c.7-5 .6-8.8-1.7-13.4-3.5-4-6.2-5.7-11.5-6.1-17.2.7-37.2 21.6-49.9 32.1-1.9 1.4-1.9 1.4-3.9 1.4l-.8 1.8a16 16 0 0 1-4.6 5.3 233 233 0 0 0-18.4 17.5 196 196 0 0 0-15.2 17l-6.1 7q-5.3 5.8-9.5 12.5l-1.4 1.9h-2c-1-36.3 8-67 33.3-93.7 26.6-27.3 67-41.5 104-46.8l6.7-1.4a283 283 0 0 1 21-3.8c5.4-.8 10.5-1.5 16-1.3"/><path fill="#c95923" d="m968.9 898.7 18.1-.1h3.3c7.2 0 13 .9 18.4 6 3 3.2 3.6 6 3.4 10.3-1 6-3 10.7-7.9 14.5-8.7 5-18.2 4.3-28 4.4l-33 .6-2.6.2q-15.6.8-31.2 2.1l-9.7.7q-19 1.5-38 3.6-1.2 0-2.2.3-22.2 2.6-44.2 6.5c-13.2 2.2-13.2 2.2-18.9 3q-10.4 1.6-20.7 4.5-4.6 1.1-9.4 2c-19 3.7-38.3 8.3-56 16.4-4.9 2-9.1 2.3-14.3 1.3q-8-4.5-11-13a20 20 0 0 1 4-16c8.7-7.5 20.2-10.1 31-13.4l1.9-.6a332 332 0 0 1 28-7.5l9.6-2.4a382 382 0 0 1 32.5-6.9q11.7-2.2 23.4-3.7l9.7-1.4q40.6-6.3 81.8-9.3l3-.2q29.4-1.8 59-1.9"/><path fill="#b15c35" d="m1242 1018 1 2-3.1.2-16.5 1.4a309 309 0 0 0-26.3 3q-8.4 1-17 1.5l-3.5.3-8.6.6v2l-4 1v-2l-12.6.4-3.5.2h-3.5l-3.2.2c-3.2.2-3.2.2-6.4.7a106 106 0 0 1-14 .9q-4 0-7.9.2h-2.8a3511 3511 0 0 1-92 .6c-29.2 0-58.3-.2-87.5-2a355 355 0 0 0-29-.5h-8.4c-3 .3-4.7.7-7.2 2.3l-2-2v-2l-18-1v-2h11.1q6.8-.2 13.6.4 15.1 1.2 30.4 1.6l28.1 1.2a769 769 0 0 0 49.3 1h35.6a1655 1655 0 0 0 166.7-7c38.4-3.3 38.4-3.3 41.2-3.2"/><path fill="#be5d20" d="m1383 869 5 1v2h-4v4h-3l-.1 6.4-.1 3.6c.2 3 .2 3 2.2 5l-1 2 5 1v3l2.6-.6c3.8-.4 5.8.4 9.4 1.6 4 .3 8 .3 12-1v4l-3 1c6.5 4 12.4 7.7 20 9v2l10-1-4-2h8l-2 1v2h12v2h-4v2h4v6h2l1-2 1 2c-.8 1.9-.8 1.9-2 4l-1.1 2.3-.9 1.7-2-1.7q-3.7-3-7.8-5l-8.5-5-3.1-1.7c-2.6-1.6-2.6-1.6-4.6-3.6l-6-2.4-14.2-5.5q-3.3-1.4-6.7-2.4c-8.7-3-16.6-5.9-21.6-14.2a23 23 0 0 1 2.5-16.5z"/><path fill="#a85230" d="M522 1033h2l-1 7h-2l-.2 3.4c-.6 4.4-2.1 8.1-3.9 12.2-1.2 3.1-1.5 6.1-1.9 9.4q-1.4 4-3 8h-2l-4 17h-2l-.3 3.1c-.7 3.9-.7 3.9-2.3 6.9-1.4 3-1.4 3-1.4 6.8v3.2l-3 2c-1 2.6-1 2.6-2 6q-3 9.5-7 18.9-1.5 4.5-2 9.1h-2l.1 3.8c.1 3.5 0 4.1-2.1 7.2h-1l-.3 3a38 38 0 0 1-5.7 16c-.3 2-.3 2-.4 4.4l-.1 2.6-.1 2.7-.1 2.7-.3 6.6c-2.8-2.8-2.3-4.4-2.3-8.2.1-10.1 1.9-19.5 6.3-28.6 1.9-4.2 2.9-8.7 4-13.2h2l.3-2.5q1.2-5.9 3.5-11.6 2.8-7.6 5.2-15.5a230 230 0 0 1 5.8-16.6l3.6-9.9 8-24 5.1-15 1-2.6q2.4-7.3 5.5-14.3"/><path fill="#af5630" d="M1453 1244v2h-2v2l-2 .2c-8.8.8-8.8.8-13 1.8v2q-4.3 1-8.8.9c-4.1.1-10.2 1-13.2 4.1l-7 1-4 .6-3 .4-1 3-3.6-.1c-9.4 0-26 .3-33.2 6.7l-1.2 1.4-3-1-1-2-2 .4-9.1 1.7-3.2.6c-9.6 1.7-9.6 1.7-14.7.3v-1l2-.3a1329 1329 0 0 0 43.8-7.6l16.6-3.1 2.6-.5a80 80 0 0 0 10-2.5q3.6-1.2 7.4-1.9 6.8-1.3 13.4-3l2-.6 15-3.8 3.9-1c2.9-.6 5.3-.9 8.3-.7"/><path fill="#ad4f21" d="M866 1024h11.1q6.9-.2 13.7.4 14.3 1.1 28.4 1.5l35.5 1.5q38.6 1.6 77.3 2.6v1l-31.1.1h-2.4c-18.1 0-36.2 0-54.4-1.1q-18.9-1.2-37.7-1.2h-13.2c-3 .2-4.7.6-7.2 2.2l-2-2v-2l-18-1z"/><path fill="#bc5b33" d="M1350 998v4a65 65 0 0 1-27 5v1h-1.8c-6.3-.2-10.8.4-16.2 4-3.7 1-7 1-10.8.9-5.8 0-11 .7-16.7 1.9a170 170 0 0 1-33.5 3.2c2.7-2.7 5.5-2.7 9.2-3.1l2.2-.3 4.7-.7 12.4-1.6 2.5-.3c20.6-2.8 41.3-6.1 61.4-11.3 10.4-2.7 10.4-2.7 13.6-2.7"/><path fill="#b35d2d" d="m584 989 18 2c1.4 3.6 2.4 6.3 3 10h5v2h6v2l2 .5 2.4.8 2.5.7c2.1 1 2.1 1 2.9 3.1l.2 1.9h1.7c5.5-.2 10 .5 15.3 2v2l6 1c-3 2-3 2-5.7 1.8q-14-3.4-26.8-9.6-3.7-1.8-7.6-3.2c-14-5.5-14-5.5-16.9-10l-5-2-3-2z"/><path fill="#b75b32" d="m1259 770 10 1v2l-2.5.6c-35.2 8.7-69.8 26.5-91.5 56.4l-2-1 7-9-2-2 3-1 5-5 2-1-1-2 5.2-2.1c3.6-1.8 5.2-3.3 6.8-6.9h3v-2h4v-2l3.9-2 2.2-1.1c1.9-.9 1.9-.9 3.9-.9v-2l5.4-2.5 3-1.4c2.6-1.1 2.6-1.1 4.6-1.1l1-3 3.3-.4c3-.5 5-.9 7.7-2.6l1-2q5-1.8 10.3-3.1l5.7-1.9z"/><path fill="#ba6f46" d="M1090 850h2c-1 2.5-1.9 3.9-3.9 5.6-4.7 2.1-9.3 1.8-14.4 1.7l-62.3-.1-43.4-.2v-2h1.8l100.8-.7h3.2c5.7 0 10.7-.7 16.2-2.3z"/><path fill="#c36331" d="m509 1243 3.7-.1 2-.1c2.3.2 2.3.2 4.7 1.2 3.9 1.5 7 .6 11 0 2.6 0 2.6 0 4.5 1.3l1.1 1.7-1 4 2 3 1 3c1.7.6 1.7.6 4 1l2.5.5 5.2.9c2.3.6 2.3.6 5.3 2.6 1.2 2.6 1.2 2.6 2 5l-10-3v-2l-3.5-.5a59 59 0 0 1-15.8-6.4c-4-2-7.3-4.3-10.7-7.1l-4.3-2.2-2.1-1-1.6-.8z"/><path fill="#ae5b2e" d="m1383 869 5 1v2h-4v4h-3l-.1 6.4-.1 3.6c.2 3 .2 3 2.2 5l-1 2 5 1v3l2.6-.6c3.8-.4 5.8.4 9.4 1.6 4 .3 8 .3 12-1v4l-3 1 5.8 3.4 3.2 1.9 7 3.7v2q-5.7-1.8-11.2-4.2-5.7-2.4-11.5-4.4c-18.7-6.5-18.7-6.5-23.8-14.9a23 23 0 0 1 2.5-16.5z"/><path fill="#b15830" d="M835 833v1l-2.6.1A78 78 0 0 0 815 837q-8.6 1-17.2.9c-8.3-.1-17 1.5-24.8 4.1h-7v2l-2.8.4c-3.2.6-3.2.6-6.2 1.6l-5.6-.3q-1.4 0-2.9-.3c-2.5-.4-2.5-.4-4.5-2.4l50.6-8c13.7-2.3 26.5-3.6 40.4-2"/><path fill="#b65f39" d="m750 1305 14 1v3h3.8c17.3-.1 17.3-.1 25.2 1l1 1a57 57 0 0 0 18.9 1.9c3.4.1 6 .9 9.1 2.1v1a605 605 0 0 1-57.6-4.7l-7.3-.8-3.4-.4c-5.2-.6-9.9-1.1-14.7-3.1v-1c7.4-.1 7.4-.1 11 1z"/><path fill="#ac4a1f" d="M1121 871h2l.6 5.8.4 3.2c0 3 0 3-1 4.8-1.3 3-1.2 5.3-1.2 8.5v11.5c0 5.2.1 10 1.2 15.2v7h2c3 15 3 15 .6 19.9l-1.6 2.1h-2v4l-4-1 1.3-1.7c4.7-6.3 4.7-6.3 4.8-10.7l-1.8-6c-3.5-12-3.5-24.2-3.5-36.7V893c0-7.6.5-14.6 2.2-22"/><path fill="#b05a34" d="m747 1042 2.2.2q7.9.7 15.8 1.2c20.7 1.5 20.7 1.5 30 4.6v2l2.2-.3c5.6-.6 9.4-.7 14.8 1.3q4.5.2 9 0v-1h13v5a892 892 0 0 1-73.3-8.6l-2.4-.3q-5.9-.7-11.3-3.1z"/><path fill="#a8532b" d="M767.3 1274.6c23 3 46.2 5 69.4 6.8q8.2.6 16.3 1.6v1q-16.5.1-33-1.3l-2.8-.1q-22.6-1.8-45.1-5.2c-11.3-1.6-22.7-2.9-34.1-2.4l-1-2c9-3 21.1.4 30.3 1.6m-31.3.4 2 1Z"/><path fill="#b7613b" d="M707 852c-1 2-1 2-3.2 3-2.8 1-2.8 1-5.9 1.5-3.7.6-6.1 2-9.2 4.1-3.4 1.8-6 1.5-9.7 1.4l-3 1h-5a74 74 0 0 0-9 2l-2 .6c-2 .4-2 .4-6 .4v2c-3.7 1.2-7.2 1-11 1 3.4-2.2 6.7-3.4 10.5-4.6l2.4-.7a623 623 0 0 1 36.4-10l2-.5c4.4-1 8.3-1.4 12.7-1.2"/><path fill="#af562b" d="M1148 807c1.5 2.6 2 3.9 2 7l-5 2v2h-2v3l1 1v2l-2.4.4c-2.6 1.6-2.6 1.6-3.3 3.6l-.8 4.7c-.6 3-1.7 5-3.5 7.3h-2l.1 3.2c-.1 5-1.8 8.4-4.1 12.8h-2l.3 2.7c-.4 4-1.6 5.4-4.3 8.3a131 131 0 0 1 13-39h2l.2-2c1.1-4.3 3.5-7.6 5.9-11.3l1.4-2.3z"/><path fill="#bd5e30" d="M1208 761c-1 2.4-1 2.4-3 5-3.6 1.2-3.6 1.2-7 2l-2 2-7 2-5 2v2h-2v2l-3 1-1 2h-3v2c-1.8 2.1-1.8 2.1-4 4h-3l-1 1.9-2 4.1h-2v2l-3 2-3 6-4-2c11.2-12.5 11.2-12.5 16.4-16.6 1.6-1.4 1.6-1.4 3.9-3.8q4.4-4 9.2-7.4l1.8-1.3 5.7-3.9 1.8-1.3 5.3-3.4 3-2c3.3-1.5 4.6-1.4 7.9-.3"/><path fill="#ad5832" d="m922 902-1 2h-3.6c-9.2-.2-18 .1-27.2 1.5q-6.1.7-12.4.9c-11 .5-21.8 2-32.6 3.6l-7.6 1-2.3.4c-4.7.6-8.6.5-13.3-.4v-1c83.6-10 83.6-10 100-8"/><path fill="#a84f2e" d="M1368 744h1c.4 25 .8 49.4-4 74l-.5 2.6q-1.5 7.3-3.5 14.4l-.5 2c-2.2 7.7-2.2 7.7-3.5 11l-2 1q1-7.4 3.3-14.6 1.2-4.6 1.7-9.4h2l.1-2.7c.5-6.6 1-13 2.4-19.6a151 151 0 0 0 2.2-25.2z"/><path fill="#ab5530" d="M1252 1281a101 101 0 0 1-17.6 1.7l-6.6.3c-7.2.4-14.3.8-21.4 2a124 124 0 0 1-26.4 1.1l-10-.1c2.7-2.7 4.2-2.4 8-2.6l3.7-.2 16.9-1q10.5-.5 20.9-1.3l3.8-.2c25.7-1.7 25.7-1.7 28.7.3"/><path fill="#b46039" d="m1262 741-11 3 1 2-10 1 1 2-2.3.2-3 .2-3 .3c-2.7.3-2.7.3-5.7 1.3l-2 3a24 24 0 0 1-16 5l-2-2 15.2-6.8a140 140 0 0 1 23.7-8.4l3.5-1.1 3.5-1.1c3.1-.6 3.1-.6 7.1 1.4"/><path fill="#b55b33" d="m662 1258.2 4 .8 2.4.5 5.4 1.1c17 3.6 34 6 51.2 8.4v1c-9 .2-17.6 0-26.5-1.6-2.5-.4-2.5-.4-4.5-.4v-2l-1.7-.1q-18.2-1.4-36.3-4.9c1.9-2.8 2.6-3 6-2.8"/><path fill="#b46135" d="M965.3 821.9h2q12.4-.1 24.7 1.1v1h-2.5l-19 .7h-3.6c-2.9.3-2.9.3-5.9 1.3l-8.2-.1h-2.4L925 825v-2q20-1.1 40.3-1.1"/><path fill="#b05b2b" d="m1111 965 4 2-1 3-1-2h-2c.4 8.3.4 8.3 3 11.1l2 1.9c1.3 3.8 1.3 3.8 2 7h4v-2l9 1-3 2 5-1v-2h4v-2h2c-.2 3.2-1 4-3.6 6.3-5.8 3-10.5 2.2-16.6.3-5-2.1-7-4.9-9-9.8a32 32 0 0 1-.8-13.8z"/><path fill="#be6943" d="m590 1272 6 2 1 2-4 1c5.8 1 5.8 1 8 1v2h5v2l17-1v2l3-1v2l2.8-.2c3.2.2 3.2.2 5 1.7l1.2 1.5-1 2a130 130 0 0 1-19.6-3.8l-3.2-.8q-11.7-3-23.2-6.4l3-1z"/><path fill="#b35a33" d="m1326 727 2 2q-4.2 1.1-8.6 1.5l-2.6.3-2.7.2c-10.8 1-10.8 1-15.1 2v1l-2.1.1c-4.7.3-9 .7-13.3 2.5-3.6 1.4-4.2 1.5-7.6.4l-1 3-4.4-.4-2.5-.2-2.1-.4-1-2q20-4.7 40-7.8l2.2-.3 6-1 3.5-.5q4.6-.7 9.3-.4"/><path fill="#b36340" d="M858 1316h19v2l3.8.1q19.6 1 39.2 2.9v1c-14.7.3-29.3-.6-44-1.5l-26-1.5v-1l8-1z"/><path fill="#b4542c" d="m556 929 1 2 3 1-1 2h-1l-.6 2.4c-2.2 9-2.2 9-3.5 12.6-1.2 4-1.7 8-2.4 12a74 74 0 0 1-2.5 10h-2l-2 5h-2c1.5-8.7 4.1-16.7 7-25q3.7-10.8 6-22"/><path fill="#a9542d" d="M916 858v1q-13.7 2.2-27.5 2.9l-10.4.6-2.1.1q-10.7.6-21.3 1.8c-8.9.9-8.9.9-12.7.6l-2-2q4.8-1.3 10-1.5l3.6-.2 4-.3 38-2.4q10.1-.7 20.4-.6"/><path fill="#ba663c" d="M887 826c-2 3-2 3-3.8 3.5l-2.2.2-2.4.2-15.8.7-2.6.1-2.4.1c-1.8.2-1.8.2-2.8 1.2l-6.4.1h-4L826 832v-1l39.7-4 3.4-.2q9-1 17.9-.8"/><path fill="#9e5029" d="m1204 853 1 3h-2v2l-2.1 1.7c-3.5 2.8-6.1 5.9-8.9 9.3h2v2l-3 1-2 2v-2h-2v2h-2v3h-2l.1 2.8c-.1 3-.5 4.6-2.1 7.2l-1-1-1 2h-2v-2h-2v2h-2c.6-3.1 1.4-4.8 3.6-7.1l1.7-1.8 1.8-1.9 1.8-2q10.9-11.2 22.1-22.2"/><path fill="#b4613b" d="M1452 955a10 10 0 0 1-2 7l-4 1-2 4c-2.4 3-4.5 3.6-8.2 4.2l-2.7.5-2.1.3-1 4-1.8.3c-5.7 1-10.7 2.6-16 5-2.5.8-3.7.6-6.2-.3l2.6-1a209 209 0 0 0 24.7-11.2c7-3.7 13.4-8 18.7-13.8"/><path fill="#bc6028" d="M591 985q8.6-.2 17 1v4l2 1-9 .1h-2.6c-5.2.1-9.5-.4-14.4-2.1l-1 2-4-4c2-1 2-1 4.3-.5 3 .5 4.9.2 7.7-.5z"/><path fill="#b15c31" d="M972.5 899H998v1h-3l-22.1.7h-2q-6.5.4-12.9 1.3l-5.4.1h-9.4q-11.7 0-23.2-1.1v-1q26.3-1.3 52.5-1"/><path fill="#a95630" d="M696 944v2l-3 1 1 2-1.9.1c-2.1.9-2.1.9-3.4 3.4a26 26 0 0 0 .3 12.5c2 2.4 2 2.4 4 4v2c7.2 1 13.8.8 21 0-3.5 3.5-7.5 4.3-12.3 4.6-5.5-.1-8.3-1.8-12.1-5.7-3.6-4.3-5.2-8-5-13.8a22 22 0 0 1 6.5-12.2c1.9-.9 1.9-.9 4.9.1"/><path fill="#a8532e" d="M643 870c-.5 2-.5 2-2 4q-4 .9-8 1v1l-2.1.5c-14 3.6-14 3.6-18.9 8.5q-4 .7-8 1v2l-8 1c6.6-5.5 15-8.3 22.9-11.5l2.8-1.1 11.1-4.6 2.7-1.1 2.4-1c2.1-.7 2.1-.7 5.1.3"/><path fill="#9e4824" d="M1524 1133c2 2 2 2 2 5l4 1 .3 2a82 82 0 0 0 4.9 17.7c.8 2.3.8 2.3.8 5.3h2c4.6 15.7 4.6 15.7 4 23h-1l-.6-2.9q-3.2-13.6-8.6-26.5-2.7-7-5.2-14l-.8-2.2c-1-3-1.8-5.3-1.8-8.4"/><path fill="#bb633a" d="M611 1006c6-.3 9.6.3 15 3v3h1.7c5.5-.2 10 .5 15.3 2v2l6 1c-3 2-3 2-5.7 1.8-11-2.6-22.9-6.5-32.3-12.8"/><path fill="#cc5c28" d="M1271 1306h9v2l3-1 4.2-.1h7.5l6.3.1v1l-22 2v2l-24 2 1-2q3-.5 6.2-.7l1.8-.3 1-2h5z"/><path fill="#c0511d" d="m570 907 2 1v2h2v2h-4c-1.8 3-2.2 5.2-2.1 8.8v2.4l.1 1.8-2.3-.7-2.7-.3c-1.7 1.4-1.7 1.4-3 3h-2c.5-5.2 3.2-8.8 6-13l2-3h2z"/><path fill="#b3572d" d="m1424 1280 3 2 2-2c2.6 0 2.6 0 5.6.4l3 .3 2.4.3-1 3c-2.1.8-2.1.8-5 1.4l-3 .6-3.2.6-3.1.7-8.7 1.7-3.6.8-2.4.2-2-2 6-1.7c2-.3 2-.3 4 .7v-2l6-2z"/><path fill="#ab542c" d="M1253 1050c-3.4 2-6.5 2.4-10.4 2.8l-3.8.4-3.9.4-7.6.7-3.5.3c-2.8.4-2.8.4-5.8 1.4a179 179 0 0 1-13.7 1l-3.8.3-9.5.7c6-6 19.7-4.9 28-5.6l25-2.2q4.5-.4 9-.2"/><path fill="#bd643e" d="m1280 905 2 3-4 4h-2v2l-4 1v2l-3.6 1.3q-5.3 2.1-10.4 4.7v-3l-2-1 2.7-1.3q11.3-5.2 21.3-12.7"/><path fill="#b56238" d="M838 865v1q-18 2.6-36.1 4.7l-3.4.4-3.2.3-2.8.4c-2.5.2-2.5.2-6.5.2v-2l10-1v-2h1.9c21.9-.8 21.9-.8 32.4-2.7 2.8-.3 5 0 7.7.7"/><path fill="#aa512d" d="M1171 831h2q-2.2 7-5.8 13.4c-6.7 13-10 26.2-12.2 40.6h-1c-.2-7 0-13.2 2-20l1.6-6.5 1.4-5.5h2l.7-3a56 56 0 0 1 6.6-14z"/><path fill="#af5a31" d="m787 1014 23.9 2.4 3.6.4 3.6.4 3.1.3c2.8.5 2.8.5 6.8 2.5h-24l1 3-6-1 1-3-2.6-.6-3.3-.8-3.4-.7-2.7-.9z"/><path fill="#b0623f" d="M1294 1011v1l-4 .6-5.2.8-2.8.4q-7.1 1-14.1 2.3c-7.9 1.4-16 1.6-23.9 1.9 2.9-2.9 6-2.8 9.9-3.3l2.4-.3 19.7-2.6q4.5-.5 8.8-1.4c3.2-.6 6 0 9.2.6"/><path fill="#c55a26" d="m782 918 1 3-6 3v2h-5v2l-4-1h3v-2l-3.2.6c-3.7.4-4.9.4-7.8-1.6l5-1v-2c5.6-1.7 11-3 17-3"/><path fill="#ac5932" d="M541 979h2c-.5 4.7-1 8.7-3 13h-2l.2 3.1c-.2 4.1-1.1 6.4-3.2 9.9h-2v7l-3 1c.6-7.3 2.7-13 5.6-19.7q1.8-4 2.4-8.3h2z"/><path fill="#b75b2f" d="m737.2 1005.4 9.6 2q11 2.4 22.2 3.6l-1 2-6.8.1-3.7.1c-3.3-.2-4.8-.6-7.5-2.2a120 120 0 0 0-30-5c5.2-3.5 11.2-1.7 17.2-.6"/><path fill="#bb653c" d="M705 1033a55 55 0 0 1 20.5 3 43 43 0 0 1 6.5 2l1 2c-6.2.2-11.2.1-17-2q-6-1.2-12-2z"/><path fill="#b05a31" d="m1550.7 1231.8 2.3.2a69 69 0 0 1-13.7 11l-2.4 1.5c-14.3 9.5-14.3 9.5-17.9 9.5l1-5 4 1v-2l5-1 1-3 6-2 5-2v-2l1.8-.7c2.2-1.3 2.2-1.3 3.6-3.4 1.6-1.9 1.6-1.9 4.3-2.2"/><path fill="#b75624" d="M1405 1011h3l-1 5 2-1 2.8-1 2.6-1.2c2.8-.8 4-.8 6.6.2a56 56 0 0 1-14.2 5.2c-9.6 2.6-9.6 2.6-13.9 5-2.6 1.1-4.2.5-6.9-.2l4-1v-2l2.2-.4 2.7-.5 2.8-.5 2.3-.6 1-2h2z"/><path fill="#b25a2d" d="M832 944v1l-30 5-2.8.5c-5.6.8-5.6.8-8.8-1L789 948l2.2-.1q10.3-.7 20.4-2.5A88 88 0 0 1 832 944"/><path fill="#c76232" d="M1232 963a226 226 0 0 1-37.5.4l-12.5-.4v-1q13.4-1 26.8-1 4.4 0 8.6-.6c5.5-.6 10-.5 14.6 2.6"/><path fill="#a4522a" d="M608 915h2l1 2 1-1h5a25 25 0 0 1-7.4 5.5 46 46 0 0 0-6.8 4.2C601 927 601 927 599 927v2c-4.3 4.8-4.3 4.8-8 6l-2 10h-1q-1.1-4.4-1-9c2.1-2.2 2.1-2.2 5-4l2.5-2.5a63 63 0 0 1 7.5-6.5h2v-2l4-2z"/><path fill="#a86f41" d="M1428 915a24 24 0 0 1 16 4q3.4 3 6 7v2a30 30 0 0 1-11-5.6q-5.3-3.6-11-6.4z"/><path fill="#b3623a" d="M873 939v1l-2.5.3-15.3 1.5-3.8.4-3.5.4c-2.9.4-2.9.4-5.9 1.4h-10c4.7-3.7 8.7-4.2 14.6-4.6h2.3q12-.7 24.1-.4"/><path fill="#b75a2f" d="M1510 1219h1c.4 3.6.2 4.7-2 7.7l-2 2.3v2l-6-2 2-2-3-1v3c-2.9.6-2.9.6-6 1l-2-2 1.5-.7 7-3.2 2.4-1.2 2.3-1 2.1-1c1.7-.9 1.7-.9 2.7-1.9"/><path fill="#a1522a" d="m1309 870 1 2-1 2h2v3h-2l-1 2-2 3h-2v3h-2l-2 5h-2l-1 5-4 1c.6-4 2.7-6.5 5.2-9.6q6-7.8 10.8-16.4"/><path fill="#a74d28" d="M1354 850h1c-1.2 11-6.3 20.9-11.1 30.6l-1 2q-2.8 5.7-6.9 10.4c.6-3.9 1.8-6.9 3.6-10.3l1.3-2.7 1.1-2h2v-5h2l.3-2.5c.7-3.6 2-6.1 3.6-9.3q2.6-5.5 4.1-11.2"/><path fill="#a75730" d="m1238 825 1 3-2.9 1.8c-3.1 2.2-3.1 2.2-5.1 5.2l-5 2-3 3h-2v2q-2.6 2.3-5.4 4.5c-5.5 4.4-5.5 4.4-7.6 6.5l-3-1 4.2-3.4 4.1-4a88 88 0 0 1 12.4-10l10.8-8.4z"/><path fill="#edd7bf" d="M1335 761c.4 10.4-.8 20.6-2 31h-1q-.1-14.5 1-29l-3.7.4-5 .6-2.4.3a92 92 0 0 1-12.9.7v-1l11.6-2a73 73 0 0 1 14.4-1"/><path fill="#ab5120" d="M1372.1 1296h4.9c-4.7 3.1-10 3.4-15.4 4.3l-6 1c-8 1.3-15.6 2-23.6 1.7v-1l1.9-.3 8.5-1.1 3-.4 2.8-.4 2.6-.4c2.2-.4 2.2-.4 4.2-1.4l7.7-.7c3.4-.4 5.8-1.4 9.4-1.4"/><path fill="#c9662c" d="M613 991v3h-3l-1 5 3 1-2 3v-2h-5a43 43 0 0 1-3-10l4.4-.6 2.4-.3c2.2-.1 2.2-.1 4.2.9"/><path fill="#c66330" d="M1447 1001c-5 3.5-10.2 6-15.8 8.4l-2 .8c-4.8 2-4.8 2-8.2.8l4-1v-2c16.4-9.8 16.4-9.8 22-7"/><path fill="#b3572d" d="M1333 801h1l1 9c0 3 0 3-1.5 4.6l-1.5 1.4v4h2l-1 4-3-1-1 3h-2l-1 3 .4-2 2.2-11.3.4-2.3 1-5.4 2 1z"/><path fill="#be592e" d="m1234 749-2.4.8c-2.6 1.2-2.6 1.2-4.6 4.2a24 24 0 0 1-16 5l-2-2 10.3-4.6 2.9-1.3 2.8-1.2 2.6-1.2c2.6-.8 3.9-.6 6.4.3"/><path fill="#a8522c" d="M1238 780h2v2l-2 1-8.9 4.1-3 1.5q-9 4.1-17.1 9.4l-2 1-2-1c1.3-2.5 2.4-2.9 5-4.1l2-1.1c2-.8 2-.8 4-.8v-2l5.4-2.5 3-1.4c2.6-1.1 2.6-1.1 4.6-1.1l1-3 3.4-.4c3.6-.6 3.6-.6 4.6-1.6"/><path fill="#b1613e" d="M1121 871h2l.7 5.8.4 3.2c-.1 3-.1 3-1.6 4.8-2 2.8-2 4.7-2 8l-.1 3.4v3.5l-.2 3.6-.2 8.7h-1l-.2-16.4c0-8.4.3-16.3 2.2-24.6"/><path fill="#f8f2e2" d="m1209 797 2 1c-1.2 3.5-1.8 3.6-5 5.3-3.2 2-3.9 2.4-5.5 6l-.5 2.7-3-1-1 2-5-1c3.2-4.5 6.8-7.3 11.3-10.3q.8-.8 2-1.4z"/><path fill="#c75828" d="M1529 1049c2 1 2 1 2.9 3l.8 2.7 1 2.9 1 3q.3 1.5 1 3l2.3 7.4c-2.4-.3-2.4-.3-5-1-3.6-6.6-3.7-13.6-4-21"/><path fill="#c05c2c" d="m760 952 9 2-3 1v2l-8.3 2.1-2.4.7-2.3.5-2.1.6c-1.9.1-1.9.1-4.9-1.9 3.4-2.3 6-2.7 10-3.3 2-.7 2-.7 4-3.7"/><path fill="#c76333" d="M903 824.7h2.4c6 0 6 0 9.2 1.8l1.4 1.5c-9.7 1.3-19.3 1-29 1a24 24 0 0 1 16-4.3"/><path fill="#b56239" d="M1288 1045c-5 3-9.4 3.7-15 4.2l-2.5.2q-5.7.7-11.5.6l-1-2c5-1.6 9.4-2.3 14.7-2.6 14.4-.7 14.4-.7 15.3-.4"/><path fill="#ba602e" d="m760 873 1 1h9v1l-7.6 1.6-2.2.4c-4.4.9-7.7.9-12.2 0q-3 0-5.9.4l-2.9.3-2.2.3 2-1c2-1 2-1 3-2l6.3-1 3.4-.6q4.1-.6 8.3-.4"/><path fill="#b5603a" d="m607 1246 3.8.9a695 695 0 0 0 25.2 5.1v2h7c-3 2-3 2-5.7 1.6l-2.3-.6v-2l-2.5.6c-4.4.5-7.3-.3-11.5-1.6l-1-1-8.4-.4-2.6-.6c-1.2-2-1.2-2-2-4"/><path fill="#a54f27" d="M474 1196c2.4 2.6 3 3.7 3.2 7.3l-.2 2.7h2l.9 2.3 2.2 4.9c.9 1.8.9 1.8.9 3.8h2l1.4 3c1.6 3 1.6 3 3.6 4v2h2l-1 3c-8.2-8.6-16.4-18.7-17.2-31z"/><path fill="#a14923" d="M588 992h12c2 4 2 4 2 7-6.5-.3-9.4-1.4-14-6z"/><path fill="#c76132" d="M719 960h2l1 2 3 2 1 1 1-4c3 1 3 1 6 3l-5 1v2l-4.3 1.5-2.4.8c-2.3.7-2.3.7-5.3.7v-4h4z"/><path fill="#ad5c3c" d="m1172 781 1 3-2 3h-3l-1 1.9-2 4.1h-2v2l-3 2-3 6-4-2c5.7-6.4 11.4-12.5 18-18z"/><path fill="#ac532c" d="m910 1057 1.8.9c2.7 1.3 5 1.5 8 1.7l3 .3 2.2.1v1q-21 .4-42-2v-1h15.9l3.4.1h3.2c2.5-.1 2.5-.1 4.5-1.1"/><path fill="#c16f4a" d="M821 1050h13v5q-16-1.1-32-3v-1h19z"/><path fill="#a34821" d="M1485 1024h2l.5 1.8q2.7 9 6.5 17.4c1 2.8 1.2 4.9 1 7.8h2v6c-2.5-2.5-3.2-4.8-4.4-8.2l-.6-1.9-4.9-13.6-1.2-3.4c-.9-2.9-.9-2.9-.9-5.9"/><path fill="#b65c28" d="M509 1243c5-.2 8.3 0 13 2h6l-2 3h-2v2c-4.3.4-6.4-.6-10-3l-2.8-1.6-2.2-1.4z"/><path fill="#b65b33" d="M1296 931h7c-3.7 4.1-8.1 6.8-12.7 9.8l-2.5 1.5-5.8 3.7-2-2h2v-2l3-1v-2l9-3v-2l2-1z"/><path fill="#f4e5cf" d="m1217 887 1 3c-3 4.8-3 4.8-6.1 5.5l-1.9.5c-1.2 2.6-1.2 2.6-2 5h-2l1 3c-2.8 2-2.8 2-6 4l-3-1 1.3-1.2q5.8-5.8 11-12z"/><path fill="#b25429" d="M704 1301c10.2-.4 19 .7 29 3-3.8 2.6-7.4 1.9-11.7 1.3l-2.1-.3q-7.8-1.1-15.2-3z"/><path fill="#b2603d" d="M1324 1270v2c-4 2.6-8.3 2.5-12.9 2.7l-2.4.1q-6.4.5-12.7-.8v-1l10.6-1.5 3-.4q7.2-1.2 14.4-1.1"/><path fill="#c56139" d="M1516 1009c2.4 3.6 3.7 7.2 5.2 11.3l.9 2.3a18 18 0 0 1 .9 12.4c-2.4-2.6-3-3.7-3.2-7.2l.2-2.8h-2v-10h-3z"/><path fill="#c45722" d="m1458 947 2 3-2 4h-2l.3 2.2c-.4 3.8-1.6 5.2-4.3 7.8-3.2.8-3.2.8-6 1v-2l1.9-.2c2.1-.8 2.1-.8 3.2-3l.9-2.8 3-5 1.7-2.8z"/><path fill="#a8562d" d="m556 929 1 2 3 1-1 2h-1l-.5 2.3q-2.4 10-6.5 19.7c-1.7-4-.3-7.8.8-11.8l.6-2q1.6-6.7 3.6-13.2"/><path fill="#be5e30" d="m1286 763 7.4.4h2c5.4.4 5.4.4 7.6 2.6l-7.2 1.6-2 .4c-4 .8-7 1.1-10.8 0l1.5-2c1.5-2 1.5-2 1.5-3"/><path fill="#b3603a" d="M841 1053c6.6-.1 6.6-.1 10 1l8.6.7c2.4.3 2.4.3 3.4 1.3l7 1v1l-10.5-.4-3-.2q-8.2-.2-16.5-1.4z"/><path fill="#b05f3c" d="m715 935 1 3a24 24 0 0 1-13 2l-1 4c-2.9-.6-3.9-.9-6-3 14.7-6 14.7-6 19-6"/><path fill="#ae5027" d="M1225 875h5l-2.9 3.5-1.6 2-1.5 1.5h-2v2c-1.6 1.7-1.6 1.7-3.7 3.6l-2.2 2c-2.1 1.4-2.1 1.4-6.1 1.4l1.8-1.2c2.2-1.8 2.2-1.8 3.7-4.4 1.5-2.4 1.5-2.4 3.7-3.2l1.8-.2v-2h3z"/><path fill="#c16436" d="m1490 1229 1 2-2 2h-2l-1 2h-2v2c-8.4 1.3-8.4 1.3-13 0q5-2.5 10-4.6l3.2-1.3z"/><path fill="#c6683c" d="M692 1026h2v2l3 2-1 2-1-1q-4.7-.4-9 1v-2l-2-.1-2.7-.3-2.7-.2c-2.6-.4-4.4-1.1-6.6-2.4q10-.3 20 1z"/><path fill="#a1522e" d="M1272 813c4 2 6.3 3.7 8 8 .5 5.2.6 9.4-2 14-1-3-1-5.8-1-9l-1-2v-6l-4-1z"/><path fill="#c77348" d="M858 1316h19v2l-5 1v1l-22-1v-1l8-1z"/><path fill="#c95c30" d="M600 982v2h7v1h-21l2-1 1-3c3.9-3.3 6.9-1 11 1"/><path fill="#b05d3b" d="M1246 925h-3v2h-5l-1 3-6.9.6-3.8.4h-3.3l-2-2 10.3-2.6 2.9-.7 2.8-.7 2.6-.7c2.5-.3 4 0 6.4.7"/><path fill="#a15229" d="M1171 888c1 2 1 2 .3 4.6-1.3 2.4-1.3 2.4-3.4 3.2l-1.9.2-.2 1.7c-1.1 3.2-3.3 5-5.8 7.3l-1.7 2.8-1.3 2.2h-2a37 37 0 0 1 7.4-12.1l1.5-1.9a84 84 0 0 1 7.1-8"/><path fill="#b45629" d="m1180 877 1 2 2 1-1 7-2-1-1 2h-2v-2h-2v2h-2c.6-3.4 1.8-5.2 4-7.7l1.7-2z"/><path fill="#b4582f" d="M662 988a79 79 0 0 1 16.2 4.3q3.8 1.4 7.8 2.7v1l-11 1v-2l-3-1v-2l-3.3-.4c-3.7-.6-3.7-.6-6.7-1.6z"/><path fill="#b05937" d="M1263 813c-1 2-1 2-2.8 2.7l-2.3.6q-7.1 2.2-12.9 6.7l-1 2h-5c16.8-14 16.8-14 24-12"/><path fill="#c24c19" d="M1572 1168c3.6 5.4 3.1 9.8 2 16l-2 1-2 3-1-6h2l-1-6 2-1 1-3h-2z"/><path fill="#c97143" d="M934 1059c-4.9 3.2-9 3.1-14.7 3H912v-3c6-3 15.6-.7 22 0"/><path fill="#b7572c" d="M558 1024h4a43 43 0 0 1-5 17h-1c-.2-6 .5-11.2 2-17"/><path fill="#a45430" d="m1574 1176 2 1c.4 16 .4 16-2 23l-2 1z"/><path fill="#bb5e35" d="m544 1223 18 8v1c-5.8.4-9.6-.7-15-3v-3h-3z"/><path fill="#bd5626" d="m716.8 1002 3 .5 2.2.5v1l-13 1v2l-6 1 1-3h3l-1-3c4-1 6.8-.9 10.8 0"/><path fill="#b45f36" d="m618 1284 10.6-.3c3.4.3 3.4.3 5.3 1.8l1.1 1.5-1 2a52 52 0 0 1-16-4z"/><path fill="#b65d35" d="M1369 993v4l-1.8.1-2.5.3-2.3.2c-2.4.4-2.4.4-4.6 1.5l-1.8.9c-2.2-.9-2.2-.9-4-2q4.4-2.3 9-3.6l2.7-.8c2.3-.6 2.3-.6 5.3-.6"/><path fill="#ac582f" d="M588 893c0 3 0 3-1 6l-3 1-3 1-.9 2c-1.1 2-1.1 2-3 2.7L571 907a85 85 0 0 1 11.3-9.8l1.7-1.2z"/><path fill="#bc5625" d="m1335 888 2 2c-3.9 10.7-3.9 10.7-8 14l-1-4h2v-2h2l1-4-3-1-1-3 2.4-.4c2.6-.6 2.6-.6 3.6-1.6"/><path fill="#f4e9d3" d="m1186 867 4 1-14 14c.3-3.5.7-5.6 2.9-8.4 2.1-1.6 2.1-1.6 5.1-1.6l.4-2c.6-2 .6-2 1.6-3"/><path fill="#b05a31" d="M850 861.9h3.6l16.4.1v1l-10.6 1-3 .3c-10.8 1-10.8 1-14.4.7l-2-2q5-1.3 10-1.1"/><path fill="#b96d48" d="m792 1313 11.6-.1h3.3c10-.1 10-.1 15.1 2.1v1l-10-.4-2.7-.2q-8.7-.3-17.3-1.4z"/><path fill="#cf602a" d="m1200.8 1314 2.2.1 2.5.2 2.6.1 2.6.2 6.3.4v1q-13.6 1.2-27.3 1H1177v-1h2l8.4-.4 3-.2h3l2.6-.2c2.3-.2 2.5-1.2 4.8-1.2"/><path fill="#ce5b2b" d="m475 1172 2 1v3h2l-1 5-2-2v13l-2 1v-10.6l-.1-2.3v-2q.2-3.1 1.1-6.1"/><path fill="#ce5316" d="M1316 911c2 2 2 2 2 5h-2v2c-2.6 2.5-4.1 4-7.8 4.3l-2.2-.3 3-4h2l.8-2.4c1.2-2.6 1.2-2.6 4.2-4.6"/><path fill="#b2703d" d="M530 1250c3 4.2 3 4.2 3 7a54 54 0 0 1-13-6v-1c7-1.4 7-1.4 10 0"/><path fill="#b8592e" d="M497 1233c3 0 5 0 8 1l-1 4h6v3h-2l-1 2-5-3.9-2.8-2.2-2.2-1.9z"/><path fill="#a55a36" d="M522 1033h2l-1 7h-2l-.2 3.6c-.6 4.4-2.1 7-4.8 10.4-1-2-1-2-.5-4l1-2.4.9-2.5 1-2.7 1-2.7z"/><path fill="#a94e28" d="m1111 965 4 2-1 3-1-2h-2q.7 7.5 2 15h-2a23 23 0 0 1-2.2-10.7v-2.9c.2-2.4.2-2.4 2.2-4.4"/><path fill="#c15b2d" d="m1431.7 1279.8 3 .5 3 .3 2.3.4-1 3c-4.7.8-8.4 1-13 0 2.2-4 2.2-4 5.7-4.2"/><path fill="#b4623b" d="m1275 1277 2 2c-3 1-3.9 1-7 0l-6.1.5c-5.5.5-10.4.3-15.9-.5v-1c22.1-1.6 22.1-1.6 27-1"/><path fill="#a8502c" d="m1404 1257-1 2h-3l-1 3-11-2c2.9-1.4 5-2.4 8-3.2l2-.5c2.3-.3 3.8 0 6 .7"/><path fill="#f4e4d1" d="M1413.3 1250.9h5.5l2.2.1v1q-12.3 3.6-25 5c2-3 2-3 4.8-3.7l3.3-.4c3.3-.5 6.1-1.9 9.2-2"/><path fill="#a54c25" d="M552 1048c1.7 4.1 0 7.6-1.3 11.6l-.7 2c-1 3-1.8 5.2-4 7.4l1-11h2l1-7h2z"/><path fill="#b25935" d="M1476 906c6.6 5 6.6 5 8 10h2l1 4-4-1v-2l-2-1 1-2h-2v-2h-3v-2l-3-1z"/><path fill="#a15b2b" d="M1407 903a34 34 0 0 1 13 6l4 2v2q-6.3-2-12.4-4.6-1.5-.8-3.2-1.4l-2.4-1z"/><path fill="#b86536" d="m922 902-1 2-29-1v-1a149 149 0 0 1 30 0"/><path fill="#c0623b" d="M758.4 842h7.6v2l-2.8.4c-3.2.6-3.2.6-6.2 1.6l-5.6-.3q-1.4 0-2.9-.3c-2.5-.4-2.5-.4-4.5-2.4q7.2-1.3 14.4-1"/><path fill="#b05630" d="M755 925v1l-2.6.6-3.3.8-3.4.8c-2.7.8-2.7.8-3.7 1.8h-8l1-2 8.4-2.2c.4 0 .4 0 2.3-.6 6-1.3 6-1.3 9.3-.2"/><path fill="#b96337" d="M1395.7 865.9h3.6l2.7.1v3l-5.2.6-3 .4c-3 0-5-.7-7.8-2 3.6-2.4 5.4-2.2 9.7-2.1"/><path fill="#b4592a" d="M562 1232q5.5 1 10.8 3l3 1.2 2.2.8v1c-7.6 1.3-7.6 1.3-11-1l-5-2z"/><path fill="#a04d27" d="M492 1119c1.1 4.5.6 6-.7 10.4l-1.1 3.3a76 76 0 0 1-4.2 9.3l-2-1z"/><path fill="#bd4c1e" d="M1491 935h2c1.6 4.9 2.2 8.8 2 14h-3v-2h-2l-1-3h2z"/><path fill="#b45425" d="m1449 887 4 1v2l1.7.3a24 24 0 0 1 7 3.8l2.5 1.6 1.8 1.3-3 1-2-1-1 2-.3-2c-.7-2-.7-2-2.5-2.9l-2.1-.5c-4-1.3-4-1.3-5.6-4.3z"/><path fill="#cb6130" d="m672 890 16 1a18 18 0 0 1-8.2 3.1l-2.7.5-2.1.4z"/><path fill="#c35119" d="m1304 886 4 2-2 1-1 7-3-1v-2h-2l1 3h-3v-4l5-1-1-3z"/><path fill="#c14e1b" d="M1366 788c1.3 4.2.7 8 0 12.3l-.2 2.2-.8 5.5h-1a32 32 0 0 1-1-17c1.6-2 1.6-2 3-3"/><path fill="#bd5b2f" d="m644 1255 11 2-1 3c-3 1.2-3 1.2-6 2v-3h-3z"/><path fill="#b35d36" d="M714 972a27 27 0 0 1-18 3c-1.8-1.5-1.8-1.5-3-3h6.8l3.7.1c3.5-.1 3.5-.1 5.8-.7 1.7-.4 1.7-.4 4.7.6"/><path fill="#b6603b" d="M643 870c-.5 2-.5 2-2 4-3.6 1-7.3 1-11 1 1-3 1-3 3-4l2.4-.7 2.4-.8c2.2-.5 2.2-.5 5.2.5"/><path fill="#ca5114" d="M1238 858h2v2l2 1-2 4-2-1v3h-5v2h-2v-3h2l1-2 4-2z"/><path fill="#ba6440" d="M1218 1055v1l-27 2c6.5-6.5 18.7-3.8 27-3"/><path fill="#f5e6d3" d="m1306 928 1 2-4 4h-2l-.6 1.8c-2.1 3.3-4.8 4-8.4 5.2l-2-1 3-2.1 3.9-2.8 2-1.4 1.8-1.3 1.8-1.3c1.5-1.1 1.5-1.1 3.5-3.1"/><path fill="#b86642" d="M1279 1311v1l-24 2c1-2 1-2 2.8-2.7a63 63 0 0 1 21.2-.3"/><path fill="#bf663c" d="M546 1260c5.6-.2 5.6-.2 9 2 1.2 2.6 1.2 2.6 2 5l-5-1.2-2.7-.8c-2.3-1-2.3-1-3.1-3.1z"/><path fill="#b75e32" d="M1401 1016h5l-2 1-1 3c-2.1 1-2.1 1-4.7 1.6l-2.7.8-2.6.6-2.7.7-2.3.3-2-2h4v-2l2.2-.4 2.7-.5 2.8-.5 2.3-.6z"/><path fill="#ad5524" d="m579 986 3.2.5q4.4.6 8.8.5l1 2c1.8.4 1.8.4 4 .6l4 .4v1c-5.8.2-10.5-.1-16-2l-1 2-4-4z"/><path fill="#ae5d35" d="M1275 835h2c-1.5 4.2-4.6 6.3-8.1 8.8l-1.7 1.2-4.2 3v-3h2l1-3h2l1-3h4v-2h2z"/><path fill="#a0532c" d="m1186 771 3 1-5 2v2h-2v2l-3 1-1 2h-3v2h-2c1.5-4 4-5.8 7.4-8.3l3-2.2z"/><path fill="#a55e2d" d="m537 1254 1 3 4 1 5 3c-3.6 1.2-4.6.7-8-.7l-2.7-1.1c-2.3-1.2-2.3-1.2-4.3-4.2z"/><path fill="#b86033" d="M1533 1201h3l-1 3h-2v2h-2l-1 4h-2v3l-4-1a14 14 0 0 1 5-6.6c3-2.4 3-2.4 4-4.4"/><path fill="#b45b37" d="M1563 1141c2 3 3 5.6 4.2 9l1 3.2c.8 2.8.8 2.8-.2 5.8-1.5-2.6-2-3.9-2-7h-2l-2-3-2-2 2-2z"/><path fill="#a84c24" d="M1513 1103c3.5 2.7 4 5.9 5 10l1.6 4.1c1.2 3.1 1.7 5.6 1.4 8.9-2.4-3.7-3.7-7.4-5.1-11.5l-.9-2.3-.8-2.3-.7-2c-.5-1.9-.5-1.9-.5-4.9"/><path fill="#ca5f2a" d="m1285 1042-1 3c-3 1.2-6 1.1-9.2 1h-4.8l2-1v-2c4.4-1.1 8.5-1 13-1"/><path fill="#b65f37" d="m643 982 10 2v2h5c-2 2-2 2-4.6 2.1l-2.4-.1v-2h-7z"/><path fill="#a45432" d="M1149 968h2a54 54 0 0 1-6.1 9.8l-2.2 3-1.7 2.2c-1-2-1-2-.6-3.8 2-5.8 2-5.8 5.2-8l2.4-1.2z"/><path fill="#b35939" d="m1189 914 3 1-4.4 5.4-2.4 3c-2.2 2.6-2.2 2.6-4.2 4.6v-6h3l1-4h2l1-3z"/><path fill="#ad542e" d="M1318 914h2c-1.6 3.9-4 6.3-7 9.3l-2.7 2.7c-2.3 2-2.3 2-4.3 2v-2h2l.2-1.7c1.1-3.2 3-4.4 5.8-6.3h2v-2h2z"/><path fill="#c25115" d="m580 903 3 2-1 2h-2v2c-2.2.7-2.2.7-5 1-2.3-1.4-2.3-1.4-4-3l4.3-2.1 2.4-1.2z"/><path fill="#b1572f" d="m1202 900 3 1-13 13 1-6 4-1v-2h2l-1-4h3z"/><path fill="#c0511f" d="m1123 865 1 3h3c1.3 7.5 1.3 7.5-1 12l-2-9h-2z"/><path fill="#c2582d" d="m1245 822 2 1c-2.1 3.5-4.6 5-8.2 7a45 45 0 0 0-6.8 5c.4-2.8.8-3.8 3-5.7 2-1.3 2-1.3 4-1.3v-3h5z"/><path fill="#c95929" d="m523 1029 5 1-2 1q-.9 4.5-1.3 9.2c-.7 2.8-.7 2.8-3.7 4.8v-5h2l1-7h-2z"/><path fill="#c15e33" d="m1254 923 .3 2 .7 2 3 1c-7.4.1-7.4.1-11-1l-1-4c3.3-1.1 4.7-.8 8 0"/><path fill="#eddac2" d="M632 910c-.6 1.9-.6 1.9-2 4-2.8 1.1-2.8 1.1-6 2l-2.6 1.2c-2.7 1-3.7.6-6.4-.2l9.5-4.5c5.3-2.5 5.3-2.5 7.5-2.5"/><path fill="#a8552d" d="M1397 1292c-6 4-12 4.2-19 4 5.1-5.1 12.3-4.2 19-4"/><path fill="#b9603d" d="M478 1157c2 3 2 3 1.8 5.2l-.8 2.8-1 4.3-1 3.7c-1.5-2.3-2-3.6-1.7-6.3l.7-2.7 1-3.8z"/><path fill="#b64e24" d="M1524 1133c2 2 2 2 2 5l4 1 1 8h-3l-2-5.3-1.1-3c-.9-2.7-.9-2.7-.9-5.7"/><path fill="#f2e3cc" d="M562 1025c1.2 4 .7 7 0 11h-2q0 1.5.3 2.8c-.3 3.2-.3 3.2-2.3 5-.3.3-.3.3-2 1.2q1.2-6.6 3.6-12.8l.7-2.1z"/><path fill="#c65b34" d="m613 991-1 2h-4v3h-5l-1-5 4.4-.6 2.4-.3c2.2-.1 2.2-.1 4.2.9"/><path fill="#b46335" d="m1113 980 3 1c1.2 3.6 1.2 3.6 2 7h3v2l3 1c-7.2-1-7.2-1-10-3-1.3-2.4-1.3-2.4-2-5z"/><path fill="#bc643d" d="m1115 957 1 2h2l1 5h-5l-2 2h-2c1.2-3.5 2.7-6.1 5-9"/><path fill="#cd6630" d="m803.2 914.3 2.7.3 2.1.4 1 2-14 1-1-3c3.2-1 5.8-1 9.2-.7"/><path fill="#b66138" d="m1289 897 2 4-4 5-6-1z"/><path fill="#cd5216" d="m1461 897 5 1v2h2v5l-6-2v-3l-2-1z"/><path fill="#cb622c" d="M701 880h6l2 2 5.1 1.1 2.8.5 2.1.4c-3 1-5.3 1.2-8.5 1.2h-3c-2.5-.2-2.5-.2-5.5-2.2l2-1z"/><path fill="#cb6836" d="m695 857-1.7.8c-2.3 1.2-2.3 1.2-4.5 2.9-4 1.9-6.5 1-10.8.3v-2l-2-1 8 1v-1q5.4-1.1 11-1"/><path fill="#b76842" d="m1247.8 1313.4 7.2.6v1l-22 1c4-4 9.4-3 14.8-2.6"/><path fill="#ab5b31" d="M1447 1001c-9 5.9-9 5.9-13 7l-3-1 4-1v-2c3.5-2.3 8-5 12-3"/><path fill="#d65d29" d="M1123 871c2.8 2.8 2.5 5.8 2.6 9.6l.1 2.2.3 5.2-5 1 1-2.2c1.4-5.3 1.2-10.4 1-15.8"/><path fill="#b5572d" d="m1238 864 3 1a126 126 0 0 1-11 10v-5h3v-3h5z"/><path fill="#b35e37" d="M1256 848h5v2c-2.1 2-2.1 2-4.9 4.1l-2.7 2.2c-2.4 1.7-2.4 1.7-4.4 1.7.3-2 .3-2 1-4l3-1 1-2h2z"/><path fill="#f6e9d8" d="M518 1036h3a546 546 0 0 1-7 22c-1.4-3.8-.5-6.1.9-9.9q2.2-5.8 3.1-12.1"/><path fill="#ac8560" d="m594 998 4.4.4 2.5.2 2.1.4 1 2 3 1v2h4v2c-6.1-1.5-11.4-4-17-7z"/><path fill="#c78a69" d="m1254 956 2 1c-6.7 3.5-13.6 4.1-21 5v-2c2.5-1.2 4.5-1.3 7.3-1.4 4.2-.4 7.7-1.2 11.7-2.6"/><path fill="#c95e29" d="m1264 944 3.8 2c2.7 1.2 5.3 1.6 8.2 2-2.2 2.2-3 2.6-6 3-2.7-.4-2.7-.4-5-1v-2l-2-1z"/><path fill="#b1613d" d="m1280 905 2 3c-3 3.7-5.2 4.6-10 5 2-4 4-6 8-8"/><path fill="#aa5129" d="m1379 889 4 2-1 2 5 1v3l4 1c-1.7.7-1.7.7-4 1-2.1-1.3-2.1-1.3-4.2-3.2l-2.2-2c-1.6-1.8-1.6-1.8-1.6-4.8"/><path fill="#b06439" d="m1309 870 1 2-1 2h2v3h-2l-1 2-3 3-2-2z"/><path fill="#f1e2cd" d="m1530 1248 1 2c-2 3.1-2.6 3.5-5.9 4.8l-2 .7c-2.1.5-2.1.5-6.1-.5z"/><path fill="#bf6b4b" d="M1512 998c3 3.6 3.7 6.3 4 11l-2 3a15 15 0 0 1-2.1-9.2v-2.8z"/><path fill="#a65d34" d="m584 989 17 2v1l-12 1 1 2-6-3z"/><path fill="#b45a30" d="m610 967 16 7v1l-11-1-1-3c-2-1.2-2-1.2-4-2z"/><path fill="#bf572c" d="m1148 960 4 1h4c-.6 3.2-1.4 5-4 7h-2z"/><path fill="#ab582d" d="M1263.6 952h3.4c-2.7 2.7-5.8 3.2-9.4 4.2l-2.1.6c-3.4.9-5.1 1.3-8.5.2l2.6-.8 3.3-1.1 3.4-1.1c5.6-2 5.6-2 7.3-2"/><path fill="#a85228" d="M656 901c-10.4 4.4-10.4 4.4-16 5v-2h5v-3c4-.7 7-1.2 11 0"/><path fill="#ab5630" d="m1344 876 2 1-9 16c-1-3-1-3 .2-6q1-1.5 1.7-3.2l1.8-3.3 1.3-2.5h2z"/><path fill="#c96d37" d="M747.9 874.8h3.2c2.9.2 2.9.2 5.9 2.2-6.7 1.1-6.7 1.1-9 0q-2.9 0-5.6.4l-3 .3-2.4.3 2-1c3.4-1.7 4.6-2.2 8.9-2.2"/><path fill="#f7ecd8" d="M1309 864h4v2h-2l-.7 2a86 86 0 0 1-5.3 10c-1-3-1-3 .3-5.9l1.7-3.1z"/><path fill="#ac5d37" d="M662 864c-3 1.8-4.2 2-8 2v2c-3.7 1.2-7.2 1-11 1a30 30 0 0 1 19-5"/><path fill="#c75011" d="m1274 822 2 1 1 7h-2l-1 4-2-1 .6-1.7c.4-2.3.4-2.3-.2-4.4l-.4-1.9z"/><path fill="#bf5d31" d="m520 1138 2 3c-.5 2-.5 2-1.4 4.2l-.9 2.2-.7 1.6h-4v-3l3-2 1-5z"/><path fill="#b14f26" d="M1523 1031c2 1 2 1 3.1 3.6l1 3.3q.7 1.5 1.2 3.2c.7 2.9.7 2.9-.3 5.9l-4-9h-3z"/><path fill="#b9613c" d="M1384 989v3c-5.3 2.3-9.4 2-15 1v-1l1.9-.4 2.4-.5 2.4-.6c6.5-1.5 6.5-1.5 8.3-1.5"/><path fill="#c2642e" d="M1437 916q4.5-.5 9 0c2 2 2 2 3 4l-1 2-4-1v-2l-7-2z"/><path fill="#ae5530" d="m821 911-1 3-17 1 1-2q3.8-.7 7.4-1.1l2.1-.3c5-.6 5-.6 7.5-.6"/><path fill="#b75326" d="m1325 904 4 1-8 9c-1.4-2.9-.6-5 0-8h4z"/><path fill="#f5e8d5" d="M1262 848v3c-4.3 4-4.3 4-7 4l-.7 2c-1.3 2-1.3 2-4 2.8l-2.3.2c4.3-4.5 9-8.2 14-12"/><path fill="#a54825" d="M1359 832h1c-.3 6.3-.6 11.6-4 17h-1c.6-6 2.2-11.3 4-17"/><path fill="#bd5218" d="M855 1284h10v2l6 1v1h-11l1-2-6-1z"/><path fill="#bd541f" d="m820 1282 20 1v1l-21 1z"/><path fill="#b35730" d="M532 1104h2q-1.4 7.6-4 15h-1v-13h2z"/><path fill="#b86745" d="M664 1022v2h8v3l-5.2-.9-3-.5c-2.6-.5-4.5-1.3-6.8-2.6a24 24 0 0 1 7-1"/><path fill="#b2552e" d="m592 952 2 2.2q3.2 3 6.8 5.4l3.2 2.4v3l-3-1v-2h-3v-2h-2c-2.1-1.7-2.1-1.7-4-4z"/><path fill="#c9693b" d="m772 921-2 2-1 3-9-1v-1l5-1v-2c3.1-1 4-1 7 0"/><path fill="#fbf3dd" d="M1268 914q-7.8 4-16 7l-1-2 1.7-.6 2.2-.8 2.3-.7c1.8-.9 1.8-.9 2.8-2.9 3-1.2 5-.9 8 0"/><path fill="#f8edd6" d="M1133 829h2q-2.1 6.7-5 13h-1c-.3-5 0-8 3-12z"/><path fill="#c67144" d="m1463 1242-3 1v2c-6.6.3-6.6.3-10-2 4.8-1.6 8-2.2 13-1"/><path fill="#d25d26" d="M724 1032c2.3-.2 2.3-.2 5 0 2 2 3 3.1 3 6l-4.4-.4-2.4-.2c-2.2-.4-2.2-.4-4.2-2.4l6-1z"/><path fill="#a85737" d="m568 1003 2 1-5 16h-1c.3-6.3.6-11.6 4-17"/><path fill="#f0dfcc" d="m687 945 3 1-.8 1.5c-2.7 5-3.8 8.9-4.2 14.5h-1l-.2-7.4v-2l.2-5.6z"/><path fill="#c95116" d="m1480 917 2 1v2h2l1 6-5 2 1-9-2-1z"/><path fill="#c55d2d" d="M1333 801h1l.8 5.8q0 1.6.4 3.3c-.2 2.9-.2 2.9-2.2 4.8l-2 1.1-1-8 2 1z"/><path fill="#a44f30" d="M1234 749c-11.5 5.6-11.5 5.6-17 6 2.4-2.7 4.6-4 8-5.2l2.5-1.1c2.7-.7 4-.6 6.5.3"/><path fill="#bc5e35" d="M720 1302q6.6.6 13 2c-3.3 2-5.4 2.1-9.2 1.6q-1.4 0-2.8-.3l-2-.3z"/><path fill="#c45b2a" d="M1360 1267h-2v2l3 1-5 1v1h-6l3-1-1-3c4.6-2.1 4.6-2.1 8-1"/><path fill="#bf5c33" d="M1516 1009a24 24 0 0 1 4 16h-2v-10h-3z"/><path fill="#b35e38" d="M1455 929c2.6 1.9 3.9 3.3 4.5 6.5l.5 7.5-.8-1.7-3.8-6.5-1.4-2.2-1-1.6z"/><path fill="#b35632" d="M1466 898c4 1.7 6.8 4.2 10 7l-3 3v-4l-6-1 1-3h-2z"/><path fill="#c1511b" d="M1205 853h6l-1 3h-3l-1 5-3-1v-4h2z"/><path fill="#f5ead1" d="m1220 836 4 1-10 8-1-4 2.4-1.4c2.6-1.6 2.6-1.6 4.6-3.6"/><path fill="#b56339" d="M1155 1285h15l1 2-11 1v-1l-5-1z"/><path fill="#c25c27" d="M860 1283v1c-9.4 3.4-9.4 3.4-14 3l1-3q6.4-1.2 13-1"/><path fill="#be6a3f" d="M1452 1275h9v2c-5.4 3-5.4 3-8.4 2.7l-1.6-.7h2z"/><path fill="#f8edd9" d="M511 1245c4.6 1.8 7.7 3.2 11 7h-2l-1 2-2-1v-3l-4-1v-2h-2z"/><path fill="#c05e32" d="M604 1245v2l-5.4-.4-3-.2c-2.6-.4-2.6-.4-4.6-2.4 4.8-1.5 8.3-.4 13 1"/><path fill="#a5623a" d="M611 1006h8l1 3 5 1v1c-5.3-.5-9.3-1.8-14-4z"/><path fill="#d15f2f" d="m1477 985 2 1v6l-5 2c0-2.6.3-4.5 1-7h2z"/><path fill="#ac5c38" d="M628 976a57 57 0 0 1 12 4.2l2 .8v1c-4.3.3-7.9-.7-12-2v-2h-2z"/><path fill="#cd622e" d="m732 929 10 1c-3.1 2.1-5 2.5-8.7 3.1l-3 .5-2.3.4v-2l4-2z"/><path fill="#a45935" d="M564 914c.6 1.8.6 1.8 1 4l-4 6-1 3h-2c.5-5.2 3.2-8.8 6-13"/><path fill="#b7885b" d="M1428 915h7c2 2 2.8 3.5 4 6a25 25 0 0 1-11-6"/><path fill="#f9f0dc" d="M1208 899v2h-2l1 3c-2.8 2-2.8 2-6 4l-3-1 3.9-4 2.2-2.2c1.9-1.8 1.9-1.8 3.9-1.8"/><path fill="#f2e4cb" d="M999 899c5.3-.4 5.3-.4 8 0 2 2.3 2 2.3 3 5l-1 3-.6-1.9c-2-3-4-3.1-7.4-4.1z"/><path fill="#bd5e31" d="M1383 869c2.6.4 2.6.4 5 1v2h-4v4h-4c.8-4.7.8-4.7 3-7"/><path fill="#f8eeda" d="m1153 796 3 1c-1.6 3.8-4 6.2-7 9l1-6h2z"/><path fill="#c45c29" d="M756 1276c13.6-.2 13.6-.2 20 1-3.2 2.1-4.3 2.3-8 2l-1-1-5.6-.6-3-.2-2.4-.2z"/><path fill="#cf7544" d="m590 1272 6 2 1 2-4 1 3 3-8-2 3-1z"/><path fill="#c46a3a" d="M509 1243c7.3-.5 7.3-.5 11 2l2 2c-4.7-.9-4.7-.9-7-2l-1 2-5-3z"/><path fill="#aa5e34" d="m529 1215 9.3 4.4c2.7 1.6 2.7 1.6 3.7 4.6h-3v-2l-2.9-1c-3.1-1-3.1-1-5.1-2v-2h-2z"/><path fill="#b16d4c" d="m1522 1211 1 4c-5 3.2-5 3.2-7 4l-4-1z"/><path fill="#b55731" d="M515 1205c5 1.5 8.2 4.6 12 8l-3 3-1-4h-2v-2h-2v-2l-4-2z"/><path fill="#b25532" d="m526 1123 2 1-5 12c-1-2.9-1-4.1-.7-7q0-1.1.2-2.2c.5-1.8.5-1.8 3.5-3.8"/><path fill="#ad5d42" d="M505 1081h1v9h-2l-1 4-2-1z"/><path fill="#c36538" d="M773 1045h4.8l2.7-.1c2.5.1 2.5.1 5.5 1.1l-1 3h-6l-1-2-5-1z"/><path fill="#a95134" d="M1308 1008c-3.4 2-6 2.2-10 2v2l-6-1c5.1-3.4 10-3.1 16-3"/><path fill="#d15219" d="M1506 993h1l1 9-4 2c.9-7.6.9-7.6 2-11"/><path fill="#b85c30" d="M1449 995h8c-6.6 5-6.6 5-10 5v-3h2z"/><path fill="#d25217" d="m709 969-2 1c-2 1-2 1-3 2q-2.8 1-6 1c.3-2 .3-2 1-4 3.7-1.2 6.2-.6 10 0"/><path fill="#eedac1" d="M754 960v2a41 41 0 0 1-16 2c2.8-1.9 4.3-2.5 7.4-3.1l2.3-.5c2.3-.4 2.3-.4 6.3-.4"/><path fill="#ad5225" d="m1458 947 2 3-2 4h-2v2h-2l-1 3-2-1 1.8-2.7z"/><path fill="#bc4f1d" d="m1460 938 1 4h2c1.2 3.5.7 5.5 0 9h-2v-5h-2z"/><path fill="#b04c1b" d="M608 915h2l1 2 1-1h5c-2.1 2.3-4 3.9-7 5l-3-1z"/><path fill="#a24c23" d="m632 910-6.3 3-3.6 1.8c-3.1 1.2-3.1 1.2-6.1.2 4.2-3.8 10.5-6.8 16-5"/><path fill="#c75014" d="M1475 906v3l2 1v2l2 1-4 2-1-3h-2l-1-3z"/><path fill="#ba653a" d="M1225 875h5l-2.9 3.5-1.6 2-1.5 1.5h-2l-1 2v-4h3z"/><path fill="#ca612d" d="m706 851 9 1-6 3-2-1v2h-6c1.3-2.5 2.5-2.9 5-4z"/><path fill="#f6e9d5" d="m1209 797 2 1c-1 3-1 3-2.8 4.2l-2.3 1-2.2 1-1.7.8-2-2z"/><path fill="#b8603a" d="m1326 727 2 2c-10.6 1.3-10.6 1.3-15 0v-1q6.5-1.2 13-1"/><path fill="#b86237" d="M1296 1274v2c-3 1.5-5.7 1.2-9 1-2.4-1-2.4-1-4-2a70 70 0 0 1 13-1"/><path fill="#af6140" d="M1410.2 1254h3.8c-3.4 3.1-6.4 3.6-11 4v-3c2.8-1 4.4-1.1 7.2-1"/><path fill="#b8532e" d="M1453 1244v2h-2v2h-7l1-3c3-1 5-1 8-1"/><path fill="#f2e0ce" d="m1566 1216 1 4-3 1-1 4-2 2-3-1 1.2-1.4 1.7-2 1.6-1.8c1.5-1.8 1.5-1.8 3.5-4.8"/><path fill="#b3643f" d="m556 929 1 2 3 1a28 28 0 0 1-6 8c.9-7.6.9-7.6 2-11"/><path fill="#ae5e38" d="m1120 919 3 1v11c-2-3-2.3-4.2-2.6-7.7l-.3-2.4z"/><path fill="#c06d45" d="M1265 917c-1 3-1 3-4 4.7l-3 1.3v-3l-2-1c3.1-1.9 5.4-2.2 9-2"/><path fill="#b75d39" d="M1250 777h-2l-1 3c-3.6 1.2-3.6 1.2-7 2 .8-2.4.8-2.4 2-5 3-1.4 5-1 8 0"/><path fill="#f8eeda" d="m1199.7 760.8 2.3.2c-8.4 7-8.4 7-12 7v-3l1.8-.3c2.2-.7 2.2-.7 3.6-2.3 1.6-1.4 1.6-1.4 4.3-1.6"/><path fill="#f7ead7" d="M1193 1058v1l-2.2.4c-2.6.6-4.5 1.3-6.8 2.6v-2h-8v-1q8.4-1.2 17-1"/><path fill="#ad5c36" d="M672 1027h12v2l3 1-5.2-.4-3-.2c-2.8-.4-2.8-.4-6.8-2.4"/><path fill="#ca5f2c" d="m722 1003 1 2h-8v2l-5 1-1-3z"/><path fill="#b76234" d="m789 948 4.3-.1 2.3-.1c2.6.2 4.2 1 6.4 2.2-8.2 1.5-8.2 1.5-11.6-.4z"/><path fill="#cb5f29" d="m1232 930-6 3v2h-5l1-4c3.2-1.6 6.4-1 10-1"/><path fill="#f0dbc6" d="m1327 906 2 1c-1.5 3.8-3.8 5.6-7 8l-2-1z"/><path fill="#c55d2a" d="m1172 886 1 2h2v-2h2v2h2v2c-3 1-3 1-6 0v2h-2z"/><path fill="#b95e39" d="m1437 881 4.9 1.9 2.7 1c2.4 1.1 2.4 1.1 4.4 3.1l-8-1v-2l-3 1z"/><path fill="#ce4d0f" d="M1218 880c-.6 2.9-.9 3.9-3 6h-3l1-5c2-1 2-1 5-1"/><path fill="#f3e3ce" d="m1237 868 1 3-8 7-2-1z"/><path fill="#b16442" d="M1125 853h1c.6 8 .6 8-2 12l-2 2 1-5.3.5-3c.5-2.7.5-2.7 1.5-5.7"/><path fill="#b36238" d="M1319 849h2v7l-5 1z"/><path fill="#c6500a" d="m1268 816 5 1 1 3-2 2c-2.1-.4-2.1-.4-4-1z"/><path fill="#d26125" d="M1337 1296h3v2h9l-1 2-4.8.1-2.7.1c-2.5-.2-2.5-.2-5.5-2.2z"/><path fill="#bd5124" d="M1397 1261c2.2 1.5 2.2 1.5 4 3l-5.4.1-3 .1c-2.6-.2-2.6-.2-4.6-2.2 3-1.5 5.6-1.2 9-1"/><path fill="#f8f0e0" d="m539 1090 1 4 3 1-2 3v-2l-2 1-1 4h-2z"/><path fill="#c65b2c" d="M556 941h1v9l-4 2c-.4-4.4.8-7.1 3-11"/><path fill="#b6623f" d="m594 932-1 3h-2l-2 10h-1q-1.1-4.4-1-9c3.6-4 3.6-4 7-4"/><path fill="#c3683c" d="m782 918 1 3c-1 1-1 1-4.4 1.3-3.6-.3-3.6-.3-5.5-1.8L772 919c7.8-1 7.8-1 10-1"/><path fill="#c3683b" d="m596.8 889.8 2.2 1.2-8 4v-2l-2-1c4.3-3.2 4.3-3.2 7.8-2.2"/><path fill="#c15825" d="M1304 882h2l-1 2.3a46 46 0 0 0-2 6.7l-5 1v-2h2l2-5h2z"/><path fill="#c66332" d="m697 1296 3 1h-2v2l4-1 1 2-10 1c2-4 2-4 4-5"/><path fill="#b44b1f" d="m654 1258 8 1v1l-1.7.4-2.2.5-2.3.5c-1.8.6-1.8.6-2.8 2.6l-2-1 1-3h2z"/><path fill="#f2e0cc" d="M516 1203c3.7 1.2 5.3 3.2 8 6l3 2-1 2-4.4-3.3-2.5-1.9c-2.1-1.8-2.1-1.8-3.1-4.8"/><path fill="#c76538" d="m1240 1017 13 1 1 3q-2.6 0-5.3-.3l-3-.2c-2.7-.5-2.7-.5-5.7-3.5"/><path fill="#cf5c2b" d="M1481 1006c2 1.4 2.9 2.5 3.4 5l.6 6-3-3v-2l-2-1z"/><path fill="#a65535" d="m1420 978-7.4 3.2c-2.8.8-4 .8-6.6-.2l4.8-2c.4-.3.4-.3 2.6-1.2 2.8-.8 4-.8 6.6.2"/><path fill="#b56845" d="M731 846v2a11 11 0 0 1-8.7 1.6l-2.5-.3-1.8-.3v-1l4.8-1 2.7-.6c2.5-.4 2.5-.4 5.5-.4"/><path fill="#f3e3d2" d="M1183 819c0 3.8-1 5.8-3 9-2.2.9-2.2.9-4 1q3-5.3 7-10"/><path fill="#b35d34" d="m1468 1238 1 3c-1 1-1 1-2.8 1.1l-6.2-.1c1.6-3.1 4.6-4 8-4"/><path fill="#b8633c" d="M1500 1225v4c-2.9.6-2.9.6-6 1l-2-2c5.8-3 5.8-3 8-3"/><path fill="#c85e29" d="m629 978 1 2 2.8-.1c3 .1 4.6.5 7.2 2.1v2q-5.6-1-11-3z"/><path fill="#f9f2da" d="m1454 948 3 1a16 16 0 0 1-6 7l-1-3 2-1z"/><path fill="#b66242" d="M1124 943c1 3 1 3 0 6h-2v4l-4-1z"/><path fill="#b5592a" d="m570 907 2 1v2h2v2h-8l2-1z"/><path fill="#ba6139" d="m1476 906 6 5v1h-5v-2l-3-1z"/><path fill="#f8efdd" d="M1180 873c.8 1.7.8 1.7 1 4-2.4 2.8-2.4 2.8-5 5 .6-5.5.6-5.5 2.6-7.9z"/><path fill="#f2e3cc" d="m1198 856 3 1-7 7-2-3c3.8-3 3.8-3 6-3z"/><path fill="#a6542c" d="M722 849v1a37 37 0 0 1-14 2c4-4 8.8-3 14-3"/><path fill="#f4e4ce" d="m1271 841 1 2c-1 2.6-1 2.6-3 5-3.2.3-3.2.3-6 0q3.6-3.9 8-7"/><path fill="#f5e6d0" d="m1142 812 3 1-3 5-1.6 2.8-1.4 2.2h-1v-5l3-1z"/><path fill="#ab532a" d="M1260 774a18 18 0 0 1-7.7 3.1l-2.4.5-1.9.4 1-3c3.5-1.5 7.3-1 11-1"/><path fill="#ab613e" d="m1197 765-1 3h-2v2l-7 1c7.4-6 7.4-6 10-6"/><path fill="#cc6127" d="M1305 1274h13v1l-2.4.4c-2.6.6-2.6.6-4.6 2.6v-2l-6-1z"/><path fill="#efddc6" d="M1542 1240v3c-3.2 3-5.6 4.5-10 5 3-3.3 6.3-5.6 10-8"/><path fill="#eacab0" d="m594 1242 12 1v2l2 1q-7-1.1-14-3z"/><path fill="#d45e23" d="m1395 1016 8 1c-3.4 2.3-6 2.5-10 3z"/><path fill="#c05f33" d="M1472 985c-4.3 4-4.3 4-7.8 4.3l-2.2-.3 1-3c3-1.5 5.7-1 9-1"/><path fill="#f5eede" d="M605 960c3 1 3 1 5 3v3l-5-2z"/><path fill="#ae5d2d" d="m1448 923 4 1v3h2l-2 4c-4-5.7-4-5.7-4-8"/><path fill="#c56736" d="m1006 922 3 1c-2.4 2.4-5.1 4.1-8 6l-2-1 3-3h2v-2z"/><path fill="#f0e0c9" d="m1319 916 1 3-3 1v3l-5 1 3-3.4 1.6-2z"/><path fill="#a06a3f" d="M1413 908c4.6-.3 7.3.2 11 3v2q-5.6-1.8-11-4z"/><path fill="#b76131" d="m1005.2 902 1.8 1v4c-2.9-.4-3.8-.8-5.7-3l-1.3-2c3-1 3-1 5.2 0"/><path fill="#aa5d36" d="M1090 850h2c-1.4 3.2-2 4-5 6-2.7-.4-2.7-.4-5-1q3.7-2.1 8-3z"/><path fill="#a84d21" d="M1139 822h5v2l-2.4.7c-2.6 1.3-2.6 1.3-4 4l-.6 2.3c-1-3-1-3 .4-6.2z"/><path fill="#be582b" d="m1363 731 4 4-2 1-1 3c-2-3-2-3-1.6-5.7z"/><path fill="#f7e8d0" d="M1362 729h5c1 3 1 5 0 8-3.9-5.7-3.9-5.7-5-8"/><path fill="#ce6026" d="M777 1308v1h-13v-1c8.4-2.6 8.4-2.6 13 0"/><path fill="#c1592c" d="M595 1277c7.8-.1 7.8-.1 10 1v2h-4v-2l-6 1z"/><path fill="#bc663c" d="m1499 1258 9 1-3 3c-2.7-.3-2.7-.3-5-1z"/><path fill="#ac5934" d="M544 1223c6.8 2.8 6.8 2.8 9 5h-6v-2h-3z"/><path fill="#f5dcc4" d="M1540 1181h1c.3 5.7-.6 9-3 14-1.2-3.6-.6-5 .4-8.7l1-3q.2-1.1.6-2.3"/><path fill="#ce602e" d="m1546 1103 1 3h2l1-2 1 4h-3l-1 3h-2z"/><path fill="#cf5d2b" d="M1506 1076c2.8 2.8 2.6 5.2 3 9h-2v-2l-2-1v-5z"/><path fill="#ae5029" d="M1529 1049c2 1 2 1 3.2 3.3.8 2.8.8 4-.2 6.7l-2-1c-.4-2-.4-2-.6-4.6l-.3-2.5z"/><path fill="#b55d39" d="M572 987h3l-3 11h-1q-.2-5.6 1-11"/><path fill="#ac6745" d="M1452 955c0 3.2-.2 4.4-2 7-2.6.8-2.6.8-5 1l3-3.4 1.6-2z"/><path fill="#d5692f" d="M727 961c3 1 3 1 6 3l-5 1v2l-5-1 3-1c.7-2 .7-2 1-4"/><path fill="#ae4b21" d="M587 940h1l3 12h-2c-2.1-3.2-2.2-4-2.1-7.7V942z"/><path fill="#b86542" d="M755 925v1l-4.2 1.1-2.4.7c-2.8.2-4-.4-6.4-1.8l4.8-1 2.7-.7c2.5-.3 2.5-.3 5.5.7"/><path fill="#cb5e2d" d="M852.6 907.8h3l3 .1 2.4.1v2l-9-1v2l-4-1c2-2 2-2 4.6-2.2"/><path fill="#ac5731" d="M688 891c-3 2-4.2 2.3-7.7 2.6l-2.4.3-1.9.1c3.6-3.6 7.2-3 12-3"/><path fill="#fbf7e7" d="m1170 881 1 2 5-1-2 3h-2l-2 2-2-3z"/><path fill="#bc5e31" d="M1156 797h3q-.6 3.2-2 6l-4-2c1.3-2 1.3-2 3-4"/><path fill="#f3e4cf" d="m1183 770 4 1-9 6 1-4h3z"/><path fill="#a85b34" d="m1490 1229 1 2c-2.8 2.8-5.2 2.6-9 3 2.4-2.7 4.6-3.8 8-5"/><path fill="#cc602e" d="M507 1170h1l1 7-4 3 .4-4.4.3-2.5c.3-2.1.3-2.1 1.3-3.1"/><path fill="#ac4e2f" d="M1546 1096c3 3 2.6 5.8 3 10h-2z"/><path fill="#b06339" d="M1352 1032v2l-9 1v-2c3-1 5.8-1 9-1"/><path fill="#ae4a1c" d="M530 1013h1l1 7h-3c-.6-1.8-.6-1.8-1-4z"/><path fill="#f5e0ca" d="M1325 1001h11v1l-12 2z"/><path fill="#c8602f" d="M1509 989c2 3 2 3 1.6 5.2l-.6 1.8h-2l-1 3c-.2-4 0-6.6 2-10"/><path fill="#be501b" d="m1369 993 4 1-2 1 2 1v2l-6 1v-2h2z"/><path fill="#974d31" d="M600 995v4l-7-2c3-2 3-2 7-2"/><path fill="#f1e0c9" d="m1464 990 2 1c-1.1 2-1.1 2-3 4-3.2.8-3.2.8-6 1 2.3-2.3 4.3-4.2 7-6"/><path fill="#c16b3b" d="M551 953h1l-1 9-2-1 1-3h-2c1.9-3.9 1.9-3.9 3-5"/><path fill="#cf5219" d="m1490 947 4 1v4h-5z"/><path fill="#f6e7d1" d="M868 941h-2v2l-13-1v-1l8.2-.9c2.6 0 4.4.1 6.8.9"/><path fill="#c04a13" d="M1200 894h2l1 2 2-1v5l-4-1z"/><path fill="#a9552f" d="m1246 858 3 1-8 6-1-3 6-2z"/><path fill="#f7e1cc" d="M1128 842c1.1 3.4.9 4-.4 7.2l-1 2.2-.6 1.6c-1.2-3.7-.8-6.2 0-10z"/><path fill="#f7ebd7" d="M1214 755a55 55 0 0 1-10 5v-3c3.4-2 6-2.2 10-2"/><path fill="#b5531e" d="M1473 1268h5l-2 2 2 2-7 1 2-1z"/><path fill="#a65832" d="M1533 1201h3l-1 3h-2v2h-2v2h-2q1.8-3.7 4-7"/><path fill="#c25019" d="m1544 1176 1 3-1 1-.6 4.6-.2 2.5-.2 1.9h-1l-1-11z"/><path fill="#ecd4bf" d="M525 1129h1c.3 3.3.3 3.3 0 7l-4 3z"/><path fill="#c44716" d="m1548 1107 3 1c-.3 2-.3 2-1 4l-3 1v-5z"/><path fill="#faeede" d="m816 1053 11 1v1l-11 1z"/><path fill="#eedbc3" d="m529 1012 1 2c-.8 2.2-.8 2.2-2 4.6l-1 2.5-1 1.9c-1.1-3.7-.8-5.5 1-9z"/><path fill="#aa542a" d="M607 1003h9l-1 3h-4v-2z"/><path fill="#ba6c4a" d="M649 984h4v2h5c-2 2-2 2-4.6 2.1l-2.4-.1v-3z"/><path fill="#f6ead3" d="m1443 960 4 1c-2.3 2-2.3 2-5 4l-3-1 1-2h3z"/><path fill="#b96544" d="M1495 945c2.3 3.4 2.5 6 3 10h-2c-1.6-3.2-1-6.4-1-10"/><path fill="#cd5310" d="m1181 917 2 4-4 2-1-3z"/><path fill="#b76d48" d="M806 915v1c-8.6 1.4-8.6 1.4-12-1 4-1.5 7.8-.6 12 0"/><path fill="#af4d21" d="M566 912h4c-.8 2-.8 2-2 4l-3 1z"/><path fill="#ce5019" d="m1448 889 3 1 1 3-2 3-3-1 .5-1.9c.5-2.1.5-2.1.5-4.1"/><path fill="#b26945" d="m603 884 2 1-1 3-8 1z"/><path fill="#b14f28" d="M1415 872c4.8.9 4.8.9 7 2v2l-7-1z"/><path fill="#c75118" d="m654.6 869.4 2.5.3 1.9.3-2 2-4-1-3 1-2-2c2.5-1.3 3.9-1 6.6-.6"/><path fill="#b96041" d="m743 845-1 2-6 1v-2l-2-1c3.4-.8 5.7-1.1 9 0"/><path fill="#af674a" d="m1246 819 2 1c-1.7 2.5-1.7 2.5-4 5-2.7.3-2.7.3-5 0l2.4-1.9c2.6-2.1 2.6-2.1 4.6-4.1"/><path fill="#f6e9d9" d="m1251 817-8 5v-3h2v-2c2-1 2-1 6 0"/><path fill="#bd592b" d="M1148 807c1.5 2.6 2 3.9 2 7l-2 1c-1.1-5.7-1.1-5.7 0-8"/><path fill="#b26543" d="m1163 790 1 2c-1 3-1 3-4 5l-3-1z"/><path fill="#f4e7d2" d="m1174 777 3 1-3 3h-2l-1 3-2-2 1-2h3z"/><path fill="#bf5725" d="m1186 773 2 4h-3l-1 2-2-1v-2h2v-2z"/><path fill="#b45020" d="M571 1266c-1.2 1.5-1.2 1.5-3 3-2.7.2-2.7.2-5 0l-1-2c3-1 5.8-1 9-1"/><path fill="#ba936b" d="M522 1251c3.4.3 3.4.3 7 1 1.4 2 1.4 2 2 4a91 91 0 0 1-9-4z"/><path fill="#cf632e" d="m1514 1250 7 1-2 1-1 3-3-1c-.7-2-.7-2-1-4"/><path fill="#f5e3cb" d="M1533 1201c-1.4 3.4-3 5-6 7v-3h2v-3c2-1 2-1 4-1"/><path fill="#bf6439" d="m523 1029 5 1-2 1-2 4v-2h-2z"/><path fill="#a8592d" d="M1425 1008h5v2l-9 2 4-2z"/><path fill="#c36e43" d="M1458 945h4c-.2 1.9-.2 1.9-1 4-2.6 1.3-2.6 1.3-5 2z"/><path fill="#a65725" d="M1424 911h4v2h3v2c-4.7-.9-4.7-.9-7-2z"/><path fill="#b4724f" d="M1008 906c2 1.6 2 1.6 4 4 .3 3.3.3 3.3 0 6h-1v-5h-3z"/><path fill="#b16644" d="M588 893c0 3 0 3-1 6h-6c2.3-2.3 4.3-4.2 7-6"/><path fill="#ca5e31" d="m1254 816 2 1-2 5-4-1c1-3 1-3 4-5"/><path fill="#b4693e" d="M1272 813c4.9 2.8 4.9 2.8 6 5h-5z"/><path fill="#faefe0" d="m1190 812 1 4c-2.4 1.6-2.4 1.6-5 3l-2-1z"/><path fill="#f9e9d8" d="m1261 812-3.9 2-2.2 1.1c-1.9.9-1.9.9-3.9.9 1-3 1-3 3.3-4.2 2.9-.8 4-.6 6.7.2"/></svg>