<svg xmlns="http://www.w3.org/2000/svg" viewBox="449 449 1145 1145"><path fill="#ca5821" d="M977.794 821.899c3.75.006 7.5.006 11.25.008q10.593.005 21.184.021 12.084.015 24.168.022 24.803.016 49.604.05v2c.746.095 1.493.19 2.262.29 4.02 1.043 5.756 3.117 8.34 6.265 2.52 4.407 2.295 8.555 1.398 13.445-1.708 5.386-4.224 8.858-9 12-2.45 1.225-4.052 1.135-6.79 1.151l-3.07.026-3.381.012-3.555.026q-4.846.033-9.693.055-5.11.03-10.221.067-11.947.081-23.896.15c-10.04.06-20.079.12-30.118.19q-6.99.048-13.983.083c-22.129.136-44.26.623-66.344 2.107l-3.719.24c-3.848.25-7.695.509-11.542.768l-4.023.268c-25.186 1.678-50.299 3.505-75.294 7.115-5.88.837-11.78 1.47-17.683 2.117-14.386 1.598-28.673 3.802-42.969 6.047q-3.663.57-7.33 1.111c-5.67.84-11.17 1.78-16.701 3.28-6.644 1.748-13.327 3.152-20.063 4.5-13.04 2.64-25.82 6.093-38.625 9.687l-4.434 1.23c-5.412 1.521-10.788 3.102-16.105 4.93-1.968.672-3.944 1.32-5.922 1.961C643.526 905.72 635.7 908.57 628 912l-2.01.887c-8.246 3.664-16.007 7.332-23.205 12.863C601 927 601 927 599 927v2c-4.302 4.767-4.302 4.767-8 6-.978 2.933-1.134 4.882-1.125 7.938l-.008 2.59c.124 2.299.489 4.268 1.133 6.472h2l2.25 2.938C607.719 970.004 634.471 980.003 653 984v2l2-.187c3.31.206 5.705 1.078 8.742 2.335 40.92 15.434 87.64 20.96 130.784 26.532q3.506.454 7.011.918c19.477 2.562 38.966 4.367 58.545 5.916 6.935.555 13.846 1.268 20.758 2.056 13.372 1.434 26.792 1.888 40.223 2.43q4.588.187 9.178.377 2.83.117 5.66.23c4.442.182 8.881.376 13.32.64 14.433.834 28.843.935 43.299.956l5.967.013q8.346.018 16.692.023 9.453.005 18.907.042c51.699.212 103.28-1.26 154.807-5.79q3.207-.28 6.413-.551c28.026-2.4 55.807-6.022 83.59-10.446q4.918-.782 9.838-1.553l6.66-1.054 3.046-.48c12.51-1.999 24.971-4.354 37.232-7.56a420 420 0 0 1 8.406-2.038l2.793-.653q2.74-.638 5.482-1.267c4.975-1.164 9.795-2.52 14.614-4.223 2.839-.93 5.723-1.521 8.642-2.139 7.109-1.568 13.717-3.615 20.391-6.527q2.243-.68 4.5-1.312c10.659-3.142 20.602-7.569 30.438-12.688l2.364-1.22c10.073-5.358 21.179-12.394 24.698-23.78.632-3.299.526-5.098-1.172-8.012-4.069-5.673-8.55-9.39-14.656-12.781a586 586 0 0 1-8.484-4.832c-1.028-.59-2.055-1.18-3.114-1.79C1428 916 1428 916 1426 914a131 131 0 0 0-6-2.375 512 512 0 0 1-14.2-5.54 168 168 0 0 0-6.695-2.42c-8.753-3.024-16.599-5.821-21.605-14.165-1.261-6.306-.546-10.829 2.5-16.5 2.725-3.144 5.113-5.503 9-7 3.234-.195 3.234-.195 6.75-.125l3.547.055 2.703.07v2l2.875.293c4.917.706 9.46 2.36 14.125 4.02l2.617.896c5.186 1.824 9.66 3.992 14.383 6.791 2.952 1.475 5.943 2.864 8.938 4.25l2.36 1.102q2.85 1.327 5.702 2.648v2c.547.095 1.093.19 1.656.29 10.347 3.138 23.477 14.623 29.344 23.71v2h2c4.505 8.923 7.424 17.37 9.625 27.125 1.776 7.7 3.673 15.143 6.487 22.534 1.057 2.786 1.927 5.606 2.763 8.466 2.67 8.832 5.78 17.517 8.972 26.172 3.714 10.092 7.13 20.288 10.592 30.468l2.565 7.528.777 2.29a357 357 0 0 0 3.826 10.72c1.878 4.985 3.48 10.04 5.112 15.111 1.202 3.364 2.668 6.405 4.281 9.586 1.333 4.007 2 7.754 2 12h2l1.022 3.114q1.909 5.806 3.83 11.608.825 2.495 1.644 4.992c2.88 8.777 5.771 17.423 9.632 25.832.939 2.642 1.04 4.672.872 7.454h2l1.355 4.066.881 2.64q.958 2.877 1.909 5.757c1.42 4.294 2.848 8.577 4.433 12.814 5.457 14.945 4.236 28.29-2.11 42.715-7.11 14.563-17.474 25.073-30.826 33.916a201 201 0 0 0-4.244 2.92c-7.743 5.26-16.233 9.014-24.703 12.938-2.522 1.17-4.83 2.32-7.18 3.812-4.052 2.29-8.466 3.515-12.89 4.922-10.384 3.33-10.384 3.33-14.41 5.125-4.009 1.714-8.007 2.594-12.25 3.531-2.965.844-2.965.844-5.867 2.34-3.533 1.715-6.737 2.38-10.598 3.067-4.682.842-8.997 1.927-13.5 3.437-2.945.73-5.908 1.366-8.875 2-8.743 1.887-8.743 1.887-13.07 3-5.497 1.396-11.068 2.42-16.633 3.5l-2.547.5-2.258.438c-2.146.46-4.277.988-6.403 1.535-4.143 1.046-8.3 1.788-12.519 2.465l-2.315.38q-3.627.595-7.255 1.182-4.777.778-9.555 1.563l-2.32.38c-3.848.637-7.675 1.318-11.492 2.12-6.287 1.3-12.646 2.099-19.008 2.937l-1.981.264a588 588 0 0 1-28.61 3.088c-5.434.46-10.764 1.123-16.13 2.118-10.97 1.92-21.99 2.95-33.091 3.714l-4.26.303q-5.665.401-11.331.79l-7.104.49c-19.692 1.365-39.387 2.683-59.094 3.798q-3.15.178-6.3.363c-41.494 2.418-83.115 2.277-124.661 2.26h-3.844c-39.821-.006-79.563-.294-119.344-2.188l-3.496-.161c-43.099-1.99-86.037-5.312-128.941-9.839-1.147-.12-2.293-.24-3.475-.362a804 804 0 0 1-43.474-5.765c-4.8-.764-9.597-1.388-14.426-1.935-5.644-.67-11.002-1.787-16.512-3.153-4.699-1.003-9.416-1.645-14.176-2.285-6.94-.935-13.674-2.124-20.477-3.82-3.27-.735-6.511-1.192-9.835-1.617-7.084-.957-13.899-2.629-20.799-4.445a630 630 0 0 0-8.002-2A1694 1694 0 0 1 602 1282l-2.58-.662c-17.833-4.654-35.1-11.086-52.42-17.338v-2l-3.5-.5c-4.948-1.087-9.245-3.125-13.75-5.375l-2.076-1.03c-3.945-2.02-7.226-4.286-10.674-7.095a84 84 0 0 0-4.5-2.062c-7.114-3.44-12.69-8.678-18.5-13.938l-2.29-2c-11.18-10.334-18.932-24.912-19.913-40.156-.156-11.147 1.277-21.528 6.219-31.602 1.86-4.239 2.878-8.757 3.984-13.242h2l.324-2.496c.78-4.047 2.064-7.71 3.489-11.566 1.859-5.136 3.635-10.262 5.187-15.5 1.692-5.642 3.69-11.127 5.807-16.62a219 219 0 0 0 3.57-9.93c1.661-5.01 3.356-10.009 5.057-15.005l.967-2.842 2.014-5.915 2.04-5.992c8.675-25.515 8.675-25.515 13.108-36.634 1.918-4.946 3.432-9.872 4.757-15.004 1.336-4.905 3.25-9.543 5.305-14.183 1.175-2.832 1.918-5.298 2.375-8.313h2l.332-2.125c.859-5.14 1.863-9.9 3.82-14.73 1.43-3.619 2.598-7.325 3.813-11.02a394 394 0 0 1 2.039-6c1.732-5 3.22-9.954 4.395-15.11C556.525 926.74 559.754 918.38 566 911h2l.793-1.8c8.13-14.813 32.993-25.068 47.832-30.887l3.484-1.393q3.378-1.35 6.762-2.684c2.813-1.111 5.618-2.24 8.422-3.373 83.685-33.415 181.792-41.178 286.89-47.712q2.66-.142 5.32-.29c16.763-.911 33.509-.996 50.291-.962M575 986l-.791 2.373-1.115 3.346-1.244 3.732-2.717 8.15a11286 11286 0 0 0-6.473 19.454l-1.078 3.248q-.992 2.99-1.98 5.98c-1.507 4.537-3.062 9.042-4.768 13.508-2.993 7.925-5.807 15.917-8.627 23.904l-4.394 12.43c-4.587 12.973-9.176 25.943-13.875 38.875-3.234 8.901-6.275 17.858-9.202 26.865-2.013 6.152-4.28 12.147-6.736 18.135-3.982 9.897-7.056 17.694-3.437 28.063 6.686 14.991 22.383 22.994 36.437 29.937l2.052 1.028c10.394 5.178 20.932 9.32 31.948 12.972l2.504.86A387 387 0 0 0 588 1241l3.496 1.148c9.731 3.154 19.524 5.624 29.504 7.852l2.86.691c4.127.99 7.892 1.527 12.14 1.309v2l2.656.48a879 879 0 0 1 27.598 5.542c19.715 4.198 39.679 7.104 59.621 9.978l3.643.527c19.132 2.764 38.26 5.413 57.482 7.473l3.56.384c9.47 1 18.95 1.835 28.44 2.616.908.075 1.816.15 2.752.229 29.222 2.415 58.46 4.18 87.756 5.373l2.4.098c36.416 1.483 72.8 1.766 109.242 1.686 5.78-.012 11.56-.007 17.34.005a2359 2359 0 0 0 161.355-5.184c4.072-.267 8.144-.52 12.218-.77 21.559-1.346 21.559-1.346 32.187-2.945 4.864-.638 9.734-.994 14.625-1.367 32.108-2.526 64.83-6.422 96.406-12.812 6.14-1.241 12.268-2.12 18.492-2.82 3.53-.54 6.8-1.5 10.227-2.493 3.36-.706 6.744-1.273 10.127-1.855 2.997-.536 5.856-1.14 8.744-2.114 2.561-.844 4.915-1.422 7.55-1.926 7.003-1.345 13.913-3.067 20.829-4.792l2.123-.53c15.894-3.976 31.444-8.592 46.627-14.783q2.083-.822 4.168-1.64c14.71-5.85 28.13-12.869 40.832-22.36l2.375-1.773c6.999-5.647 12.888-14.208 14-23.29-.934-9.807-5.608-19.476-8.992-28.67q-1.03-2.803-2.053-5.607a780 780 0 0 0-6.854-18.077c-4.248-10.77-8.024-21.677-11.726-32.645l-1.852-5.452A3927 3927 0 0 1 1502 1071h-2l-.307-1.799c-1.225-6.665-3.128-12.886-5.396-19.263l-1.092-3.124c-1.145-3.274-2.3-6.544-3.455-9.814q-2.26-6.436-4.516-12.875l-1.106-3.15a1056 1056 0 0 1-7.176-21.144c-1.53-4.66-3.206-9.247-4.952-13.831-3.758.81-5.889 2.25-8.937 4.625-6.041 4.494-12.365 7.964-19.063 11.375l-3.516 1.852c-6.558 3.394-12.979 6.207-20.058 8.324C1418 1013 1418 1013 1415 1015a94 94 0 0 1-5.125 1.438c-5.642 1.479-11.18 3.14-16.625 5.236-4.858 1.866-9.736 3.44-14.75 4.826l-2.339.652c-6.546 1.776-13.117 3.06-19.806 4.172-3.355.676-3.355.676-5.75 1.645-3.729 1.476-7.547 2.105-11.48 2.844a656 656 0 0 0-19.733 4.1 381 381 0 0 1-31.893 5.731c-2.781.396-5.553.837-8.327 1.278-8.192 1.268-16.413 2.29-24.638 3.31q-3.992.496-7.983 1c-7.842.981-15.667 1.959-23.55 2.537C1221 1054 1221 1054 1218 1055c-2.327.266-4.659.486-6.992.684l-2.123.183q-3.38.289-6.76.57-3.262.277-6.523.557l-4.51.383c-3.959.337-7.912.7-11.863 1.112-14 1.443-28.005 2.227-42.062 2.889q-5.805.275-11.608.565c-29.052 1.42-58.079 2.264-87.165 2.246q-3.287-.002-6.574 0c-28.699-.002-57.34-.775-86.016-1.923-4.752-.19-9.504-.36-14.256-.52l-3.702-.127q-3.48-.12-6.962-.23c-5.696-.197-11.239-.62-16.884-1.389-1.816-.12-3.634-.217-5.453-.281l-2.875-.114-5.89-.21c-.473-.02-.473-.02-2.86-.114l-2.575-.092c-2.347-.189-2.347-.189-4.321-.684-2.474-.617-4.815-.738-7.362-.864-42.974-2.379-85.608-8.304-128.082-15.078-4.554-.716-9.113-1.394-13.674-2.063-4.046-.696-7.978-1.74-11.947-2.781-3.926-.953-7.877-1.56-11.867-2.18-4.447-.775-8.807-1.857-13.184-2.953-2.732-.55-5.134-.698-7.91-.586v-2l-2.057-.471c-12.158-2.805-24.171-5.612-35.927-9.825a330 330 0 0 0-7.203-2.395c-16.613-5.388-16.613-5.388-24.47-9.192-2.473-1.179-4.977-2.187-7.53-3.18a99 99 0 0 1-9.313-4.187C596 999 596 999 594 999l-.687-1.875c-1.721-2.786-3.282-2.997-6.313-4.125a523 523 0 0 1-5-4h-2v-2z"/><path fill="#cb5620" d="M1341.299 724.83c15.243-1.007 15.243-1.007 21.06 4.076 5.48 6.992 7.392 11.823 7.27 20.793l.012 3.093c.003 3.3-.035 6.597-.078 9.895l-.023 3.403c-.121 17.592-1.058 34.627-4.54 51.91l-.485 2.5c-.974 4.895-2.178 9.693-3.515 14.5l-.6 2.254c-5.23 19.534-12.635 38.58-23.4 55.746l-1.734 2.934c-3.51 5.804-7.458 10.787-12.09 15.738-1.905 2.038-3.7 4.125-5.488 6.265-13.745 15.593-31.58 27.077-50.688 35.063l-1.75.79c-13.373 6.022-26.761 8.374-41.25 10.21l-3.488.563c-6.089.755-12.204.34-18.32.148-3.415-.076-6.829-.136-10.243-.199a617 617 0 0 1-10.647-.287 394 394 0 0 0-10.377-.23c-1.937-.033-3.874-.124-5.81-.216-5.36-.018-8.734.031-12.895 3.616A81 81 0 0 0 1146 976l-1.335 1.953c-1.633 2.42-3.123 4.927-4.645 7.418-3.268 4.253-6.45 6.42-11.77 7.129-5.182-.338-9.903-1.615-14.25-4.5-4.446-5.361-5.852-11.5-5.469-18.363 1.065-5.989 4.605-10.424 8.063-15.285l1.383-1.984q1.374-1.96 2.808-3.877c2.385-3.378 3.235-4.869 3.098-9.132-.749-2.848-1.502-5.674-2.383-8.484-9.211-32.845-1.732-72.903 13.5-102.875h2l.23-2.035c1.014-3.903 2.947-7.03 5.083-10.403l1.335-2.119c12.675-19.59 30.17-34.849 49.671-47.362a317 317 0 0 0 4.158-2.73c7.862-5.028 16.555-8.551 25.085-12.28a799 799 0 0 0 9.36-4.203c3.92-1.637 7.993-2.726 12.078-3.868l3.094-.9c30.722-8.915 62.284-14.917 94.205-17.27"/><path fill="#c95923" d="M968.87 898.705q3.674-.018 7.346-.062c3.605-.042 7.21-.058 10.815-.069l3.293-.053c7.209.02 12.97.974 18.35 6.063 2.937 3.26 3.672 5.997 3.451 10.354-1.013 6.007-3.083 10.639-7.917 14.49-8.733 5.067-18.175 4.311-27.958 4.322q-2.793.03-5.586.07-5.439.075-10.878.124c-5.559.056-11.108.224-16.661.494l-2.494.12c-10.431.545-20.845 1.37-31.258 2.185-3.212.245-6.425.471-9.639.69-12.72.888-25.38 2.12-38.047 3.567l-2.236.254c-14.788 1.689-29.438 4.051-44.116 6.515-13.242 2.224-13.242 2.224-18.898 3.118-7.025 1.116-13.88 2.367-20.718 4.375-3.115.846-6.235 1.45-9.407 2.05-19.036 3.734-38.298 8.317-56.03 16.356-4.88 1.98-9.112 2.37-14.282 1.332-5.194-2.968-9.132-7.279-11-13-.7-6.206.122-10.978 4-16 8.656-7.533 20.217-10.106 30.937-13.437l1.958-.609c9.278-2.875 18.535-5.425 28.027-7.483 3.2-.725 6.373-1.552 9.551-2.369 9.464-2.429 18.907-4.4 28.527-6.102q2.01-.385 4.02-.777a357 357 0 0 1 23.425-3.762 346 346 0 0 0 9.617-1.398 1013 1013 0 0 1 81.813-9.25l2.99-.218c19.647-1.315 39.318-1.825 59.005-1.89"/><path fill="#b15c35" d="m1242 1018 1 2-3.098.244q-5.785.457-11.569.928-2.485.2-4.971.395c-8.822.694-17.523 1.531-26.26 2.974-5.61.83-11.258 1.19-16.915 1.584l-3.58.262q-4.303.313-8.607.613v2l-4 1v-2q-6.282.211-12.562.438l-3.58.119-3.487.127-3.19.11c-3.181.206-3.181.206-6.385.7-3.914.522-7.771.726-11.713.816l-2.347.061q-3.906.098-7.81.18l-2.792.063c-25.952.573-51.908.574-77.865.571q-7.106.002-14.213.02c-29.201.074-58.26-.161-87.408-1.999-7.364-.416-14.728-.51-22.103-.467-2.3.012-4.598 0-6.897-.012q-2.25 0-4.5.007l-3.9.007c-3.027.241-4.716.656-7.248 2.259l-2-2v-2l-18-1v-2q4.344-.04 8.688-.062l2.416-.026c4.56-.018 9.054.147 13.6.53 10.1.836 20.232 1.15 30.359 1.558q4.588.187 9.178.377 2.83.117 5.66.23c4.442.182 8.881.376 13.32.64 14.433.834 28.843.935 43.299.956l5.967.013q8.346.018 16.692.023 9.454.005 18.907.042c52.694.216 105.182-1.41 157.686-6.21 3.02-.273 6.042-.535 9.063-.797 38.336-3.325 38.336-3.325 41.165-3.274"/><path fill="#be5d20" d="m1383 869 5 1v2h-4v4h-3q-.079 3.188-.125 6.375l-.07 3.586C1381 889 1381 889 1383 891l-1 2 5 1v3l2.625-.625c3.82-.424 5.775.401 9.375 1.625 4.07.347 8.092.303 12-1v4l-3 1c6.53 4.07 12.359 7.677 20 9v2l10-1-4-2h8l-2 1v2h12v2h-4v2h4v6h2l1-2 1 2c-.812 1.875-.812 1.875-2 4l-1.125 2.25L1452 931l-2.062-1.75c-2.51-1.923-5.008-3.511-7.766-5.043a586 586 0 0 1-8.485-4.832l-3.113-1.79C1428 916 1428 916 1426 914a131 131 0 0 0-6-2.375 512 512 0 0 1-14.2-5.54 168 168 0 0 0-6.695-2.42c-8.753-3.024-16.599-5.821-21.605-14.165-1.27-6.349-.431-10.746 2.5-16.5 1.688-2.437 1.688-2.437 3-4"/><path fill="#a85230" d="M522 1033h2l-1 7h-2l-.25 3.375c-.535 4.447-2.095 8.15-3.84 12.246-1.178 3.08-1.487 6.118-1.91 9.379-.887 2.725-1.927 5.34-3 8h-2l-4 17h-2l-.312 3.125C503 1097 503 1097 501.438 1100c-1.438 3-1.438 3-1.438 6.75v3.25l-3 2c-1 2.563-1 2.563-2 6-2.03 6.412-4.4 12.649-6.914 18.887-1.064 3.049-1.655 5.919-2.086 9.113h-2l.125 3.813c.114 3.478-.066 4.098-2.125 7.187h-1l-.312 2.938c-.82 5.747-2.463 11.224-5.688 16.062-.319 2.085-.319 2.085-.414 4.45l-.117 2.568-.094 2.67-.117 2.705q-.141 3.303-.258 6.607c-2.759-2.759-2.3-4.392-2.312-8.25.154-10.048 1.89-19.464 6.328-28.508 1.86-4.239 2.878-8.757 3.984-13.242h2l.324-2.496c.78-4.047 2.064-7.71 3.488-11.566 1.86-5.136 3.636-10.262 5.188-15.5 1.692-5.642 3.69-11.127 5.807-16.62a219 219 0 0 0 3.568-9.922c2.656-8.01 5.379-15.999 8.095-23.99q1.031-3.036 2.06-6.073 1.498-4.422 3.001-8.84l.92-2.722c1.657-4.86 3.456-9.582 5.549-14.271"/><path fill="#af5630" d="M1453 1244v2h-2v2l-2.012.184c-8.77.832-8.77.832-12.988 1.816v2c-3.013.574-5.74 1.012-8.812.875-4.102.16-10.148 1.085-13.188 4.125-2.347.397-4.703.744-7.062 1.063l-3.91.535-3.028.402-1 3-3.625-.125c-9.35.015-25.88.334-33.207 6.723L1361 1270l-3-1-1-2-2.016.383c-3.035.57-6.072 1.125-9.109 1.68l-3.172.603c-9.613 1.734-9.613 1.734-14.703.334v-1c.643-.105 1.286-.21 1.95-.32 11.56-1.9 23.106-3.83 34.612-6.035a345 345 0 0 1 9.188-1.582c5.564-.912 11.094-1.974 16.625-3.063l2.597-.504c3.418-.681 6.697-1.385 10.005-2.496 2.504-.828 4.798-1.38 7.378-1.867 4.525-.866 8.984-1.937 13.446-3.078l2.09-.533q4.307-1.1 8.61-2.214 3.179-.82 6.362-1.628l3.79-.977c2.92-.613 5.383-.854 8.347-.703"/><path fill="#ad4f21" d="M866 1024q4.344-.04 8.688-.062l2.416-.026c4.599-.018 9.132.152 13.716.533 9.442.78 18.903 1.106 28.367 1.493l6.203.257q6.5.27 13.001.534 8.152.334 16.306.676c25.763 1.076 51.523 2 77.303 2.595v1q-15.562.091-31.125.125l-2.33.005c-18.16.036-36.288.048-54.42-1.13a604 604 0 0 0-37.75-1.25l-2.444-.015a730 730 0 0 0-6.783 0l-3.9.006c-3.027.241-4.716.656-7.248 2.259l-2-2v-2l-18-1z"/><path fill="#bc5b33" d="M1350 998v4c-8.973 4.087-17.307 4.757-27 5v1l-1.758-.07c-6.294-.146-10.885.499-16.242 4.07-3.692 1.005-7.007 1.022-10.812.875-5.794-.052-11.07.737-16.732 1.91-5.647 1.14-11.287 1.838-17.018 2.403l-2.524.253c-4.66.438-9.234.64-13.914.559 2.734-2.734 5.51-2.693 9.191-3.148.365-.05.365-.05 2.208-.295q2.354-.313 4.709-.616c4.124-.531 8.244-1.092 12.365-1.648l2.488-.334c20.641-2.78 41.303-6.061 61.48-11.299 10.31-2.66 10.31-2.66 13.559-2.66"/><path fill="#b35d2d" d="m584 989 18 2c1.43 3.573 2.367 6.31 3 10h5v2h6v2l1.934.516 2.504.734 2.496.703C625 1008 625 1008 625.785 1010.11L626 1012l1.688-.07c5.488-.13 10.041.537 15.312 2.07v2l6 1c-3 2-3 2-5.738 1.766-9.26-2.174-18.137-5.51-26.715-9.582-2.506-1.165-5.033-2.188-7.61-3.184-13.944-5.511-13.944-5.511-16.937-10a89 89 0 0 0-5-2l-3-2z"/><path fill="#b75b32" d="m1259 770 10 1v2l-2.543.594c-35.196 8.751-69.76 26.476-91.457 56.406l-2-1 7-9-2-2 3-1a283 283 0 0 0 5-5l2-1-1-2 5.176-2.148c3.65-1.705 5.253-3.228 6.824-6.852h3v-2h4v-2q1.934-1.007 3.875-2l2.18-1.125C1214 792 1214 792 1216 792v-2q2.685-1.256 5.375-2.5l3.023-1.406C1227 785 1227 785 1229 785l1-3 3.25-.375c3.133-.522 5.136-.916 7.75-2.625l1-2c3.402-1.164 6.816-2.164 10.273-3.145 1.925-.566 3.828-1.206 5.727-1.855z"/><path fill="#ba6f46" d="M1090 850h2c-.935 2.466-1.867 3.886-3.875 5.615-4.753 2.106-9.291 1.777-14.433 1.726h-3.46c-3.772-.001-7.543-.025-11.314-.048q-3.924-.009-7.848-.013c-6.18-.01-12.36-.034-18.54-.064a8027 8027 0 0 0-21.112-.065c-14.473-.031-28.945-.084-43.418-.151v-2l1.758-.01q21.21-.122 42.419-.278 10.256-.076 20.513-.134 9.902-.055 19.802-.136 3.775-.029 7.55-.045c3.528-.017 7.057-.046 10.585-.078l3.143-.007c5.747-.066 10.716-.669 16.23-2.312z"/><path fill="#c36331" d="m509 1243 3.688-.125 2.074-.07c2.238.195 2.238.195 4.656 1.238 3.853 1.428 7.076.57 11.059-.047 2.523.004 2.523.004 4.386 1.352L536 1247a70 70 0 0 1-1 4l2 3 1 3c1.746.629 1.746.629 4 1l2.473.465q2.592.473 5.187.937C552 1260 552 1260 555 1262c1.188 2.625 1.188 2.625 2 5l-10-3v-2l-3.5-.5c-4.948-1.087-9.245-3.125-13.75-5.375l-2.076-1.03c-3.943-2.019-7.242-4.267-10.674-7.095a68 68 0 0 0-4.312-2.25l-2.114-1.016L509 1244z"/><path fill="#ae5b2e" d="m1383 869 5 1v2h-4v4h-3q-.079 3.188-.125 6.375l-.07 3.586C1381 889 1381 889 1383 891l-1 2 5 1v3l2.625-.625c3.82-.424 5.775.401 9.375 1.625 4.07.347 8.092.303 12-1v4l-3 1q2.874 1.69 5.75 3.375l3.234 1.898c2.313 1.325 4.616 2.573 7.016 3.727v2c-3.819-1.232-7.506-2.594-11.187-4.187a166 166 0 0 0-11.536-4.45c-18.716-6.428-18.716-6.428-23.777-14.863-1.27-6.349-.431-10.746 2.5-16.5 1.688-2.437 1.688-2.437 3-4"/><path fill="#b15830" d="M835 833v1l-2.598.148c-6.122.4-11.505 1.137-17.402 2.852-5.757.75-11.45 1.05-17.25.875-8.205-.108-16.977 1.534-24.75 4.125-2.333.04-4.667.044-7 0v2l-2.812.438C760 845 760 845 757 846a80 80 0 0 1-5.562-.312c-.971-.08-1.942-.158-2.942-.239C746 845 746 845 744 843a9563 9563 0 0 1 35.461-5.65c5.036-.793 10.07-1.597 15.1-2.425 13.745-2.25 26.56-3.498 40.439-1.925"/><path fill="#b65f39" d="m750 1305 14 1v3l3.805-.035c17.291-.112 17.291-.112 25.195 1.035l1 1c6.459 1.83 12.186 2.137 18.887 1.875 3.37.135 5.978.922 9.113 2.125v1c-15.474-.5-30.792-1.85-46.18-3.53-3.803-.412-7.607-.812-11.412-1.21l-7.31-.787c-.564-.06-.564-.06-3.419-.357-5.13-.57-9.851-1.163-14.679-3.116v-1c7.429-.143 7.429-.143 11 1z"/><path fill="#ac4a1f" d="M1121 871h2c.223 1.915.428 3.832.625 5.75l.352 3.234c.023 3.016.023 3.016-.961 4.808-1.355 2.945-1.258 5.313-1.246 8.548l.005 3.72.037 3.878.002 3.865c.025 5.228.103 10.076 1.186 15.197a195 195 0 0 1 0 7h2c2.98 14.952 2.98 14.952.625 19.875L1124 949h-2v4l-4-1 1.348-1.723c4.634-6.324 4.634-6.324 4.715-10.652q-.886-3.026-1.786-6.047c-3.47-12.068-3.458-24.21-3.465-36.703l-.037-3.879c-.011-7.56.537-14.62 2.225-21.996"/><path fill="#b05a34" d="m747 1042 2.203.188c5.264.445 10.527.87 15.797 1.242 20.688 1.507 20.688 1.507 30 4.57v2c.724-.095 1.449-.19 2.195-.29 5.646-.646 9.425-.698 14.805 1.29 3.008.174 5.99.12 9 0v-1h13v5c-19.938-1.45-39.728-3.877-59.518-6.66q-2.847-.402-5.695-.796a1866 1866 0 0 1-8.06-1.142l-2.447-.337c-4.027-.59-7.554-1.326-11.28-3.065z"/><path fill="#a8532b" d="M767.33 1274.614c23.051 2.945 46.171 5.071 69.351 6.74 5.469.398 10.885.909 16.319 1.646v1c-11.05.227-21.985-.456-33-1.25l-2.794-.198c-15.169-1.087-30.097-2.86-45.138-5.113-11.264-1.612-22.676-2.91-34.068-2.439l-1-2c8.942-2.98 21.126.432 30.33 1.614M736 1275l2 1Z"/><path fill="#b7613b" d="M707 852c-1 2-1 2-3.187 3.063C701 856 701 856 697.938 856.5c-3.775.642-6.139 1.938-9.25 4.125-3.395 1.737-5.92 1.515-9.688 1.375l-3 1h-5c-2.358.382-4.643.907-6.953 1.512l-2.11.55-1.972.536C658 866 658 866 654 866v2c-3.674 1.176-7.17 1.074-11 1 3.362-2.241 6.686-3.363 10.5-4.562l2.405-.757c8.266-2.53 16.614-4.755 24.977-6.938q2.357-.615 4.713-1.239c2.242-.591 4.487-1.17 6.733-1.746l2.028-.54c4.297-1.081 8.222-1.379 12.644-1.218"/><path fill="#af562b" d="M1148 807c1.46 2.647 2 3.894 2 7l-5 2v2h-2v3l1 1v2l-2.375.438C1139 826 1139 826 1138.328 827.96q-.459 2.383-.867 4.773c-.586 2.88-1.668 4.95-3.461 7.266h-2l.125 3.188c-.164 5.007-1.857 8.437-4.125 12.812h-2l.25 2.688c-.302 4.002-1.547 5.44-4.25 8.312 1.502-13.637 7.354-26.62 13-39h2l.184-1.98c1.161-4.297 3.469-7.624 5.879-11.332l1.431-2.245A1044 1044 0 0 1 1148 807"/><path fill="#bd5e30" d="M1208 761c-1.062 2.375-1.062 2.375-3 5-3.562 1.188-3.562 1.188-7 2l-2 2a257 257 0 0 1-7 2 152 152 0 0 0-5 2v2h-2v2l-3 1-1 2h-3v2c-1.812 2.125-1.812 2.125-4 4h-3l-.937 1.875L1165 793h-2v2l-3 2a100 100 0 0 0-3 6l-4-2c11.219-12.537 11.219-12.537 16.367-16.621C1171 783 1171 783 1173.29 780.64c2.878-2.804 5.932-5.153 9.211-7.453l1.834-1.29c1.88-1.312 3.77-2.608 5.666-3.898l1.836-1.253a306 306 0 0 1 5.226-3.434l3.098-2.012c3.203-1.467 4.55-1.394 7.84-.301"/><path fill="#ad5832" d="m922 902-1 2-3.594-.07c-9.226-.124-18.025.214-27.165 1.547-4.157.555-8.288.757-12.475.925-10.945.527-21.723 2.06-32.564 3.592-2.539.356-5.08.701-7.62 1.045l-2.304.338c-4.69.63-8.623.503-13.278-.377v-1c83.633-10.086 83.633-10.086 100-8"/><path fill="#a84f2e" d="M1368 744h1c.432 24.959.84 49.401-4 74-.17.87-.342 1.739-.518 2.635A210 210 0 0 1 1361 835l-.532 1.938c-2.15 7.737-2.15 7.737-3.468 11.062l-2 1c.554-5.092 1.77-9.671 3.3-14.555.901-3.148 1.347-6.194 1.7-9.445h2l.148-2.676c.415-6.647 1.009-13.102 2.352-19.629 1.355-7.304 1.752-14.567 2.035-21.976l.13-3.194q.203-5.012.398-10.025l.275-6.828q.336-8.336.662-16.672"/><path fill="#ab5530" d="M1252 1281c-4.46.827-8.82 1.23-13.348 1.465l-4.275.236q-3.313.178-6.627.349c-7.175.372-14.23.777-21.32 2.009-7.424 1.242-14.74 1.162-22.243 1.066q-2.079-.016-4.158-.027-5.014-.035-10.029-.098c2.673-2.673 4.179-2.356 7.922-2.562l3.756-.223 4.072-.215q2.083-.12 4.166-.244 4.341-.255 8.684-.502c6.969-.398 13.934-.857 20.9-1.316 1.25-.08 2.5-.16 3.788-.24 25.735-1.683 25.735-1.683 28.712.302"/><path fill="#b46039" d="m1262 741-11 3 1 2-10 1 1 2-2.3.184-3.013.254c-.986.08-1.972.162-2.988.246C1232 750 1232 750 1229 751l-2 3c-5.01 3.476-9.795 5.38-16 5l-2-2a3191 3191 0 0 1 11.875-5.312l3.36-1.514c6.504-2.89 12.91-5.282 19.765-7.174q1.951-.61 3.898-1.238c1.148-.355 2.295-.71 3.477-1.074l3.523-1.114C1258 739 1258 739 1262 741"/><path fill="#b55b33" d="M662.012 1258.172q2 .387 3.988.828l2.362.482q2.71.558 5.42 1.13c16.96 3.568 34.06 5.997 51.218 8.388v1c-9.029.209-17.593.033-26.523-1.562C696 1268 696 1268 694 1268v-2l-1.658-.136c-12.255-1.028-24.273-2.491-36.342-4.864 1.872-2.753 2.629-3.021 6.012-2.828"/><path fill="#b46135" d="m965.25 821.875 2.126-.008c8.256-.024 16.414.183 24.624 1.133v1l-2.523.076q-4.638.143-9.275.296-2.993.096-5.985.185l-3.799.127-3.507.11C964 825 964 825 961 826a199 199 0 0 1-8.168-.121l-2.408-.072q-3.807-.116-7.611-.245l-5.163-.158q-6.325-.195-12.65-.404v-2c13.419-.758 26.812-1.108 40.25-1.125"/><path fill="#b05b2b" d="m1111 965 4 2-1 3-1-2h-2c.354 8.292.354 8.292 2.938 11.125L1116 981c1.25 3.75 1.25 3.75 2 7h4v-2l9 1-3 2 5-1v-2h4v-2h2c-.232 3.249-1.063 4.056-3.562 6.25-5.863 2.985-10.558 2.268-16.626.375-4.947-2.173-6.972-4.893-9.042-9.816-1.255-4.58-1.544-9.116-.77-13.809z"/><path fill="#be6943" d="M590 1272a101 101 0 0 1 6 2l1 2-4 1c5.75 1 5.75 1 8 1v2h5v2l17-1v2l3-1v2l2.813-.187c3.187.187 3.187.187 5.062 1.687L635 1287l-1 2c-6.723-.666-13.087-2.137-19.625-3.812l-3.197-.81c-7.77-1.98-15.496-4.079-23.178-6.378l3-1z"/><path fill="#b35a33" d="m1326 727 2 2c-2.87.785-5.629 1.228-8.59 1.5l-2.627.25-2.72.25c-10.753.992-10.753.992-15.063 2v1l-2.125.113c-4.712.327-8.921.694-13.312 2.512-3.59 1.385-4.174 1.492-7.563.375l-1 3q-2.22-.173-4.437-.375c-.824-.07-1.648-.14-2.497-.21L1266 739l-1-2c13.273-3.142 26.59-5.706 40.063-7.812l2.118-.336q3.02-.474 6.042-.934l3.523-.538c3.148-.368 6.09-.594 9.254-.38"/><path fill="#b36340" d="M858 1316h19v2l3.82.148c13.106.548 26.128 1.554 39.18 2.852v1c-14.702.308-29.329-.64-44-1.5l-7.586-.434q-9.207-.525-18.414-1.066v-1l8-1z"/><path fill="#b4542c" d="m556 929 1 2 3 1-1 2h-1l-.586 2.414c-2.223 9.047-2.223 9.047-3.476 12.586-1.24 3.967-1.787 7.973-2.43 12.074-.594 3.42-1.457 6.622-2.508 9.926h-2l-2 5h-2c1.457-8.665 4.14-16.7 7.043-24.973 2.494-7.251 4.36-14.528 5.957-22.027"/><path fill="#a9542d" d="M916 858v1c-9.165 1.465-18.208 2.396-27.478 2.892-3.485.186-6.968.393-10.452.6l-2.088.124c-7.101.433-14.18 1.065-21.257 1.775-8.904.88-8.904.88-12.725.609l-2-2c3.332-.963 6.53-1.257 9.987-1.48l3.663-.243 3.952-.25 4.08-.264q4.28-.277 8.56-.547 5.446-.346 10.893-.703 4.218-.275 8.437-.543 2.972-.19 5.945-.386c6.839-.428 13.63-.704 20.483-.584"/><path fill="#ba663c" d="M887 826c-2 3-2 3-3.795 3.494l-2.174.162-2.437.196a847 847 0 0 1-15.836.753c-.43.02-.43.02-2.602.114l-2.35.092C856 831 856 831 855 832a143 143 0 0 1-6.441.098l-3.955-.01-4.167-.025-4.177-.014q-5.13-.018-10.26-.049v-1q10.86-1.077 21.722-2.136 3.692-.362 7.382-.728 5.321-.526 10.642-1.042l3.306-.332c6.017-.579 11.903-.873 17.948-.762"/><path fill="#9e5029" d="m1204 853 1 3h-2v2l-2.125 1.688c-3.438 2.765-6.092 5.908-8.875 9.312h2v2l-3 1-2 2v-2h-2v2h-2v3h-2l.125 2.75c-.12 3.128-.516 4.636-2.125 7.25l-1-1-1 2h-2v-2h-2v2h-2c.582-3.115 1.424-4.817 3.598-7.11l1.657-1.765 1.807-1.875 1.855-1.955c7.22-7.57 14.64-14.946 22.083-22.295"/><path fill="#b4613b" d="M1452 955c0 3.15-.279 4.418-2 7l-4 1c-1.062 1.875-1.062 1.875-2 4-2.383 3.008-4.462 3.558-8.187 4.188l-2.731.48L1431 972l-1 4-1.836.297c-5.704 1.018-10.672 2.57-15.937 4.996-2.528.803-3.765.59-6.227-.293l2.613-.96a209 209 0 0 0 22.324-10.04l2.363-1.22c6.927-3.682 13.352-7.986 18.7-13.78"/><path fill="#bc6028" d="M591 985c5.778-.12 11.28.168 17 1v4l2 1a1183 1183 0 0 1-9.062.125l-2.569.05c-5.203.041-9.444-.478-14.369-2.175l-1 2-4-4c2-1 2-1 4.313-.5 2.905.54 4.85.23 7.687-.5z"/><path fill="#b15c31" d="M972.5 898.938q3.738.008 7.477.013 9.01.017 18.023.049v1l-2.918.076q-5.4.144-10.797.296-2.328.065-4.658.125-3.362.089-6.725.187l-2.078.05c-4.341.131-8.53.64-12.824 1.266q-2.719.127-5.441.133l-3 .006-3.121-.014-3.211-.006c-7.781-.043-15.48-.355-23.227-1.119v-1c17.51-.908 34.97-1.125 52.5-1.062"/><path fill="#a95630" d="M696 944v2l-3 1 1 2-1.875.125C690 950 690 950 688.688 952.5c-.86 4.377-.865 8.18.312 12.5 2.063 2.438 2.063 2.438 4 4v2c7.192 1.079 13.782.794 21 0-3.493 3.493-7.474 4.345-12.312 4.563-5.52-.097-8.283-1.74-12.094-5.637-3.616-4.37-5.182-8.07-4.95-13.836.815-4.79 3.007-8.741 6.418-12.153C693 943 693 943 696 944"/><path fill="#a8532e" d="M643 870c-.5 1.938-.5 1.938-2 4-2.697.688-5.202.82-8 1v1l-2.125.516C616.92 880.08 616.92 880.08 612 885c-2.655.565-5.291.738-8 1v2l-8 1c6.56-5.467 15.042-8.343 22.875-11.5l2.816-1.145q2.779-1.127 5.562-2.242a306 306 0 0 0 5.564-2.32l2.69-1.137 2.404-1.037C640 869 640 869 643 870"/><path fill="#9e4824" d="M1524 1133c2 2 2 2 2 5l4 1 .297 2.02c1.008 6.214 2.569 11.818 4.898 17.668.805 2.312.805 2.312.805 5.312h2c4.592 15.745 4.592 15.745 4 23h-1l-.629-2.867c-2.112-9.213-5.03-17.81-8.555-26.57-1.861-4.629-3.583-9.3-5.254-14l-.784-2.17c-1.036-2.933-1.778-5.258-1.778-8.393"/><path fill="#bb633a" d="M611 1006c5.99-.315 9.636.318 15 3v3l1.688-.07c5.488-.13 10.041.537 15.312 2.07v2l6 1c-3 2-3 2-5.738 1.766-11-2.582-22.814-6.468-32.262-12.766"/><path fill="#cc5c28" d="M1271 1306h9v2l3-1c1.408-.08 2.82-.108 4.23-.098l2.432.01 2.525.025 2.561.014q3.126.02 6.252.049v1l-22 2v2l-24 2 1-2c2.063-.391 4.094-.507 6.188-.656L1264 1311l1-2h5z"/><path fill="#c0511d" d="m570 907 2 1v2h2v2h-4c-1.784 3.062-2.229 5.22-2.125 8.75l.055 2.422L568 925l-2.312-.687L563 924c-1.687 1.438-1.687 1.438-3 3h-2c.484-5.165 3.185-8.808 6-13l2-3h2z"/><path fill="#b3572d" d="m1424 1280 3 2 2-2c2.602.023 2.602.023 5.625.375l3.04.336 2.335.289-1 3c-2.13.784-2.13.784-4.918 1.352l-3.053.64-3.216.633-3.159.656A792 792 0 0 1 1416 1289l-3.613.773-2.387.227-2-2q1.935-.543 3.875-1.062l2.18-.598c1.945-.34 1.945-.34 3.945.66v-2l6-2z"/><path fill="#ab542c" d="M1253 1050c-3.431 2.036-6.464 2.437-10.41 2.816l-3.748.377-3.905.37q-3.83.372-7.66.753l-3.43.327C1221 1055 1221 1055 1218 1056c-2.063.217-4.13.39-6.2.535l-3.661.264-3.826.264-3.862.275q-4.725.336-9.451.662c6.026-6.026 19.71-4.896 27.938-5.562l6.769-.57q2.177-.183 4.354-.363c4.656-.387 9.304-.825 13.949-1.33 3.007-.264 5.973-.24 8.99-.175"/><path fill="#bd643e" d="m1280 905 2 3a91 91 0 0 1-4 4h-2v2l-4 1v2l-3.625 1.313c-3.587 1.34-6.981 2.905-10.375 4.687v-3l-2-1 2.71-1.285c7.588-3.66 14.55-7.605 21.29-12.715"/><path fill="#b56238" d="M838 865v1c-12.026 1.7-24.06 3.286-36.125 4.688-1.12.13-2.239.262-3.392.397l-3.178.364-2.813.323C790 872 790 872 786 872v-2l10-1v-2l1.89-.06c21.905-.73 21.905-.73 32.368-2.635 2.847-.317 4.984-.022 7.742.695"/><path fill="#aa512d" d="M1171 831h2c-1.436 4.779-3.496 9.042-5.812 13.438-6.66 13.057-10.017 26.139-12.188 40.562h-1c-.212-7.067-.022-13.237 2-20q.824-3.248 1.625-6.5L1159 853h2l.742-3.004c1.23-4.303 3.218-8.036 5.383-11.933l1.129-2.073A932 932 0 0 1 1171 831"/><path fill="#af5a31" d="M787 1014a5667 5667 0 0 1 13.292 1.332c3.529.36 7.056.732 10.583 1.106l3.664.369 3.516.377 3.171.33C824 1018 824 1018 828 1020h-24l1 3-6-1 1-3-2.59-.586-3.347-.789-3.34-.773L788 1016z"/><path fill="#b0623f" d="M1294 1011v1l-3.953.586-5.297.789-2.792.414c-4.712.703-9.4 1.46-14.083 2.336-7.88 1.363-15.899 1.538-23.875 1.875 2.86-2.86 6.04-2.768 9.895-3.254l2.376-.32c2.513-.338 5.027-.663 7.542-.989a5245 5245 0 0 0 7.508-.998q2.337-.312 4.675-.615c2.954-.387 5.87-.795 8.784-1.421 3.195-.58 6.05.037 9.22.597"/><path fill="#c55a26" d="m782 918 1 3-6 3v2h-5v2l-4-1h3v-2l-3.25.625c-3.626.363-4.833.359-7.75-1.625l5-1v-2c5.6-1.75 11.088-3 17-3"/><path fill="#ac5932" d="M541 979h2c-.48 4.714-.968 8.666-3 13h-2l.188 3.125c-.2 4.11-1.133 6.364-3.188 9.875h-2v7l-3 1c.648-7.253 2.704-13.071 5.625-19.687 1.175-2.832 1.918-5.298 2.375-8.313h2z"/><path fill="#b75b2f" d="M737.178 1005.417a714 714 0 0 1 9.577 2.061c7.376 1.613 14.744 2.67 22.245 3.522l-1 2q-3.375.079-6.75.125l-3.797.07c-3.259-.184-4.736-.55-7.453-2.195-9.86-3.155-19.685-4.386-30-5 5.193-3.462 11.245-1.718 17.178-.583"/><path fill="#bb653c" d="M705 1033c6.393-.28 11.786.684 17.938 2.375l2.61.672c4.703 1.26 4.703 1.26 6.452 1.953l1 2c-6.164.197-11.164.144-17-2-3.986-.761-7.989-1.39-12-2z"/><path fill="#b05a31" d="m1550.688 1231.75 2.312.25c-4.11 4.471-8.682 7.683-13.75 11l-2.305 1.54c-14.312 9.46-14.312 9.46-17.945 9.46l1-5 4 1v-2l5-1 1-3c2.75-1.062 2.75-1.062 6-2a306 306 0 0 0 5-2v-2l1.813-.75c2.187-1.25 2.187-1.25 3.624-3.375 1.563-1.875 1.563-1.875 4.25-2.125"/><path fill="#b75624" d="M1405 1011h3l-1 5 2.047-.91 2.703-1.153 2.672-1.16c2.73-.823 3.947-.754 6.578.223-4.57 2.593-9.105 3.926-14.18 5.246-9.598 2.566-9.598 2.566-13.902 4.867-2.598 1.201-4.222.636-6.918-.113l4-1v-2l2.152-.367 2.785-.508 2.778-.492L1400 1018l1-2h2z"/><path fill="#b25a2d" d="M832 944v1q-6.16 1.045-12.323 2.081-2.09.352-4.18.707c-4.496.763-8.994 1.496-13.497 2.212l-2.84.489c-5.574.84-5.574.84-8.722-.927-.475-.515-.95-1.03-1.438-1.562l2.176-.113c6.916-.44 13.621-1.292 20.449-2.45 6.846-1.152 13.413-1.86 20.375-1.437"/><path fill="#c76232" d="M1232 963c-10.825 1.17-21.453.931-32.312.563l-5.17-.159A3922 3922 0 0 1 1182 963v-1c8.96-.652 17.82-1.057 26.809-.965 2.924-.032 5.727-.252 8.629-.597 5.452-.628 9.89-.553 14.562 2.562"/><path fill="#a4522a" d="M608 915h2l1 2 1-1a100 100 0 0 1 5 0c-2.246 2.469-4.491 3.95-7.437 5.5-2.405 1.27-4.562 2.5-6.723 4.156C601 927 601 927 599 927v2c-4.302 4.767-4.302 4.767-8 6l-2 10h-1c-.652-3.023-1.124-5.901-1-9 2.125-2.25 2.125-2.25 5-4l2.5-2.5c2.386-2.386 4.774-4.511 7.5-6.5h2v-2l4-2z"/><path fill="#a86f41" d="M1428 915c6.13-.522 10.757.723 16 4 2.313 2.128 4.326 4.335 6 7v2c-4.425-1.187-7.465-2.92-11.055-5.625-3.459-2.445-7.211-4.385-10.945-6.375z"/><path fill="#b3623a" d="M873 939v1l-2.523.26q-4.638.48-9.275.967-2.993.312-5.985.619l-3.799.4-3.507.365C845 943 845 943 842 944a99 99 0 0 1-5.187.063l-2.731-.028L832 944c4.719-3.742 8.747-4.242 14.625-4.562l2.246-.13c8.043-.42 16.078-.399 24.129-.308"/><path fill="#b75a2f" d="M1510 1219h1c.408 3.569.196 4.737-2 7.688l-2 2.312v2l-6-2 2-2-3-1v3c-2.875.625-2.875.625-6 1l-2-2 1.545-.719q3.447-1.606 6.892-3.218l2.432-1.131 2.315-1.084 2.142-1C1509 1220 1509 1220 1510 1219"/><path fill="#a1522a" d="m1309 870 1 2-1 2h2v3h-2l-1 2-2 3h-2v3h-2l-2 5h-2l-1 5-4 1c.585-4.044 2.7-6.465 5.188-9.625 4.047-5.224 7.566-10.62 10.812-16.375"/><path fill="#a74d28" d="M1354 850h1c-1.21 10.911-6.313 20.869-11.125 30.625l-.983 2.008c-1.934 3.83-4.09 7.118-6.892 10.367.604-3.85 1.768-6.861 3.563-10.312l1.378-2.676L1342 878h2v-5h2l.25-2.5c.768-3.585 1.998-6.129 3.695-9.332 1.745-3.586 2.892-7.361 4.055-11.168"/><path fill="#a75730" d="m1238 825 1 3-2.875 1.813C1233 832 1233 832 1231 835q-2.491 1.021-5 2a101 101 0 0 0-3 3h-2v2c-1.74 1.56-3.543 3.05-5.375 4.5-5.511 4.386-5.511 4.386-7.625 6.5l-3-1 4.2-3.418c1.429-1.256 2.787-2.592 4.116-3.953 2.812-2.755 5.794-5.146 8.934-7.504l3.434-2.61 1.694-1.283a708 708 0 0 0 6.935-5.357l2.175-1.695z"/><path fill="#edd7bf" d="M1335 761c.375 10.447-.787 20.645-2 31h-1c-.15-9.716.304-19.316 1-29l-3.727.438-4.898.562c-.808.095-1.616.19-2.45.29-4.335.493-8.552.823-12.925.71v-1q4.53-.76 9.063-1.5l2.568-.434c4.862-.788 9.444-1.226 14.369-1.066"/><path fill="#ab5120" d="m1372.125 1295.938 2.758.027 2.117.035c-4.668 3.112-9.908 3.392-15.385 4.287-2.016.332-4.03.682-6.043 1.033-7.936 1.321-15.529 2.003-23.572 1.68v-1l1.896-.26q4.24-.584 8.479-1.178l2.984-.408 2.852-.4 2.634-.365C1353 1299 1353 1299 1355 1298c2.559-.311 5.119-.51 7.688-.719 3.414-.415 5.845-1.39 9.437-1.343"/><path fill="#c9662c" d="M613 991v3h-3l-1 5 3 1-2 3v-2h-5c-1.422-3.317-2.39-6.442-3-10a491 491 0 0 1 4.375-.562l2.46-.317C611 990 611 990 613 991"/><path fill="#c66330" d="M1447 1001c-5.04 3.497-10.153 6.067-15.812 8.375l-1.995.833c-4.828 1.914-4.828 1.914-8.193.792l4-1v-2c16.447-9.776 16.447-9.776 22-7"/><path fill="#b3572d" d="M1333 801h1c.249 1.935.474 3.873.688 5.813l.386 3.269C1335 813 1335 813 1333.52 814.637L1332 816v4h2l-1 4-3-1-1 3h-2l-1 3 .402-1.98c.747-3.773 1.454-7.552 2.16-11.332l.42-2.245L1330 808l2 1z"/><path fill="#be592e" d="m1234 749-2.375.813C1229 751 1229 751 1227 754c-5.01 3.476-9.795 5.38-16 5l-2-2c3.409-1.54 6.828-3.053 10.25-4.562l2.934-1.327 2.832-1.24 2.602-1.158c2.609-.78 3.859-.635 6.382.287"/><path fill="#a8522c" d="M1238 780h2v2l-1.953.915q-4.464 2.099-8.922 4.21l-3.07 1.438c-5.946 2.82-11.573 5.848-17.098 9.429L1207 799l-2-1c1.27-2.538 2.416-2.894 4.938-4.125l2.152-1.07C1214 792 1214 792 1216 792v-2q2.685-1.256 5.375-2.5l3.023-1.406C1227 785 1227 785 1229 785l1-3 3.438-.437C1237 781 1237 781 1238 780"/><path fill="#b1613e" d="M1121 871h2a305 305 0 0 1 .688 5.75l.386 3.234c-.074 3.016-.074 3.016-1.547 4.838-1.965 2.802-1.952 4.637-2.039 8.037l-.107 3.38-.069 3.511-.103 3.559q-.123 4.345-.209 8.691h-1q-.074-6.107-.11-12.213-.015-2.07-.04-4.14c-.105-8.455.223-16.395 2.15-24.647"/><path fill="#f8f2e2" d="m1209 797 2 1c-1.183 3.548-1.772 3.647-4.937 5.313-3.237 1.898-3.945 2.427-5.563 6L1200 812l-3-1-1 2-5-1c3.185-4.464 6.794-7.255 11.25-10.312l1.969-1.377q2.384-1.664 4.781-3.311"/><path fill="#c75828" d="M1529 1049c2 1 2 1 2.87 3.041l.857 2.65.937 2.862.961 3.01.984 3.021A1468 1468 0 0 1 1538 1071c-2.39-.297-2.39-.297-5-1-3.563-6.618-3.673-13.6-4-21"/><path fill="#c05c2c" d="m760 952 9 2-3 1v2q-4.152 1.084-8.312 2.125l-2.381.629-2.295.566-2.11.54C749 961 749 961 746 959c3.404-2.27 5.982-2.67 9.941-3.34C758 955 758 955 760 952"/><path fill="#c76333" d="m903 824.688 2.445-.05c5.937-.004 5.937-.004 9.117 1.882L916 828c-9.66 1.267-19.277 1.09-29 1 5.659-3.773 9.306-4.34 16-4.312"/><path fill="#b56239" d="M1288 1045c-5.033 2.949-9.377 3.68-15.062 4.188l-2.393.248c-3.861.385-7.66.666-11.545.564l-1-2c4.984-1.593 9.422-2.312 14.688-2.562 14.458-.713 14.458-.713 15.312-.438"/><path fill="#ba602e" d="m760 873 1 1c1.52.072 3.042.084 4.563.063l2.503-.028L770 874v1c-2.54.534-5.08 1.052-7.625 1.563l-2.16.458c-4.432.875-7.734.865-12.215-.021-1.962.08-3.923.223-5.875.438l-2.93.308L737 878l1.938-.937C741 876 741 876 742 875a155 155 0 0 1 6.25-1.062l3.453-.536c2.825-.344 5.459-.563 8.297-.402"/><path fill="#b5603a" d="m607 1246 3.84.867c5.226 1.162 10.471 2.218 15.722 3.258l2.768.55q3.335.664 6.67 1.325v2h7c-3 2-3 2-5.687 1.625L635 1255v-2l-2.5.625c-4.409.472-7.27-.335-11.5-1.625l-1-1c-2.81-.203-5.618-.32-8.434-.426L609 1250c-1.16-2.036-1.16-2.036-2-4"/><path fill="#a54f27" d="M474 1196c2.354 2.55 2.983 3.71 3.188 7.25L477 1206h2l.875 2.25c1.125 2.75 1.125 2.75 2.25 4.938C483 1215 483 1215 483 1217h2l1.375 2.938C488 1223 488 1223 490 1224v2h2l-1 3c-8.21-8.627-16.429-18.67-17.187-31.062z"/><path fill="#a14923" d="M588 992h12c2 4 2 4 2 7-6.49-.336-9.388-1.388-14-6z"/><path fill="#c76132" d="M719 960h2l1 2 3 2 1 1 1-4c3 1 3 1 6 3l-5 1v2a665 665 0 0 1-4.312 1.5l-2.426.844C719 970 719 970 716 970v-4h4z"/><path fill="#ad5c3c" d="m1172 781 1 3-2 3h-3l-.937 1.875L1165 793h-2v2l-3 2a100 100 0 0 0-3 6l-4-2c5.728-6.402 11.364-12.518 18-18z"/><path fill="#ac532c" d="m910 1057 1.766.898c2.723 1.343 4.965 1.511 7.984 1.727l2.984.227L925 1060v1a318 318 0 0 1-42-2v-1l2.263.016q5.055.029 10.112.046l3.563.026 3.398.01 3.142.016C908 1058 908 1058 910 1057"/><path fill="#c16f4a" d="M821 1050h13v5c-10.698-.73-21.342-1.84-32-3v-1h19z"/><path fill="#a34821" d="M1485 1024h2l.48 1.766c1.726 6.063 3.932 11.729 6.532 17.472 1.001 2.798 1.186 4.819.988 7.762h2v6c-2.54-2.54-3.174-4.83-4.383-8.215l-.664-1.853a973 973 0 0 1-1.376-3.881q-1.052-2.969-2.12-5.932l-1.34-3.771-1.23-3.469C1485 1027 1485 1027 1485 1024"/><path fill="#b65c28" d="M509 1243c5.084-.172 8.295.019 13 2 3.313.125 3.313.125 6 0l-2 3h-2v2c-4.33.371-6.435-.594-10-3l-2.812-1.625L509 1244z"/><path fill="#b65b33" d="M1296 931h7c-3.665 4.138-8.12 6.825-12.75 9.75l-2.402 1.535A1505 1505 0 0 1 1282 946l-2-2h2v-2l3-1v-2l9-3v-2l2-1z"/><path fill="#f4e5cf" d="m1217 887 1 3c-3.074 4.782-3.074 4.782-6.125 5.5l-1.875.5c-1.25 2.563-1.25 2.563-2 5h-2l1 3c-2.812 2.063-2.812 2.063-6 4l-3-1 1.285-1.25c3.877-3.817 7.519-7.762 11.07-11.883 2.116-2.402 4.347-4.64 6.645-6.867"/><path fill="#b25429" d="M704 1301c10.218-.425 19.081.666 29 3-3.817 2.63-7.35 1.902-11.687 1.25l-2.153-.296c-5.12-.73-10.14-1.699-15.16-2.954z"/><path fill="#b2603d" d="M1324 1270v2c-3.978 2.634-8.263 2.483-12.875 2.688l-2.395.142c-4.405.224-8.384.1-12.73-.83v-1c3.54-.507 7.083-1.004 10.625-1.5l3.027-.434c4.817-.67 9.47-1.266 14.348-1.066"/><path fill="#c56139" d="M1516 1009c2.41 3.616 3.719 7.245 5.188 11.313l.865 2.263c1.638 4.54 2.27 7.615.947 12.424-2.354-2.55-2.983-3.71-3.187-7.25l.187-2.75h-2v-10h-3z"/><path fill="#c45722" d="m1458 947 2 3-2 4h-2l.25 2.188c-.337 3.788-1.51 5.216-4.25 7.812-3.25.813-3.25.813-6 1v-2l1.875-.187c2.125-.813 2.125-.813 3.188-3.063L1452 957q1.454-2.528 3-5l1.688-2.812z"/><path fill="#a8562d" d="m556 929 1 2 3 1-1 2h-1l-.516 2.273c-1.623 6.858-3.668 13.267-6.484 19.727-1.658-4.087-.293-7.755.813-11.812l.54-2.08c1.15-4.389 2.388-8.75 3.647-13.108"/><path fill="#be5e30" d="M1286 763q3.689.172 7.375.375c.699.03 1.397.062 2.117.094 5.281.304 5.281.304 7.508 2.531q-3.591.798-7.187 1.563l-2.042.458c-3.904.82-6.923 1.107-10.771-.021l1.5-1.937C1286 764 1286 764 1286 763"/><path fill="#b3603a" d="M841 1053c6.625-.125 6.625-.125 10 1 2.864.302 5.73.508 8.602.719C862 1055 862 1055 863 1056q3.492.552 7 1v1q-5.25-.212-10.5-.437l-2.977-.12c-5.56-.24-11.012-.662-16.523-1.443z"/><path fill="#b05f3c" d="m715 935 1 3c-4.497 2.248-8.079 2.167-13 2l-1 4c-2.867-.573-3.861-.861-6-3 14.738-6 14.738-6 19-6"/><path fill="#ae5027" d="M1225 875h5a418 418 0 0 1-2.875 3.5l-1.617 1.969L1224 882h-2v2c-1.61 1.727-1.61 1.727-3.75 3.625l-2.11 1.914C1214 891 1214 891 1210 891l1.813-1.187C1214 888 1214 888 1215.5 885.375c1.5-2.375 1.5-2.375 3.688-3.187L1221 882v-2h3z"/><path fill="#c16436" d="m1490 1229 1 2-2 2h-2l-1 2h-2v2c-8.429 1.286-8.429 1.286-13 0 3.285-1.702 6.646-3.144 10.063-4.562l3.16-1.317A100 100 0 0 1 1490 1229"/><path fill="#c6683c" d="M692 1026h2v2l3 2-1 2-1-1c-3.2-.173-5.93.09-9 1v-2l-2.047-.148-2.703-.227c-.882-.07-1.763-.14-2.672-.21-2.569-.414-4.336-1.127-6.578-2.415 6.769-.102 13.303-.03 20 1z"/><path fill="#a1522e" d="M1272 813c4.045 2.077 6.277 3.738 8 8 .536 5.154.647 9.434-2 14-.914-3.086-1-5.796-1-9l-1-2c-.04-2-.043-4 0-6l-4-1z"/><path fill="#c77348" d="M858 1316h19v2l-5 1v1l-22-1v-1l8-1z"/><path fill="#c95c30" d="M600 982v2h7v1h-21l2-1 1-3c3.904-3.303 6.88-1.06 11 1"/><path fill="#b05d3b" d="M1246 925h-3v2h-5l-1 3q-3.435.33-6.875.625l-3.867.352L1223 931l-2-2c3.413-.87 6.83-1.718 10.25-2.562l2.934-.749 2.832-.693 2.602-.65c2.474-.36 4.03-.13 6.382.654"/><path fill="#a15229" d="M1171 888c1 2 1 2 .313 4.563-1.313 2.437-1.313 2.437-3.438 3.25L1166 896l-.187 1.688c-1.144 3.255-3.362 4.92-5.813 7.312l-1.687 2.813L1157 910h-2c1.549-4.821 4.305-8.245 7.438-12.125l1.486-1.879c2.243-2.816 4.494-5.48 7.076-7.996"/><path fill="#b45629" d="m1180 877 1 2 2 1-1 7-2-1-1 2h-2v-2h-2v2h-2c.593-3.392 1.767-5.21 4.063-7.75l1.66-1.86z"/><path fill="#b4582f" d="M662 988c5.607.977 10.882 2.152 16.172 4.27 2.57 1.027 5.196 1.875 7.828 2.73v1l-11 1v-2l-3-1v-2l-3.312-.437C665 991 665 991 662 990z"/><path fill="#b05937" d="M1263 813c-1 2-1 2-2.785 2.676l-2.277.636c-4.788 1.502-8.96 3.613-12.938 6.688l-1 2h-5c16.8-14 16.8-14 24-12"/><path fill="#c24c19" d="M1572 1168c3.597 5.395 3.13 9.833 2 16l-2 1-2 3-1-6h2l-1-6 2-1 1-3h-2z"/><path fill="#c97143" d="M934 1059c-4.862 3.241-9.017 3.133-14.75 3.063l-2.113-.014q-2.57-.02-5.137-.049v-3c5.958-2.98 15.554-.675 22 0"/><path fill="#b7572c" d="M558 1024h4c-.466 6.401-2.147 11.268-5 17h-1c-.218-6.002.494-11.192 2-17"/><path fill="#a45430" d="m1574 1176 2 1c.45 15.924.45 15.924-2 23l-2 1z"/><path fill="#bb5e35" d="M544 1223c6.051 2.555 12.027 5.267 18 8v1c-5.802.363-9.64-.743-15-3v-3h-3z"/><path fill="#bd5626" d="m716.813 1001.938 2.957.59 2.23.472v1l-13 1v2l-6 1 1-3h3l-1-3c3.941-1.03 6.836-.877 10.813-.062"/><path fill="#b45f36" d="M618 1284c2.27-.081 4.541-.14 6.813-.187l3.832-.106c3.355.293 3.355.293 5.304 1.805L635 1287l-1 2c-5.868-.524-10.549-1.761-16-4z"/><path fill="#b65d35" d="M1369 993v4l-1.828.148-2.422.227c-.789.07-1.578.14-2.39.21-2.36.415-2.36.415-4.516 1.509L1356 1000c-2.25-.875-2.25-.875-4-2 2.952-1.575 5.858-2.668 9.063-3.625l2.597-.79C1366 993 1366 993 1369 993"/><path fill="#ac582f" d="M588 893c0 3 0 3-1 6l-2.937.938c-1.011.35-2.022.7-3.063 1.062l-.875 2c-1.125 2-1.125 2-3.016 2.703-2.022.495-4.065.901-6.109 1.297 3.532-3.689 7.185-6.774 11.313-9.812l1.666-1.233q2.007-1.482 4.021-2.955"/><path fill="#bc5625" d="m1335 888 2 2c-3.854 10.743-3.854 10.743-8 14l-1-4h2v-2h2l1-4-3-1-1-3 2.438-.437C1334 889 1334 889 1335 888"/><path fill="#f4e9d3" d="M1186 867c2.063.438 2.063.438 4 1l-14 14c.321-3.531.65-5.558 2.875-8.375C1181 872 1181 872 1184 872l.438-1.937C1185 868 1185 868 1186 867"/><path fill="#b05a31" d="m850.078 861.902 3.516.01 3.656.025 3.703.014q4.523.018 9.047.049v1q-5.312.506-10.625 1c-.999.095-1.998.19-3.027.29-10.713.992-10.713.992-14.348.71l-2-2c3.41-1.04 6.523-1.115 10.078-1.098"/><path fill="#b96d48" d="M792 1313c3.875-.058 7.75-.094 11.625-.125l3.316-.05c10.04-.062 10.04-.062 15.059 2.175v1c-3.313-.14-6.625-.289-9.937-.437l-2.807-.12A227 227 0 0 1 792 1314z"/><path fill="#cf602a" d="m1200.766 1313.978 2.27.143 2.45.147 2.577.17 2.587.158q3.176.196 6.35.404v1c-9.126.844-18.15 1.128-27.312 1.063l-3.725-.014q-4.482-.018-8.963-.049v-1l1.912-.076q4.263-.175 8.526-.361l3.01-.12 2.86-.127 2.65-.11c2.321-.234 2.556-1.2 4.808-1.228"/><path fill="#ce5b2b" d="m475 1172 2 1v3h2l-1 5-2-2v13l-2 1q-.04-4.125-.062-8.25l-.026-2.355-.01-2.286-.016-2.094c.12-2.115.538-3.981 1.114-6.015"/><path fill="#ce5316" d="M1316 911c2 2 2 2 2 5h-2v2c-2.614 2.54-4.129 3.923-7.812 4.25L1306 922c1.375-2 1.375-2 3-4h2l.813-2.375C1313 913 1313 913 1316 911"/><path fill="#b2703d" d="M530 1250c3 4.179 3 4.179 3 7-4.827-1.413-8.716-3.43-13-6v-1c7.024-1.437 7.024-1.437 10 0"/><path fill="#b8592e" d="M497 1233c3.044-.082 5.072.024 8 1l-1 4h6v3h-2l-1 2a797 797 0 0 1-5-3.875l-2.812-2.18L497 1235z"/><path fill="#a55a36" d="M522 1033h2l-1 7h-2l-.25 3.625c-.527 4.419-2.049 6.89-4.75 10.375-1-2-1-2-.47-3.971l.904-2.38.966-2.579 1.038-2.695 1.025-2.719q1.259-3.332 2.537-6.656"/><path fill="#a94e28" d="m1111 965 4 2-1 3-1-2h-2c.525 5.03 1.106 10.019 2 15h-2c-1.699-3.701-2.272-6.622-2.25-10.687l-.016-2.887C1109 967 1109 967 1111 965"/><path fill="#c15b2d" d="m1431.7 1279.828 2.987.422 3.012.39c.76.12 1.519.238 2.301.36l-1 3c-4.655.838-8.37 1.016-13 0 2.244-3.952 2.244-3.952 5.7-4.172"/><path fill="#b4623b" d="m1275 1277 2 2c-3.01.934-3.867 1.044-7 0-2.045.113-4.088.288-6.125.5-5.518.488-10.41.334-15.875-.5v-1c22.106-1.553 22.106-1.553 27-1"/><path fill="#a8502c" d="m1404 1257-1 2h-3l-1 3-11-2c2.862-1.431 4.996-2.407 8-3.187l2-.543c2.265-.306 3.835.049 6 .73"/><path fill="#f4e4d1" d="m1413.285 1250.902 2.777.035 2.786.028 2.152.035v1c-8.158 2.538-16.544 3.872-25 5 2-3 2-3 4.785-3.695l3.277-.43c3.315-.45 6.178-1.843 9.223-1.973"/><path fill="#a54c25" d="M552 1048c1.746 4.128.094 7.645-1.312 11.625l-.686 2.063c-1.02 2.972-1.753 5.063-4.002 7.312l1-11h2l1-7h2z"/><path fill="#b25935" d="M1476 906c6.571 5 6.571 5 8 10h2l1 4-4-1v-2l-2-1 1-2h-2v-2h-3v-2l-3-1z"/><path fill="#a15b2b" d="M1407 903c5.154 1.237 8.624 2.888 13 6a86 86 0 0 0 4 2v2c-4.218-1.355-8.294-2.902-12.375-4.625l-3.21-1.352L1406 906z"/><path fill="#b86536" d="m922 902-1 2-29-1v-1c10.11-.73 19.9-1.287 30 0"/><path fill="#c0623b" d="m758.375 841.938 2.23.013q2.698.02 5.395.049v2l-2.812.438C760 845 760 845 757 846a80 80 0 0 1-5.562-.312c-.971-.08-1.942-.158-2.942-.239C746 845 746 845 744 843c4.857-.973 9.45-1.12 14.375-1.062"/><path fill="#b05630" d="M755 925v1l-2.59.621-3.347.817-3.34.808C743 929 743 929 742 930c-2.67.141-5.324.042-8 0l1-2a128 128 0 0 1 8.375-2.187l2.367-.577c5.877-1.363 5.877-1.363 9.258-.236"/><path fill="#b96337" d="m1395.688 865.875 3.574.055 2.738.07v3c-1.727.224-3.457.428-5.187.625l-2.918.352c-3.136.025-5.09-.633-7.895-1.977 3.632-2.421 5.383-2.21 9.688-2.125"/><path fill="#b4592a" d="M562 1232c3.782.657 7.218 1.72 10.813 3.063l2.957 1.097 2.23.84v1c-7.625 1.25-7.625 1.25-11-1a155 155 0 0 0-5-2z"/><path fill="#a04d27" d="M492 1119c1.123 4.491.638 6.059-.75 10.375-.345 1.1-.69 2.202-1.047 3.336-1.186 3.242-2.598 6.236-4.203 9.289l-2-1z"/><path fill="#bd4c1e" d="M1491 935h2c1.591 4.873 2.212 8.808 2 14h-3v-2h-2l-1-3h2z"/><path fill="#b45425" d="m1449 887 4 1v2l1.703.309c2.75.827 4.688 2.123 7.047 3.754.8.547 1.598 1.095 2.422 1.66L1466 897l-3 1-2-1-1 2-.254-1.91c-.746-2.09-.746-2.09-2.523-2.961l-2.16-.567c-3.89-1.252-3.89-1.252-5.563-4.25z"/><path fill="#cb6130" d="m672 890 16 1c-3.004 2.003-4.71 2.493-8.187 3.125l-2.731.508L675 895z"/><path fill="#c35119" d="m1304 886 4 2-2 1a109 109 0 0 0-1 7l-3-1v-2h-2l1 3h-3v-4l5-1-1-3z"/><path fill="#c14e1b" d="M1366 788c1.252 4.22.673 7.96.063 12.25l-.303 2.258A929 929 0 0 1 1365 808h-1c-1.691-6.038-2.382-10.833-1-17 1.563-2 1.563-2 3-3"/><path fill="#bd5b2f" d="m644 1255 11 2-1 3c-3.062 1.188-3.062 1.188-6 2v-3h-3z"/><path fill="#b35d36" d="M714 972c-5.813 3.1-11.428 4.068-18 3-1.828-1.523-1.828-1.523-3-3l2.922.035 3.828.028 3.797.035C707 972 707 972 709.266 971.434 711 971 711 971 714 972"/><path fill="#b6603b" d="M643 870c-.5 1.938-.5 1.938-2 4-3.613.975-7.278 1-11 1 1-3 1-3 2.96-3.984l2.415-.766 2.398-.797C640 869 640 869 643 870"/><path fill="#ca5114" d="M1238 858h2v2l2 1-2 4-2-1v3h-5v2h-2v-3h2l1-2c2.063-1.125 2.063-1.125 4-2z"/><path fill="#ba6440" d="M1218 1055v1l-27 2c6.46-6.46 18.727-3.751 27-3"/><path fill="#f5e6d3" d="m1306 928 1 2a91 91 0 0 1-4 4h-2l-.562 1.813c-2.146 3.264-4.823 3.96-8.438 5.187l-2-1 2.992-2.117 3.883-2.758 1.973-1.395 1.894-1.347 1.746-1.238C1304 930 1304 930 1306 928"/><path fill="#b86642" d="M1279 1311v1l-24 2c1-2 1-2 2.828-2.668 7.233-1.551 13.853-1.18 21.172-.332"/><path fill="#bf663c" d="M546 1260c5.625-.25 5.625-.25 9 2 1.188 2.625 1.188 2.625 2 5a225 225 0 0 1-4.937-1.25l-2.778-.703C547 1264 547 1264 546.184 1261.89z"/><path fill="#b75e32" d="M1401 1016h5l-2 1-1 3c-2.11.914-2.11.914-4.75 1.625l-2.61.727-2.64.648c-.892.235-1.784.47-2.703.71-.38.049-.38.049-2.297.29l-2-2h4v-2l2.152-.367 2.785-.508 2.778-.492L1400 1018z"/><path fill="#ad5524" d="m579 986 3.188.5c3.017.396 5.783.592 8.812.5l1 2c1.848.414 1.848.414 4.063.625L600 990v1c-5.778.236-10.513-.132-16-2l-1 2a181 181 0 0 1-4-4z"/><path fill="#ae5d35" d="M1275 835h2c-1.524 4.205-4.615 6.25-8.125 8.75l-1.707 1.246A592 592 0 0 1 1263 848v-3h2l1-3h2l1-3h4v-2h2z"/><path fill="#a0532c" d="m1186 771 3 1-5 2v2h-2v2l-3 1-1 2h-3v2h-2c1.53-4.01 4.015-5.827 7.438-8.312l2.933-2.176z"/><path fill="#a55e2d" d="m537 1254 1 3a69 69 0 0 0 4 1c1.69.96 3.362 1.954 5 3-3.64 1.213-4.588.662-8.062-.75l-2.66-1.047C534 1258 534 1258 532 1255z"/><path fill="#b86033" d="M1533 1201h3l-1 3h-2v2h-2l-1 4h-2v3l-4-1c1.117-3.016 2.613-4.645 5.063-6.625C1532 1203 1532 1203 1533 1201"/><path fill="#b45b37" d="M1563 1141c2.004 3.006 3.03 5.592 4.188 9l1.105 3.188C1569 1156 1569 1156 1568 1159c-1.46-2.647-2-3.894-2-7h-2l-2-3-2-2 2-2c.625-2.125.625-2.125 1-4"/><path fill="#a84c24" d="M1513 1103c3.475 2.685 3.917 5.872 5 10q.793 2.07 1.625 4.125c1.191 3.077 1.688 5.538 1.375 8.875-2.443-3.665-3.681-7.363-5.125-11.5l-.84-2.34-.793-2.254-.723-2.052C1513 1106 1513 1106 1513 1103"/><path fill="#ca5f2a" d="m1285 1042-1 3c-3.032 1.195-6.025 1.105-9.25 1.063l-2.703-.028L1270 1046l2-1v-2c4.41-1.102 8.484-1.077 13-1"/><path fill="#b65f37" d="m643 982 10 2v2h5c-2 2-2 2-4.625 2.125L651 988v-2h-7z"/><path fill="#a45432" d="M1149 968h2c-1.622 3.585-3.793 6.59-6.125 9.75l-2.195 2.984L1141 983c-1-2-1-2-.617-3.84 2.031-5.742 2.031-5.742 5.242-8.035L1148 970z"/><path fill="#b35939" d="m1189 914 3 1a5234 5234 0 0 1-4.375 5.375l-2.46 3.023C1183 926 1183 926 1181 928v-6h3l1-4h2l1-3z"/><path fill="#ad542e" d="M1318 914h2c-1.586 3.856-4.065 6.332-7 9.25l-2.687 2.703C1308 928 1308 928 1306 928v-2h2c.03-.289.03-.289.188-1.75 1.146-3.174 3.072-4.378 5.812-6.25h2v-2h2z"/><path fill="#c25115" d="m580 903 3 2-1 2h-2v2c-2.25.688-2.25.688-5 1-2.312-1.437-2.312-1.437-4-3 1.43-.725 2.869-1.43 4.313-2.125l2.425-1.195z"/><path fill="#b1572f" d="m1202 900 3 1-13 13 1-6 4-1v-2h2l-1-4h3z"/><path fill="#c0511f" d="m1123 865 1 3h3c1.25 7.5 1.25 7.5-1 12l-2-9h-2z"/><path fill="#c2582d" d="m1245 822 2 1c-2.13 3.509-4.632 5.067-8.215 6.984-2.481 1.412-4.613 3.173-6.785 5.016.386-2.798.801-3.82 2.938-5.75C1237 828 1237 828 1239 828v-3h5z"/><path fill="#c95929" d="m523 1029 5 1-2 1c-.608 3.059-.96 6.12-1.34 9.215C524 1043 524 1043 521 1045v-5h2l1-7h-2z"/><path fill="#c15e33" d="m1254 923 .313 1.938L1255 927l3 1c-7.429.143-7.429.143-11-1l-1-4c3.29-1.097 4.713-.8 8 0"/><path fill="#eddac2" d="M632 910c-.625 1.875-.625 1.875-2 4-2.812 1.125-2.812 1.125-6 2l-2.625 1.188c-2.69.92-3.722.601-6.375-.188q3.684-1.756 7.375-3.5l2.117-1.012C629.773 910 629.773 910 632 910"/><path fill="#a8552d" d="M1397 1292c-5.939 3.959-12.081 4.247-19 4 5.136-5.136 12.252-4.216 19-4"/><path fill="#b9603d" d="M478 1157c2 3 2 3 1.75 5.188L479 1165q-.533 2.156-1.062 4.313L477 1173c-1.454-2.31-2.047-3.561-1.75-6.312L476 1164l1.063-3.812z"/><path fill="#b64e24" d="M1524 1133c2 2 2 2 2 5l4 1 1 8h-3a958 958 0 0 1-2-5.312l-1.125-2.989C1524 1136 1524 1136 1524 1133"/><path fill="#f2e3cc" d="M562 1025c1.17 3.917.696 6.98 0 11h-2l.25 2.813C560 1042 560 1042 558 1043.874l-2 1.125c.747-4.42 2.117-8.582 3.563-12.812l.708-2.1q.861-2.546 1.729-5.088"/><path fill="#c65b34" d="m613 991-1 2h-4v3h-5l-1-5a491 491 0 0 1 4.375-.562l2.46-.317C611 990 611 990 613 991"/><path fill="#b46335" d="m1113 980 3 1c1.188 3.563 1.188 3.563 2 7h3v2l3 1c-7.169-.978-7.169-.978-10-3-1.312-2.437-1.312-2.437-2-5z"/><path fill="#bc643d" d="m1115 957 1 2h2l1 5h-5l-2 2h-2c1.25-3.46 2.675-6.147 5-9"/><path fill="#cd6630" d="m803.188 914.313 2.667.238L808 915l1 2-14 1-1-3c3.22-.998 5.843-1.018 9.188-.687"/><path fill="#b66138" d="m1289 897 2 4-4 5-6-1z"/><path fill="#cd5216" d="m1461 897 5 1v2h2v5l-6-2v-3l-2-1z"/><path fill="#cb622c" d="M701 880c2.875-.125 2.875-.125 6 0l2 2c2.383.633 2.383.633 5.125 1.125l2.758.508L719 884c-3.067 1.022-5.287 1.166-8.5 1.188l-2.906.042C705 885 705 885 702 883l2-1z"/><path fill="#cb6836" d="m695 857-1.687.813C691 859 691 859 688.75 860.688c-3.949 1.884-6.492 1.106-10.75.312v-2l-2-1 8 1v-1c3.724-.693 7.21-1.111 11-1"/><path fill="#b76842" d="m1247.813 1313.438 2.1.158q2.543.194 5.087.404v1l-22 1c4.074-4.074 9.439-3.01 14.813-2.562"/><path fill="#ab5b31" d="M1447 1001c-9.017 5.862-9.017 5.862-13 7l-3-1 4-1v-2c3.474-2.316 7.954-5.023 12-3"/><path fill="#d65d29" d="M1123 871c2.846 2.846 2.456 5.804 2.625 9.625l.117 2.14c.094 1.745.177 3.49.258 5.235l-5 1 1-2.25c1.403-5.262 1.158-10.336 1-15.75"/><path fill="#b5572d" d="m1238 864 3 1c-3.494 3.596-7.111 6.835-11 10v-5h3v-3h5z"/><path fill="#b35e37" d="M1256 848h5v2c-2.117 1.945-2.117 1.945-4.875 4.125l-2.742 2.195C1251 858 1251 858 1249 858c.313-1.937.313-1.937 1-4l3-1 1-2h2z"/><path fill="#f6e9d8" d="M518 1036h3c-2.16 7.394-4.53 14.704-7 22-1.437-3.803-.5-6.146.875-9.875 1.482-4.052 2.525-7.847 3.125-12.125"/><path fill="#ac8560" d="M594 998q2.22.173 4.438.375c.823.07 1.647.14 2.496.21.34.07.34.07 2.066.415l1 2 3 1v2h4v2c-6.147-1.47-11.422-4.06-17-7z"/><path fill="#c78a69" d="m1254 956 2 1c-6.664 3.49-13.597 4.127-21 5v-2c2.49-1.245 4.473-1.252 7.25-1.437 4.222-.338 7.751-1.128 11.75-2.563"/><path fill="#c95e29" d="M1264 944a77 77 0 0 1 3.75 2c2.72 1.208 5.313 1.6 8.25 2-2.2 2.2-2.993 2.57-6 3-2.75-.437-2.75-.437-5-1v-2l-2-1z"/><path fill="#b1613d" d="m1280 905 2 3c-3.08 3.672-5.248 4.568-10 5 2.071-4.034 3.966-5.929 8-8"/><path fill="#aa5129" d="m1379 889 4 2-1 2 5 1v3l4 1c-1.734.703-1.734.703-4 1-2.14-1.328-2.14-1.328-4.25-3.25l-2.14-1.89C1379 892 1379 892 1379 889"/><path fill="#b06439" d="m1309 870 1 2-1 2h2v3h-2l-1 2a102 102 0 0 1-3 3l-2-2z"/><path fill="#f1e2cd" d="m1530 1248 1 2c-2.07 3.104-2.582 3.532-5.875 4.75l-2.055.797c-2.07.453-2.07.453-6.07-.547z"/><path fill="#bf6b4b" d="M1512 998c2.964 3.635 3.742 6.265 4 11l-2 3c-1.906-3.212-2.223-5.539-2.125-9.25l.055-2.703z"/><path fill="#a65d34" d="m584 989 17 2v1l-12 1 1 2-6-3z"/><path fill="#b45a30" d="m610 967 16 7v1l-11-1-1-3c-2.062-1.187-2.062-1.187-4-2z"/><path fill="#bf572c" d="m1148 960 4 1h4c-.56 3.243-1.413 4.93-4 7h-2z"/><path fill="#ab582d" d="M1263.563 951.938 1267 952c-2.728 2.728-5.809 3.242-9.437 4.188l-2.065.576c-3.36.891-5.133 1.358-8.498.236l2.59-.84 3.348-1.097 3.34-1.09c5.614-2.006 5.614-2.006 7.284-2.035"/><path fill="#a85228" d="M656 901c-10.374 4.408-10.374 4.408-16 5v-2h5v-3c4.02-.696 7.083-1.17 11 0"/><path fill="#ab5630" d="m1344 876 2 1-9 16c-1-3-1-3 .215-5.918l1.723-3.27 1.714-3.292L1342 878h2z"/><path fill="#c96d37" d="m747.875 874.813 3.242-.043C754 875 754 875 757 877c-6.75 1.125-6.75 1.125-9 0a98 98 0 0 0-5.625.438l-3.04.308L737 878l1.938-.937c3.51-1.809 4.677-2.225 8.937-2.25"/><path fill="#f7ecd8" d="M1309 864h4v2h-2l-.75 2.063c-1.492 3.506-3.318 6.653-5.25 9.937-1-3-1-3 .313-5.875L1307 869a203 203 0 0 0 2-5"/><path fill="#ac5d37" d="M662 864c-3.088 1.765-4.233 2-8 2v2c-3.674 1.176-7.17 1.074-11 1 5.584-3.722 12.284-5.53 19-5"/><path fill="#c75011" d="m1274 822 2 1c.407 2.322.744 4.657 1 7h-2l-1 4-2-1 .563-1.75c.437-2.25.437-2.25-.126-4.312L1272 825z"/><path fill="#bf5d31" d="m520 1138 2 3c-.46 2.043-.46 2.043-1.375 4.188l-.898 2.167L519 1149h-4v-3l3-2c.625-2.562.625-2.562 1-5z"/><path fill="#b14f26" d="M1523 1031c2 1 2 1 3.105 3.617l1.082 3.258 1.106 3.242C1529 1044 1529 1044 1528 1047l-4-9h-3z"/><path fill="#b9613c" d="M1384 989v3c-5.324 2.32-9.438 1.915-15 1v-1l1.863-.402 2.45-.535 2.425-.528C1382.226 989 1382.226 989 1384 989"/><path fill="#c2642e" d="M1437 916c3.033-.229 5.975-.365 9 0 2.063 2 2.063 2 3 4l-1 2-4-1v-2l-7-2z"/><path fill="#ae5530" d="m821 911-1 3-17 1 1-2a97 97 0 0 1 7.438-1.125l2.103-.262C818.569 911 818.569 911 821 911"/><path fill="#b75326" d="m1325 904 4 1-8 9c-1.43-2.862-.6-4.934 0-8h4z"/><path fill="#f5e8d5" d="M1262 848v3c-4.343 4-4.343 4-7 4l-.687 1.938C1253 859 1253 859 1250.375 859.75L1248 860c4.266-4.541 9.036-8.247 14-12"/><path fill="#a54825" d="M1359 832h1c-.326 6.323-.615 11.555-4 17h-1c.643-5.913 2.19-11.342 4-17"/><path fill="#bd5218" d="M855 1284h10v2l6 1v1h-11l1-2-6-1z"/><path fill="#bd541f" d="m820 1282 20 1v1l-21 1z"/><path fill="#b35730" d="M532 1104h2c-1.068 5.114-2.231 10.072-4 15h-1v-13h2z"/><path fill="#b86745" d="M664 1022v2h8v3a676 676 0 0 1-5.25-.875l-2.953-.492c-2.57-.582-4.518-1.341-6.797-2.633 2.49-.687 4.379-1 7-1"/><path fill="#b2552e" d="m592 952 2.063 2.188c2.093 2.123 4.272 3.78 6.75 5.437L604 962v3l-3-1v-2h-3v-2h-2c-2.125-1.75-2.125-1.75-4-4z"/><path fill="#c9693b" d="m772 921-2 2-1 3-9-1v-1l5-1v-2c3.133-1.044 3.99-.934 7 0"/><path fill="#fbf3dd" d="M1268 914c-5.252 2.72-10.43 5.011-16 7l-1-2 1.715-.586 2.223-.789 2.214-.773C1259 916 1259 916 1260 914c3.044-1.154 4.926-.857 8 0"/><path fill="#f8edd6" d="M1133 829h2c-1.418 4.472-3.113 8.711-5 13h-1c-.295-5.022-.007-7.91 3-12z"/><path fill="#c67144" d="m1463 1242-3 1v2c-6.625.25-6.625.25-10-2 4.791-1.63 8.056-2.206 13-1"/><path fill="#d25d26" d="M724 1032c2.313-.25 2.313-.25 5 0 1.976 2.044 3 3.118 3 6-1.46-.114-2.917-.242-4.375-.375l-2.46-.21C723 1037 723 1037 721 1035l6-1z"/><path fill="#a85737" d="m568 1003 2 1-5 16h-1c.326-6.323.615-11.555 4-17"/><path fill="#f0dfcc" d="m687 945 3 1-.84 1.469c-2.672 4.945-3.76 8.926-4.16 14.531h-1q-.118-3.687-.187-7.375l-.077-2.117c-.029-2.031-.029-2.031.264-5.508z"/><path fill="#c95116" d="m1480 917 2 1v2h2l1 6-5 2 1-9-2-1z"/><path fill="#c55d2d" d="M1333 801h1c.276 1.934.52 3.873.75 5.813l.422 3.269c-.172 2.918-.172 2.918-2.156 4.805L1331 816l-1-8 2 1z"/><path fill="#a44f30" d="M1234 749c-11.522 5.556-11.522 5.556-17 6 2.356-2.689 4.636-3.92 7.938-5.25l2.59-1.078c2.643-.719 3.93-.592 6.472.328"/><path fill="#bc5e35" d="M720 1302c4.38.52 8.688 1.057 13 2-3.315 2.03-5.432 2.127-9.25 1.625l-2.703-.336L719 1305z"/><path fill="#c45b2a" d="M1360 1267h-2v2l3 1-5 1v1h-6l3-1-1-3c4.625-2.125 4.625-2.125 8-1"/><path fill="#bf5c33" d="M1516 1009c3.512 5.269 4.252 9.712 4 16h-2v-10h-3z"/><path fill="#b35e38" d="M1455 929c2.628 1.865 3.864 3.304 4.488 6.492.238 2.504.416 4.995.512 7.508l-.836-1.734c-1.159-2.256-2.433-4.375-3.789-6.516l-1.352-2.14L1453 931z"/><path fill="#b35632" d="M1466 898c3.941 1.668 6.79 4.227 10 7l-3 3v-4l-6-1 1-3h-2z"/><path fill="#c1511b" d="M1205 853h6l-1 3h-3l-1 5-3-1v-4h2z"/><path fill="#f5ead1" d="m1220 836 4 1-10 8-1-4 2.375-1.375C1218 838 1218 838 1220 836"/><path fill="#b56339" d="M1155 1285h15l1 2-11 1v-1l-5-1z"/><path fill="#c25c27" d="M860 1283v1c-9.41 3.444-9.41 3.444-14 3l1-3c4.394-.857 8.526-1.09 13-1"/><path fill="#be6a3f" d="M1452 1275h9v2c-5.415 3.077-5.415 3.077-8.375 2.688L1451 1279h2z"/><path fill="#f8edd9" d="M511 1245c4.603 1.77 7.713 3.187 11 7h-2l-1 2-2-1v-3l-4-1v-2h-2z"/><path fill="#c05e32" d="M604 1245v2a492 492 0 0 1-5.375-.375l-3.023-.21C593 1246 593 1246 591 1244c4.845-1.514 8.26-.366 13 1"/><path fill="#a5623a" d="M611 1006h8l1 3 5 1v1c-5.277-.539-9.256-1.773-14-4z"/><path fill="#d15f2f" d="m1477 985 2 1v6l-5 2c0-2.621.313-4.51 1-7h2z"/><path fill="#ac5c38" d="M628 976c3.232.717 6.187 1.813 9.25 3.063l2.703 1.097L642 981v1c-4.332.263-7.88-.708-12-2v-2h-2z"/><path fill="#cd622e" d="m732 929 10 1c-3.146 2.097-5.015 2.52-8.687 3.125l-3.012.508L728 934v-2l4-2z"/><path fill="#a45935" d="M564 914c.617 1.809.617 1.809 1 4-1.875 3.063-1.875 3.063-4 6l-1 3h-2c.483-5.155 3.186-8.816 6-13"/><path fill="#b7885b" d="M1428 915c3.375-.125 3.375-.125 7 0 1.952 1.952 2.848 3.532 4 6-4.508-1.258-7.491-2.904-11-6"/><path fill="#f9f0dc" d="M1208 899v2h-2l1 3c-2.812 2.063-2.812 2.063-6 4l-3-1a680 680 0 0 1 3.875-4l2.18-2.25C1206 899 1206 899 1208 899"/><path fill="#f2e4cb" d="M999 899c5.306-.435 5.306-.435 8 0 2.063 2.313 2.063 2.313 3 5l-1 3-.625-1.875c-1.924-2.973-4.055-3.157-7.375-4.125z"/><path fill="#bd5e31" d="M1383 869c2.625.375 2.625.375 5 1v2h-4v4h-4c.75-4.75.75-4.75 3-7"/><path fill="#f8eeda" d="m1153 796 3 1c-1.555 3.817-4.036 6.192-7 9l1-6h2z"/><path fill="#c45c29" d="M756 1276c13.633-.185 13.633-.185 20 1-3.222 2.148-4.278 2.294-8 2l-1-1a123 123 0 0 0-5.562-.562l-3.067-.254L756 1277z"/><path fill="#cf7544" d="M590 1272a101 101 0 0 1 6 2l1 2-4 1 3 3-8-2 3-1z"/><path fill="#c46a3a" d="M509 1243c7.262-.492 7.262-.492 11 2l2 2c-4.75-.875-4.75-.875-7-2l-1 2a159 159 0 0 1-5-3z"/><path fill="#aa5e34" d="M529 1215a595 595 0 0 1 5.938 2.813l3.34 1.582C541 1221 541 1221 542 1224h-3v-2l-2.875-.937C533 1220 533 1220 531 1219v-2h-2z"/><path fill="#b16d4c" d="m1522 1211 1 4c-5.078 3.223-5.078 3.223-7 4l-4-1z"/><path fill="#b55731" d="M515 1205c4.98 1.51 8.243 4.557 12 8l-3 3-1-4h-2v-2h-2v-2l-4-2z"/><path fill="#b25532" d="m526 1123 2 1-5 12c-.96-2.882-1.077-4.145-.75-7.062l.203-2.098C523 1125 523 1125 526 1123"/><path fill="#ad5d42" d="M505 1081h1v9h-2l-1 4-2-1z"/><path fill="#c36538" d="M773 1045q2.406-.04 4.813-.062l2.707-.036C783 1045 783 1045 786 1046l-1 3h-6l-1-2c-2.562-.625-2.562-.625-5-1z"/><path fill="#a95134" d="M1308 1008c-3.402 2.094-6.053 2.18-10 2v2l-6-1c5.14-3.427 10.008-3.102 16-3"/><path fill="#d15219" d="M1506 993h1l1 9-4 2c.875-7.625.875-7.625 2-11"/><path fill="#b85c30" d="M1449 995h8c-6.59 5-6.59 5-10 5v-3h2z"/><path fill="#d25217" d="m709 969-1.937.938C705 971 705 971 704 972c-2.083.605-3.826 1-6 1 .313-1.937.313-1.937 1-4 3.694-1.231 6.206-.644 10 0"/><path fill="#eedac1" d="M754 960v2c-5.487 1.868-10.222 2.236-16 2 2.785-1.856 4.268-2.452 7.438-3.125l2.308-.508C750 960 750 960 754 960"/><path fill="#ad5225" d="m1458 947 2 3-2 4h-2v2h-2l-1 3-2-1 1.813-2.687A188 188 0 0 0 1458 947"/><path fill="#bc4f1d" d="m1460 938 1 4h2c1.16 3.478.708 5.459 0 9h-2v-5h-2z"/><path fill="#b04c1b" d="M608 915h2l1 2 1-1a100 100 0 0 1 5 0c-2.118 2.33-4.033 3.888-7 5l-3-1z"/><path fill="#a24c23" d="M632 910a701 701 0 0 1-6.312 3.063l-3.551 1.722C619 916 619 916 616 915c4.174-3.81 10.51-6.83 16-5"/><path fill="#c75014" d="M1475 906v3l2 1v2l2 1-4 2-1-3h-2l-1-3z"/><path fill="#ba653a" d="M1225 875h5a418 418 0 0 1-2.875 3.5l-1.617 1.969L1224 882h-2l-1 2v-4h3z"/><path fill="#ca612d" d="m706 851 9 1-6 3-2-1v2h-6c1.255-2.51 2.5-2.871 5-4z"/><path fill="#f6e9d5" d="m1209 797 2 1c-1 3-1 3-2.848 4.168l-2.215 1.02-2.222 1.042-1.715.77-2-2z"/><path fill="#b8603a" d="m1326 727 2 2c-10.558 1.333-10.558 1.333-15 0v-1c4.368-.699 8.574-1.309 13-1"/><path fill="#b86237" d="M1296 1274v2c-3.024 1.512-5.662 1.173-9 1-2.437-1-2.437-1-4-2 4.386-.702 8.558-1.108 13-1"/><path fill="#af6140" d="m1410.188 1253.938 3.812.062c-3.423 3.15-6.443 3.562-11 4v-3c2.75-.917 4.36-1.109 7.188-1.062"/><path fill="#b8532e" d="M1453 1244v2h-2v2h-7l1-3c2.928-.976 4.956-1.082 8-1"/><path fill="#f2e0ce" d="m1566 1216 1 4-3 1c-.562 1.938-.562 1.938-1 4l-2 2-3-1 1.242-1.426 1.633-1.887 1.617-1.863C1564 1219 1564 1219 1566 1216"/><path fill="#b3643f" d="m556 929 1 2 3 1c-1.579 3.158-3.467 5.582-6 8 .875-7.625.875-7.625 2-11"/><path fill="#ae5e38" d="m1120 919 3 1v11c-2.024-3.035-2.321-4.194-2.625-7.687l-.227-2.45z"/><path fill="#c06d45" d="M1265 917c-1 3-1 3-4.062 4.688L1258 923v-3l-2-1c3.135-1.858 5.375-2.201 9-2"/><path fill="#b75d39" d="M1250 777h-2l-1 3c-3.562 1.188-3.562 1.188-7 2 .75-2.437.75-2.437 2-5 2.912-1.359 5.001-.964 8 0"/><path fill="#f8eeda" d="M1199.688 760.813 1202 761c-8.448 7-8.448 7-12 7v-3l1.813-.312c2.187-.688 2.187-.688 3.624-2.25 1.563-1.438 1.563-1.438 4.25-1.625"/><path fill="#f7ead7" d="M1193 1058v1l-2.25.375c-2.551.58-4.477 1.362-6.75 2.625v-2h-8v-1c5.72-.832 11.222-1.12 17-1"/><path fill="#ad5c36" d="M672 1027h12v2l3 1q-2.625-.174-5.25-.375c-.975-.07-1.95-.14-2.953-.21C676 1029 676 1029 672 1027"/><path fill="#ca5f2c" d="m722 1003 1 2h-8v2l-5 1-1-3z"/><path fill="#b76234" d="M789 948q2.124-.079 4.25-.125l2.39-.07c2.567.212 4.152.908 6.36 2.195-8.193 1.453-8.193 1.453-11.562-.437z"/><path fill="#cb5f29" d="m1232 930-6 3v2h-5c.375-1.937.375-1.937 1-4 3.215-1.607 6.436-1.057 10-1"/><path fill="#f0dbc6" d="m1327 906 2 1c-1.491 3.795-3.757 5.61-7 8l-2-1z"/><path fill="#c55d2a" d="m1172 886 1 2h2v-2h2v2h2v2c-3 1-3 1-6 0v2h-2z"/><path fill="#b95e39" d="M1437 881q2.44.93 4.875 1.875l2.742 1.055C1447 885 1447 885 1449 887l-8-1v-2l-3 1z"/><path fill="#ce4d0f" d="M1218 880c-.573 2.867-.861 3.861-3 6h-3c.375-2.437.375-2.437 1-5 2-1 2-1 5-1"/><path fill="#f3e3ce" d="m1237 868 1 3-8 7-2-1z"/><path fill="#b16442" d="M1125 853h1c.63 8.035.63 8.035-2 12.063l-2 1.937q.465-2.657.938-5.312l.527-2.989C1124 856 1124 856 1125 853"/><path fill="#b36238" d="M1319 849h2v7l-5 1z"/><path fill="#c6500a" d="m1268 816 5 1 1 3-2 2c-2.125-.375-2.125-.375-4-1z"/><path fill="#d26125" d="M1337 1296h3v2h9l-1 2q-2.406.079-4.812.125l-2.708.07C1338 1300 1338 1300 1335 1298z"/><path fill="#bd5124" d="M1397 1261c2.227 1.516 2.227 1.516 4 3q-2.687.079-5.375.125l-3.023.07C1390 1264 1390 1264 1388 1262c3.057-1.528 5.63-1.232 9-1"/><path fill="#f8f0e0" d="m539 1090 1 4 3 1-2 3v-2l-2 1c-.625 2.063-.625 2.063-1 4h-2z"/><path fill="#c65b2c" d="M556 941h1v9l-4 2c-.393-4.449.847-7.142 3-11"/><path fill="#b6623f" d="m594 932-1 3h-2l-2 10h-1c-.653-3.024-1.139-5.9-1-9 3.61-4 3.61-4 7-4"/><path fill="#c3683c" d="m782 918 1 3c-1 1-1 1-4.375 1.25C775 922 775 922 773.063 920.5L772 919c7.75-1 7.75-1 10-1"/><path fill="#c3683b" d="M596.813 889.813 599 891l-8 4v-2l-2-1c4.308-3.2 4.308-3.2 7.813-2.187"/><path fill="#c15825" d="M1304 882h2l-.937 2.25c-.872 2.257-1.54 4.395-2.063 6.75l-5 1v-2h2l2-5h2z"/><path fill="#c66332" d="m697 1296 3 1h-2v2l4-1 1 2-10 1c2-4 2-4 4-5"/><path fill="#b44b1f" d="m654 1258 8 1v1l-1.715.367-2.222.508-2.215.492C654 1262 654 1262 653 1264l-2-1 1-3h2z"/><path fill="#f2e0cc" d="M516 1203c3.715 1.238 5.289 3.221 8 6l3 2-1 2a534 534 0 0 1-4.437-3.312l-2.497-1.864C517 1206 517 1206 516 1203"/><path fill="#c76538" d="m1240 1017 13 1 1 3a316 316 0 0 1-5.312-.312l-2.989-.176C1243 1020 1243 1020 1240 1017"/><path fill="#cf5c2b" d="M1481 1006c2.034 1.415 2.904 2.55 3.422 4.98.24 2.002.413 4.011.578 6.02-1.5-1.375-1.5-1.375-3-3v-2l-2-1z"/><path fill="#a65535" d="M1420 978a336 336 0 0 1-4.75 2.063l-2.672 1.16c-2.73.823-3.947.754-6.578-.223a336 336 0 0 1 4.75-2.062l2.672-1.16c2.73-.824 3.947-.755 6.578.222"/><path fill="#b56845" d="M731 846v2c-3.175 1.908-5.106 2.16-8.75 1.625l-2.422-.336L718 849v-1q2.405-.505 4.813-1l2.707-.562C728 846 728 846 731 846"/><path fill="#f3e3d2" d="M1183 819c0 3.78-1.047 5.791-3 9-2.187.875-2.187.875-4 1 2.06-3.605 4.351-6.803 7-10"/><path fill="#b35d34" d="m1468 1238 1 3c-1 1-1 1-2.848 1.098L1460 1242c1.557-3.115 4.6-4 8-4"/><path fill="#b8633c" d="M1500 1225v4c-2.875.625-2.875.625-6 1l-2-2c5.75-3 5.75-3 8-3"/><path fill="#c85e29" d="m629 978 1 2 2.75-.125c3.128.12 4.636.516 7.25 2.125v2c-3.806-.672-7.352-1.727-11-3z"/><path fill="#f9f2da" d="m1454 948 3 1c-1.804 3.265-2.834 4.89-6 7l-1-3 2-1c1.125-2.062 1.125-2.062 2-4"/><path fill="#b66242" d="M1124 943c1 3 1 3 0 6h-2v4l-4-1z"/><path fill="#b5592a" d="m570 907 2 1v2h2v2h-8l2-1c1.125-2.062 1.125-2.062 2-4"/><path fill="#ba6139" d="M1476 906a318 318 0 0 1 6 5v1h-5v-2l-3-1z"/><path fill="#f8efdd" d="M1180 873c.813 1.688.813 1.688 1 4-2.437 2.75-2.437 2.75-5 5 .615-5.538.615-5.538 2.563-7.875z"/><path fill="#f2e3cc" d="m1198 856 3 1-7 7-2-3c3.75-3 3.75-3 6-3z"/><path fill="#a6542c" d="M722 849v1c-4.873 1.591-8.808 2.212-14 2 3.925-3.925 8.756-3.087 14-3"/><path fill="#f4e4ce" d="m1271 841 1 2c-1.062 2.625-1.062 2.625-3 5-3.187.313-3.187.313-6 0 2.516-2.606 5.051-4.894 8-7"/><path fill="#f5e6d0" d="m1142 812 3 1q-1.463 2.504-2.937 5l-1.653 2.813L1139 823h-1v-5l3-1z"/><path fill="#ab532a" d="M1260 774c-2.855 1.903-4.42 2.462-7.687 3.125l-2.45.508L1248 778l1-3c3.49-1.477 7.274-1.072 11-1"/><path fill="#ab613e" d="m1197 765-1 3h-2v2l-7 1c7.4-6 7.4-6 10-6"/><path fill="#cc6127" d="M1305 1274h13v1l-2.375.375C1313 1276 1313 1276 1311 1278v-2l-6-1z"/><path fill="#efddc6" d="M1542 1240v3c-3.158 3.068-5.62 4.5-10 5 3.023-3.255 6.257-5.618 10-8"/><path fill="#eacab0" d="m594 1242 12 1v2l2 1c-4.764-.715-9.342-1.795-14-3z"/><path fill="#d45e23" d="m1395 1016 8 1c-3.445 2.296-5.938 2.54-10 3z"/><path fill="#c05f33" d="M1472 985c-4.308 3.938-4.308 3.938-7.812 4.25L1462 989l1-3c2.957-1.478 5.742-1.06 9-1"/><path fill="#f5eede" d="M605 960c3 1 3 1 5 3v3l-5-2z"/><path fill="#ae5d2d" d="m1448 923 4 1v3h2l-2 4c-4-5.75-4-5.75-4-8"/><path fill="#c56736" d="m1006 922 3 1c-2.428 2.428-5.13 4.128-8 6l-2-1c1.375-1.5 1.375-1.5 3-3h2v-2z"/><path fill="#f0e0c9" d="m1319 916 1 3-3 1v3l-5 1 2.938-3.437 1.652-1.934A50 50 0 0 1 1319 916"/><path fill="#a06a3f" d="M1413 908c4.626-.323 7.28.155 11 3v2c-3.724-1.213-7.378-2.509-11-4z"/><path fill="#b76131" d="M1005.188 901.938 1007 903v4c-2.886-.398-3.822-.79-5.75-3.062L1000 902c3-1 3-1 5.188-.062"/><path fill="#aa5d36" d="M1090 850h2c-1.37 3.161-1.99 3.993-5 6-2.687-.375-2.687-.375-5-1 2.639-1.414 5.071-2.372 8-3z"/><path fill="#a84d21" d="M1139 822h5v2l-2.375.688C1139 826 1139 826 1137.688 828.625L1137 831c-1-3-1-3 .438-6.187.515-.929 1.03-1.857 1.562-2.813"/><path fill="#be582b" d="m1363 731 4 4-2 1-1 3c-2-3-2-3-1.625-5.687z"/><path fill="#f7e8d0" d="M1362 729h5c.981 3.053.981 4.947 0 8-3.875-5.75-3.875-5.75-5-8"/><path fill="#ce6026" d="M777 1308v1h-13v-1c8.429-2.571 8.429-2.571 13 0"/><path fill="#c1592c" d="M595 1277c7.75-.125 7.75-.125 10 1v2h-4v-2l-6 1z"/><path fill="#bc663c" d="m1499 1258 9 1-3 3c-2.687-.312-2.687-.312-5-1z"/><path fill="#ac5934" d="M544 1223c6.75 2.75 6.75 2.75 9 5h-6v-2h-3z"/><path fill="#f5dcc4" d="M1540 1181h1c.346 5.654-.566 9.03-3 14-1.21-3.632-.628-5.065.438-8.687l.87-3.012z"/><path fill="#ce602e" d="m1546 1103 1 3h2l1-2 1 4h-3l-1 3h-2z"/><path fill="#cf5d2b" d="M1506 1076c2.762 2.762 2.579 5.207 3 9h-2v-2l-2-1a100 100 0 0 1 0-5z"/><path fill="#ae5029" d="M1529 1049c2 1 2 1 3.188 3.313.848 2.807.811 3.989-.188 6.687l-2-1c-.414-2.066-.414-2.066-.625-4.562l-.227-2.504z"/><path fill="#b55d39" d="M572 987h3l-3 11h-1c-.09-3.832.121-7.266 1-11"/><path fill="#ac6745" d="M1452 955c0 3.169-.206 4.437-2 7-2.625.75-2.625.75-5 1l2.938-3.437 1.652-1.934A50 50 0 0 1 1452 955"/><path fill="#d5692f" d="M727 961c3 1 3 1 6 3l-5 1v2l-5-1 3-1c.688-2.062.688-2.062 1-4"/><path fill="#ae4b21" d="M587 940h1l3 12h-2c-2.136-3.204-2.231-4.02-2.125-7.687l.055-2.45z"/><path fill="#b86542" d="M755 925v1c-1.412.392-2.83.763-4.25 1.125l-2.39.633c-2.78.285-4.019-.308-6.36-1.758q2.404-.545 4.813-1.062l2.707-.598C752 924 752 924 755 925"/><path fill="#cb5e2d" d="m852.602 907.805 3.023.07 3.04.055L861 908v2l-9-1v2l-4-1c2-2 2-2 4.602-2.195"/><path fill="#ac5731" d="M688 891c-3.035 2.024-4.194 2.321-7.687 2.625l-2.45.227L676 894c3.598-3.598 7.157-3.091 12-3"/><path fill="#fbf7e7" d="m1170 881 1 2 5-1-2 3h-2l-2 2-2-3z"/><path fill="#bc5e31" d="M1156 797h3c-.506 2.169-1 4-2 6l-4-2c1.313-2 1.313-2 3-4"/><path fill="#f3e4cf" d="m1183 770 4 1-9 6 1-4h3z"/><path fill="#a85b34" d="m1490 1229 1 2c-2.762 2.762-5.207 2.579-9 3 2.353-2.724 4.625-3.814 8-5"/><path fill="#cc602e" d="M507 1170h1l1 7-4 3q.212-2.22.438-4.437c.08-.824.162-1.648.246-2.497C506 1171 506 1171 507 1170"/><path fill="#ac4e2f" d="M1546 1096c3.006 3.006 2.596 5.824 3 10h-2z"/><path fill="#b06339" d="M1352 1032v2l-9 1v-2c3.073-.91 5.801-1.089 9-1"/><path fill="#ae4a1c" d="M530 1013h1l1 7h-3c-.625-1.812-.625-1.812-1-4z"/><path fill="#f5e0ca" d="M1325 1001h11v1l-12 2z"/><path fill="#c8602f" d="M1509 989c2 3 2 3 1.625 5.188L1510 996h-2l-1 3c-.18-3.947-.094-6.598 2-10"/><path fill="#be501b" d="m1369 993 4 1-2 1 2 1v2l-6 1v-2h2z"/><path fill="#974d31" d="M600 995v4l-7-2c3-2 3-2 7-2"/><path fill="#f1e0c9" d="m1464 990 2 1c-1.125 1.938-1.125 1.938-3 4-3.187.75-3.187.75-6 1 2.257-2.335 4.28-4.187 7-6"/><path fill="#c16b3b" d="M551 953h1l-1 9-2-1 1-3h-2c1.875-3.875 1.875-3.875 3-5"/><path fill="#cf5219" d="m1490 947 4 1v4h-5z"/><path fill="#f6e7d1" d="M868 941h-2v2l-13-1v-1q2.625-.292 5.25-.562l2.953-.317c2.56-.11 4.378.102 6.797.879"/><path fill="#c04a13" d="M1200 894h2l1 2 2-1v5l-4-1z"/><path fill="#a9552f" d="m1246 858 3 1-8 6-1-3 6-2z"/><path fill="#f7e1cc" d="M1128 842c1.136 3.41.867 4.003-.437 7.188l-.872 2.167L1126 853c-1.244-3.732-.778-6.18 0-10z"/><path fill="#f7ebd7" d="M1214 755c-3.268 2.179-6.38 3.498-10 5v-3c3.402-2.094 6.053-2.18 10-2"/><path fill="#b5531e" d="M1473 1268h5l-2 2 2 2-7 1 2-1z"/><path fill="#a65832" d="M1533 1201h3l-1 3h-2v2h-2v2h-2a56.5 56.5 0 0 1 4-7"/><path fill="#c25019" d="m1544 1176 1 3-1 1a86 86 0 0 0-.562 4.563l-.254 2.503L1543 1189h-1l-1-11z"/><path fill="#ecd4bf" d="M525 1129h1c.25 3.313.25 3.313 0 7l-4 3z"/><path fill="#c44716" d="m1548 1107 3 1c-.312 1.938-.312 1.938-1 4l-3 1a100 100 0 0 1 0-5z"/><path fill="#faeede" d="m816 1053 11 1v1l-11 1z"/><path fill="#eedbc3" d="m529 1012 1 2c-.777 2.164-.777 2.164-1.937 4.625l-1.153 2.477L526 1023c-1.12-3.733-.761-5.478 1-9z"/><path fill="#aa542a" d="M607 1003h9l-1 3h-4v-2z"/><path fill="#ba6c4a" d="M649 984h4v2h5c-2 2-2 2-4.625 2.125L651 988v-3z"/><path fill="#f6ead3" d="m1443 960 4 1c-2.312 2.063-2.312 2.063-5 4l-3-1 1-2h3z"/><path fill="#b96544" d="M1495 945c2.296 3.445 2.54 5.938 3 10h-2c-1.607-3.215-1.057-6.436-1-10"/><path fill="#cd5310" d="m1181 917 2 4-4 2-1-3z"/><path fill="#b76d48" d="M806 915v1c-8.571 1.429-8.571 1.429-12-1 4.084-1.532 7.795-.63 12 0"/><path fill="#af4d21" d="M566 912h4c-.812 1.938-.812 1.938-2 4l-3 1z"/><path fill="#ce5019" d="m1448 889 3 1 1 3-2 3-3-1 .5-1.875c.5-2.125.5-2.125.5-4.125"/><path fill="#b26945" d="m603 884 2 1-1 3-8 1a140 140 0 0 1 7-5"/><path fill="#b14f28" d="M1415 872c4.75.875 4.75.875 7 2v2l-7-1z"/><path fill="#c75118" d="m654.625 869.438 2.477.308L659 870l-2 2a93 93 0 0 1-4-1l-3 1-2-2c2.52-1.26 3.854-.919 6.625-.562"/><path fill="#b96041" d="m743 845-1 2c-3.062.625-3.062.625-6 1v-2l-2-1c3.378-.845 5.675-1.108 9 0"/><path fill="#af674a" d="m1246 819 2 1c-1.687 2.5-1.687 2.5-4 5-2.75.313-2.75.313-5 0l2.375-1.875C1244 821 1244 821 1246 819"/><path fill="#f6e9d9" d="m1251 817-8 5v-3h2v-2c2-1 2-1 6 0"/><path fill="#bd592b" d="M1148 807c1.46 2.647 2 3.894 2 7l-2 1c-1.125-5.75-1.125-5.75 0-8"/><path fill="#b26543" d="m1163 790 1 2c-1 3-1 3-4 5l-3-1z"/><path fill="#f4e7d2" d="m1174 777 3 1c-1.375 1.5-1.375 1.5-3 3h-2l-1 3-2-2 1-2h3z"/><path fill="#bf5725" d="m1186 773 2 4h-3l-1 2-2-1v-2h2v-2z"/><path fill="#b45020" d="M571 1266c-1.187 1.5-1.187 1.5-3 3-2.687.188-2.687.188-5 0l-1-2c3.073-.91 5.801-1.089 9-1"/><path fill="#ba936b" d="M522 1251c3.375.25 3.375.25 7 1 1.438 2.063 1.438 2.063 2 4-3.083-1.199-6.063-2.477-9-4z"/><path fill="#cf632e" d="m1514 1250 7 1-2 1-1 3-3-1c-.687-2.062-.687-2.062-1-4"/><path fill="#f5e3cb" d="M1533 1201c-1.393 3.367-2.979 4.986-6 7v-3h2v-3c2-1 2-1 4-1"/><path fill="#bf6439" d="m523 1029 5 1-2 1c-1.125 2.063-1.125 2.063-2 4v-2h-2z"/><path fill="#a8592d" d="M1425 1008h5v2l-9 2 4-2z"/><path fill="#c36e43" d="M1458 945h4c-.187 1.875-.187 1.875-1 4-2.562 1.25-2.562 1.25-5 2z"/><path fill="#a65725" d="M1424 911h4v2h3v2c-4.75-.875-4.75-.875-7-2z"/><path fill="#b4724f" d="M1008 906c2 1.625 2 1.625 4 4 .25 3.25.25 3.25 0 6h-1v-5h-3z"/><path fill="#b16644" d="M588 893c0 3 0 3-1 6h-6c2.257-2.335 4.28-4.187 7-6"/><path fill="#ca5e31" d="m1254 816 2 1-2 5-4-1c1-3 1-3 4-5"/><path fill="#b4693e" d="M1272 813c4.875 2.75 4.875 2.75 6 5h-5z"/><path fill="#faefe0" d="m1190 812 1 4c-2.375 1.563-2.375 1.563-5 3l-2-1z"/><path fill="#f9e9d8" d="M1261 812q-1.934 1.007-3.875 2l-2.18 1.125C1253 816 1253 816 1251 816c1-3 1-3 3.313-4.25 2.853-.796 3.935-.571 6.687.25"/></svg>